TitilliumWeb-SemiBoldItalic.ufo
<glyph name="exclam" format="2">
  <advance width="174.11111111111111"/>
  <unicode hex="0021"/>
  <outline>
    <contour>
      <point x="91.64646464646464" y="246.13131313131314" type="line"/>
      <point x="192.8989898989899" y="246.13131313131314" type="line"/>
      <point x="306.4141414141414" y="700.0" type="line"/>
      <point x="191.1919191919192" y="700.0" type="line"/>
    </contour>
    <contour>
      <point x="32.93939393939394" y="0.0" type="line"/>
      <point x="143.68686868686868" y="0.0" type="line"/>
      <point x="174.64646464646464" y="135.32323232323233" type="line"/>
      <point x="63.898989898989896" y="135.32323232323233" type="line"/>
    </contour>
  </outline>
</glyph>
<glyph name="numbersign" format="2">
  <advance width="560.0"/>
  <unicode hex="0023"/>
  <outline>
    <contour>
      <point x="115.84848484848484" y="0.0" type="line"/>
      <point x="211.64646464646464" y="0.0" type="line"/>
      <point x="253.9090909090909" y="171.31313131313132" type="line"/>
      <point x="379.1212121212121" y="171.31313131313132" type="line"/>
      <point x="336.85858585858585" y="0.0" type="line"/>
      <point x="432.65656565656565" y="0.0" type="line"/>
      <point x="474.9191919191919" y="171.31313131313132" type="line"/>
      <point x="576.979797979798" y="171.31313131313132" type="line"/>
      <point x="599.929292929293" y="263.1111111111111" type="line"/>
      <point x="497.8686868686869" y="263.1111111111111" type="line"/>
      <point x="531.4444444444445" y="399.4141414141414" type="line"/>
      <point x="633.5050505050505" y="399.4141414141414" type="line"/>
      <point x="656.4545454545455" y="491.2121212121212" type="line"/>
      <point x="554.3939393939394" y="491.2121212121212" type="line"/>
      <point x="597.1616161616162" y="662.5252525252525" type="line"/>
      <point x="501.3636363636364" y="662.5252525252525" type="line"/>
      <point x="458.5959595959596" y="491.2121212121212" type="line"/>
      <point x="333.3838383838384" y="491.2121212121212" type="line"/>
      <point x="376.1515151515151" y="662.5252525252525" type="line"/>
      <point x="280.35353535353534" y="662.5252525252525" type="line"/>
      <point x="237.58585858585857" y="491.2121212121212" type="line"/>
      <point x="135.5252525252525" y="491.2121212121212" type="line"/>
      <point x="112.57575757575758" y="399.4141414141414" type="line"/>
      <point x="214.63636363636363" y="399.4141414141414" type="line"/>
      <point x="181.06060606060606" y="263.1111111111111" type="line"/>
      <point x="79.0" y="263.1111111111111" type="line"/>
      <point x="56.05050505050505" y="171.31313131313132" type="line"/>
      <point x="158.11111111111111" y="171.31313131313132" type="line"/>
    </contour>
    <contour>
      <point x="276.85858585858585" y="263.1111111111111" type="line"/>
      <point x="310.4343434343434" y="399.4141414141414" type="line"/>
      <point x="435.64646464646466" y="399.4141414141414" type="line"/>
      <point x="402.07070707070704" y="263.1111111111111" type="line"/>
    </contour>
  </outline>
</glyph>
<glyph name="dollar" format="2">
  <advance width="560.0"/>
  <unicode hex="0024"/>
  <outline>
    <contour>
      <point x="130.16161616161617" y="-119.25252525252525" type="line"/>
      <point x="201.5252525252525" y="-119.25252525252525" type="line"/>
      <point x="583.0909090909091" y="775.7979797979798" type="line"/>
      <point x="510.47474747474746" y="775.7979797979798" type="line"/>
    </contour>
    <contour>
      <point x="288.73737373737373" y="-11.242424242424242" type="curve" smooth="yes"/>
      <point x="435.4646464646465" y="-11.242424242424242"/>
      <point x="533.4343434343434" y="70.28282828282828"/>
      <point x="533.4343434343434" y="217.75757575757575" type="curve" smooth="yes"/>
      <point x="533.4343434343434" y="304.5050505050505"/>
      <point x="503.62626262626264" y="337.72727272727275"/>
      <point x="399.67676767676767" y="380.17171717171715" type="curve" smooth="yes"/>
      <point x="317.14141414141415" y="414.1515151515151"/>
      <point x="297.80808080808083" y="426.90909090909093"/>
      <point x="297.80808080808083" y="470.2323232323232" type="curve" smooth="yes"/>
      <point x="297.80808080808083" y="538.1515151515151"/>
      <point x="342.4141414141414" y="579.2020202020202"/>
      <point x="415.5656565656566" y="579.2020202020202" type="curve" smooth="yes"/>
      <point x="465.3131313131313" y="579.2020202020202"/>
      <point x="543.2929292929293" y="569.4545454545455"/>
      <point x="587.5353535353536" y="561.4545454545455" type="curve"/>
      <point x="607.7373737373738" y="639.7878787878788" type="line"/>
      <point x="567.0" y="653.7676767676768"/>
      <point x="486.5353535353535" y="672.2424242424242"/>
      <point x="414.34343434343435" y="672.2424242424242" type="curve" smooth="yes"/>
      <point x="275.09090909090907" y="672.2424242424242"/>
      <point x="187.31313131313132" y="585.060606060606"/>
      <point x="187.31313131313132" y="458.27272727272725" type="curve" smooth="yes"/>
      <point x="187.31313131313132" y="371.020202020202"/>
      <point x="229.86868686868686" y="335.3131313131313"/>
      <point x="319.8989898989899" y="298.34343434343435" type="curve" smooth="yes"/>
      <point x="405.64646464646466" y="263.3838383838384"/>
      <point x="422.6868686868687" y="250.12121212121212"/>
      <point x="422.6868686868687" y="205.54545454545453" type="curve" smooth="yes"/>
      <point x="422.6868686868687" y="121.18181818181819"/>
      <point x="373.1212121212121" y="84.2929292929293"/>
      <point x="288.75757575757575" y="84.2929292929293" type="curve" smooth="yes"/>
      <point x="238.0" y="84.2929292929293"/>
      <point x="157.24242424242425" y="94.78787878787878"/>
      <point x="108.98989898989899" y="103.28282828282829" type="curve"/>
      <point x="91.03030303030303" y="22.949494949494948" type="line"/>
      <point x="133.2828282828283" y="8.474747474747474"/>
      <point x="217.5252525252525" y="-11.242424242424242"/>
    </contour>
  </outline>
</glyph>
<glyph name="percent" format="2">
  <advance width="560.0"/>
  <unicode hex="0025"/>
  <outline>
    <contour>
      <point x="194.82828282828282" y="-17.68686868686869" type="line"/>
      <point x="591.8080808080808" y="691.5151515151515" type="line"/>
      <point x="524.6767676767677" y="715.2020202020202" type="line"/>
      <point x="127.69696969696969" y="6.0" type="line"/>
    </contour>
    <contour>
      <point x="415.0" y="0.0" type="curve" smooth="yes"/>
      <point x="487.7070707070707" y="0.0"/>
      <point x="542.2020202020202" y="47.23232323232323"/>
      <point x="566.2020202020202" y="143.97979797979798" type="curve" smooth="yes"/>
      <point x="590.2020202020202" y="240.72727272727272"/>
      <point x="558.6969696969697" y="286.2020202020202"/>
      <point x="485.73737373737373" y="286.2020202020202" type="curve" smooth="yes"/>
      <point x="412.52525252525254" y="286.2020202020202"/>
      <point x="358.7878787878788" y="240.72727272727272"/>
      <point x="334.7878787878788" y="144.23232323232324" type="curve" smooth="yes"/>
      <point x="310.7878787878788" y="47.23232323232323"/>
      <point x="342.04040404040404" y="0.0"/>
    </contour>
    <contour>
      <point x="430.969696969697" y="67.87878787878788" type="curve" smooth="yes"/>
      <point x="405.14141414141415" y="67.87878787878788"/>
      <point x="403.6161616161616" y="92.42424242424242"/>
      <point x="416.8787878787879" y="144.23232323232324" type="curve" smooth="yes"/>
      <point x="429.3939393939394" y="195.53535353535352"/>
      <point x="442.93939393939394" y="218.32323232323233"/>
      <point x="468.7676767676768" y="218.32323232323233" type="curve" smooth="yes"/>
      <point x="494.8484848484849" y="218.32323232323233"/>
      <point x="496.62626262626264" y="195.53535353535352"/>
      <point x="484.1111111111111" y="143.97979797979798" type="curve" smooth="yes"/>
      <point x="470.8484848484849" y="92.42424242424242"/>
      <point x="457.050505050505" y="67.87878787878788"/>
    </contour>
    <contour>
      <point x="236.5151515151515" y="415.050505050505" type="curve" smooth="yes"/>
      <point x="309.22222222222223" y="415.050505050505"/>
      <point x="363.7171717171717" y="462.2828282828283"/>
      <point x="387.7171717171717" y="559.030303030303" type="curve" smooth="yes"/>
      <point x="411.7171717171717" y="655.7777777777778"/>
      <point x="380.4646464646465" y="701.2525252525253"/>
      <point x="307.5050505050505" y="701.2525252525253" type="curve" smooth="yes"/>
      <point x="234.2929292929293" y="701.2525252525253"/>
      <point x="180.3030303030303" y="655.7777777777778"/>
      <point x="156.3030303030303" y="559.2828282828283" type="curve" smooth="yes"/>
      <point x="132.3030303030303" y="462.2828282828283"/>
      <point x="163.55555555555554" y="415.050505050505"/>
    </contour>
    <contour>
      <point x="253.4848484848485" y="482.92929292929296" type="curve" smooth="yes"/>
      <point x="227.65656565656565" y="482.92929292929296"/>
      <point x="225.87878787878788" y="507.72727272727275"/>
      <point x="238.3939393939394" y="559.2828282828283" type="curve" smooth="yes"/>
      <point x="251.65656565656565" y="610.5858585858585"/>
      <point x="264.7070707070707" y="633.3737373737374"/>
      <point x="290.5353535353535" y="633.3737373737374" type="curve" smooth="yes"/>
      <point x="316.6161616161616" y="633.3737373737374"/>
      <point x="318.8888888888889" y="610.5858585858585"/>
      <point x="305.62626262626264" y="559.030303030303" type="curve" smooth="yes"/>
      <point x="293.1111111111111" y="507.47474747474746"/>
      <point x="279.5656565656566" y="482.92929292929296"/>
    </contour>
  </outline>
</glyph>
<glyph name="ampersand" format="2">
  <advance width="600.0"/>
  <unicode hex="0026"/>
  <outline>
    <contour>
      <point x="245.41414141414143" y="-11.242424242424242" type="curve" smooth="yes"/>
      <point x="330.7171717171717" y="-11.242424242424242"/>
      <point x="412.2121212121212" y="22.767676767676768"/>
      <point x="470.74747474747477" y="83.13131313131314" type="curve"/>
      <point x="561.5353535353536" y="-10.737373737373737" type="line"/>
      <point x="638.3737373737374" y="60.85858585858586" type="line"/>
      <point x="542.8282828282828" y="163.96969696969697" type="line"/>
      <point x="574.8181818181819" y="211.46464646464648"/>
      <point x="615.070707070707" y="298.24242424242425"/>
      <point x="639.3131313131313" y="368.73737373737373" type="curve"/>
      <point x="535.5454545454545" y="380.95959595959596" type="line"/>
      <point x="524.5252525252525" y="340.4040404040404"/>
      <point x="494.0" y="264.1111111111111"/>
      <point x="478.47474747474746" y="238.31313131313132" type="curve"/>
      <point x="387.7979797979798" y="351.3030303030303" type="line"/>
      <point x="528.0808080808081" y="423.4646464646465"/>
      <point x="578.6161616161617" y="484.989898989899"/>
      <point x="578.6161616161617" y="585.7676767676768" type="curve" smooth="yes"/>
      <point x="578.6161616161617" y="662.7171717171717"/>
      <point x="521.1818181818181" y="707.4545454545455"/>
      <point x="412.0" y="707.4545454545455" type="curve" smooth="yes"/>
      <point x="258.54545454545456" y="707.4545454545455"/>
      <point x="187.85858585858585" y="616.1414141414141"/>
      <point x="187.85858585858585" y="505.45454545454544" type="curve" smooth="yes"/>
      <point x="187.85858585858585" y="473.22222222222223"/>
      <point x="197.84848484848484" y="446.72727272727275"/>
      <point x="220.83838383838383" y="407.26262626262627" type="curve"/>
      <point x="72.04040404040404" y="353.7878787878788"/>
      <point x="19.77777777777778" y="263.5353535353535"/>
      <point x="19.77777777777778" y="139.97979797979798" type="curve" smooth="yes"/>
      <point x="19.77777777777778" y="44.74747474747475"/>
      <point x="81.4949494949495" y="-11.242424242424242"/>
    </contour>
    <contour>
      <point x="238.94949494949495" y="86.78787878787878" type="curve" smooth="yes"/>
      <point x="164.31313131313132" y="86.78787878787878"/>
      <point x="131.27272727272728" y="111.34343434343435"/>
      <point x="131.27272727272728" y="160.43434343434345" type="curve" smooth="yes"/>
      <point x="131.27272727272728" y="231.84848484848484"/>
      <point x="171.2929292929293" y="300.64646464646466"/>
      <point x="265.75757575757575" y="334.4141414141414" type="curve"/>
      <point x="408.14141414141415" y="151.24242424242425" type="line"/>
      <point x="371.06060606060606" y="111.33333333333334"/>
      <point x="304.5353535353535" y="86.78787878787878"/>
    </contour>
    <contour>
      <point x="335.8989898989899" y="419.65656565656565" type="curve"/>
      <point x="316.8686868686869" y="434.969696969697" type="line" smooth="yes"/>
      <point x="300.6161616161616" y="458.4646464646465"/>
      <point x="294.1212121212121" y="478.72727272727275"/>
      <point x="294.1212121212121" y="498.73737373737373" type="curve" smooth="yes"/>
      <point x="294.1212121212121" y="552.070707070707"/>
      <point x="328.6363636363636" y="614.1616161616162"/>
      <point x="407.75757575757575" y="614.1616161616162" type="curve" smooth="yes"/>
      <point x="448.8484848484849" y="614.1616161616162"/>
      <point x="467.62626262626264" y="602.3636363636364"/>
      <point x="467.62626262626264" y="572.3131313131313" type="curve" smooth="yes"/>
      <point x="467.62626262626264" y="521.7272727272727"/>
      <point x="447.35353535353534" y="475.8989898989899"/>
    </contour>
  </outline>
</glyph>
<glyph name="quotesingle" format="2">
  <advance width="148.1010101010101"/>
  <unicode hex="0027"/>
  <outline>
    <contour>
      <point x="127.93939393939394" y="449.37373737373736" type="line"/>
      <point x="222.23232323232324" y="449.37373737373736" type="line"/>
      <point x="285.6868686868687" y="690.5252525252525" type="line"/>
      <point x="183.4141414141414" y="690.5252525252525" type="line"/>
    </contour>
  </outline>
</glyph>
<glyph name="parenleft" format="2">
  <advance width="231.22222222222223"/>
  <unicode hex="0028"/>
  <outline>
    <contour>
      <point x="89.34343434343434" y="-123.25252525252525" type="curve"/>
      <point x="193.35353535353536" y="-123.25252525252525" type="line"/>
      <point x="186.60606060606062" y="-77.53535353535354"/>
      <point x="177.85858585858585" y="21.666666666666668"/>
      <point x="177.85858585858585" y="124.17171717171718" type="curve" smooth="yes"/>
      <point x="177.85858585858585" y="338.7171717171717"/>
      <point x="302.85858585858585" y="606.2424242424242"/>
      <point x="397.85858585858585" y="748.0" type="curve"/>
      <point x="295.5858585858586" y="748.0" type="line"/>
      <point x="196.1010101010101" y="617.2323232323232"/>
      <point x="63.62626262626262" y="357.6969696969697"/>
      <point x="63.62626262626262" y="124.17171717171718" type="curve" smooth="yes"/>
      <point x="63.62626262626262" y="11.191919191919194"/>
      <point x="78.60606060606061" y="-83.27272727272727"/>
    </contour>
  </outline>
</glyph>
<glyph name="parenright" format="2">
  <advance width="231.7171717171717"/>
  <unicode hex="0029"/>
  <outline>
    <contour>
      <point x="287.37373737373736" y="753.2525252525253" type="curve"/>
      <point x="183.36363636363637" y="753.2525252525253" type="line"/>
      <point x="190.11111111111111" y="707.5353535353536"/>
      <point x="198.85858585858585" y="608.3333333333334"/>
      <point x="198.85858585858585" y="505.82828282828285" type="curve" smooth="yes"/>
      <point x="198.85858585858585" y="291.2828282828283"/>
      <point x="73.85858585858585" y="23.757575757575758"/>
      <point x="-21.141414141414145" y="-118.0" type="curve"/>
      <point x="81.13131313131314" y="-118.0" type="line"/>
      <point x="180.6161616161616" y="12.767676767676768"/>
      <point x="313.0909090909091" y="272.3030303030303"/>
      <point x="313.0909090909091" y="505.82828282828285" type="curve" smooth="yes"/>
      <point x="313.0909090909091" y="618.8080808080808"/>
      <point x="298.1111111111111" y="713.2727272727273"/>
    </contour>
  </outline>
</glyph>
<glyph name="asterisk" format="2">
  <advance width="418.95959595959596"/>
  <unicode hex="002A"/>
  <outline>
    <contour>
      <point x="353.0" y="362.80808080808083" type="line"/>
      <point x="415.64646464646466" y="381.77777777777777" type="line"/>
      <point x="376.6363636363636" y="504.050505050505" type="line"/>
      <point x="503.17171717171715" y="504.050505050505" type="line"/>
      <point x="503.17171717171715" y="567.9494949494949" type="line"/>
      <point x="377.14141414141415" y="567.9494949494949" type="line"/>
      <point x="416.1515151515151" y="691.969696969697" type="line"/>
      <point x="352.010101010101" y="713.1818181818181" type="line"/>
      <point x="312.25252525252523" y="590.1616161616162" type="line"/>
      <point x="208.97979797979798" y="665.1818181818181" type="line"/>
      <point x="169.54545454545453" y="611.2727272727273" type="line"/>
      <point x="273.3131313131313" y="536.5050505050505" type="line"/>
      <point x="167.05050505050505" y="458.0" type="line"/>
      <point x="206.97979797979798" y="407.0808080808081" type="line"/>
      <point x="311.74747474747477" y="486.0808080808081" type="line"/>
    </contour>
  </outline>
</glyph>
<glyph name="plus" format="2">
  <advance width="560.0"/>
  <unicode hex="002B"/>
  <outline>
    <contour>
      <point x="286.85858585858585" y="20.747474747474747" type="line"/>
      <point x="385.64646464646466" y="20.747474747474747" type="line"/>
      <point x="385.64646464646466" y="201.85858585858585" type="line"/>
      <point x="564.979797979798" y="201.85858585858585" type="line"/>
      <point x="564.979797979798" y="300.14141414141415" type="line"/>
      <point x="385.64646464646466" y="300.14141414141415" type="line"/>
      <point x="385.64646464646466" y="479.25252525252523" type="line"/>
      <point x="286.85858585858585" y="479.25252525252523" type="line"/>
      <point x="286.85858585858585" y="300.14141414141415" type="line"/>
      <point x="109.52525252525253" y="300.14141414141415" type="line"/>
      <point x="109.52525252525253" y="201.85858585858585" type="line"/>
      <point x="286.85858585858585" y="201.85858585858585" type="line"/>
    </contour>
  </outline>
</glyph>
<glyph name="comma" format="2">
  <advance width="178.53535353535352"/>
  <unicode hex="002C"/>
  <outline>
    <contour>
      <point x="-35.82828282828283" y="-129.74747474747474" type="line"/>
      <point x="54.21212121212121" y="-129.74747474747474" type="line"/>
      <point x="193.32323232323233" y="135.32323232323233" type="line"/>
      <point x="73.34343434343434" y="135.32323232323233" type="line"/>
    </contour>
  </outline>
</glyph>
<glyph name="period" format="2">
  <advance width="158.8181818181818"/>
  <unicode hex="002E"/>
  <outline>
    <contour>
      <point x="24.16161616161616" y="0.0" type="line"/>
      <point x="134.9090909090909" y="0.0" type="line"/>
      <point x="165.86868686868686" y="135.32323232323233" type="line"/>
      <point x="55.12121212121212" y="135.32323232323233" type="line"/>
    </contour>
  </outline>
</glyph>
<glyph name="slash" format="2">
  <advance width="447.2929292929293"/>
  <unicode hex="002F"/>
  <outline>
    <contour>
      <point x="141.53535353535352" y="-18.191919191919194" type="line"/>
      <point x="571.0202020202021" y="677.030303030303" type="line"/>
      <point x="468.5050505050505" y="713.4545454545455" type="line"/>
      <point x="39.02020202020202" y="17.97979797979798" type="line"/>
    </contour>
  </outline>
</glyph>
<glyph name="zero" format="2">
  <advance width="560.0"/>
  <unicode hex="0030"/>
  <outline>
    <contour>
      <point x="306.2020202020202" y="-11.242424242424242" type="curve" smooth="yes"/>
      <point x="488.030303030303" y="-11.242424242424242"/>
      <point x="614.2222222222222" y="194.46464646464648"/>
      <point x="614.2222222222222" y="466.3131313131313" type="curve" smooth="yes"/>
      <point x="614.2222222222222" y="597.2828282828283"/>
      <point x="550.7070707070707" y="671.4949494949495"/>
      <point x="404.7878787878788" y="671.4949494949495" type="curve" smooth="yes"/>
      <point x="221.1919191919192" y="671.4949494949495"/>
      <point x="97.77777777777777" y="459.47474747474746"/>
      <point x="97.77777777777777" y="192.42424242424244" type="curve" smooth="yes"/>
      <point x="97.77777777777777" y="62.21212121212121"/>
      <point x="162.05050505050505" y="-11.242424242424242"/>
    </contour>
    <contour>
      <point x="307.6969696969697" y="85.2929292929293" type="curve" smooth="yes"/>
      <point x="239.37373737373738" y="85.2929292929293"/>
      <point x="212.26262626262627" y="125.06060606060606"/>
      <point x="212.26262626262627" y="206.63636363636363" type="curve" smooth="yes"/>
      <point x="212.26262626262627" y="355.73737373737373"/>
      <point x="279.07070707070704" y="574.959595959596"/>
      <point x="402.54545454545456" y="574.959595959596" type="curve" smooth="yes"/>
      <point x="473.8888888888889" y="574.959595959596"/>
      <point x="499.73737373737373" y="533.1717171717172"/>
      <point x="499.73737373737373" y="451.3636363636364" type="curve" smooth="yes"/>
      <point x="499.73737373737373" y="297.6969696969697"/>
      <point x="430.4040404040404" y="85.2929292929293"/>
    </contour>
  </outline>
</glyph>
<glyph name="one" format="2">
  <advance width="560.0"/>
  <unicode hex="0031"/>
  <outline>
    <contour>
      <point x="291.8787878787879" y="0.0" type="line"/>
      <point x="403.37373737373736" y="0.0" type="line"/>
      <point x="555.1212121212121" y="660.2525252525253" type="line"/>
      <point x="458.09090909090907" y="660.2525252525253" type="line"/>
      <point x="209.65656565656565" y="520.2929292929293" type="line"/>
      <point x="239.33333333333334" y="431.4848484848485" type="line"/>
      <point x="413.19191919191917" y="527.2929292929293" type="line"/>
    </contour>
  </outline>
</glyph>
<glyph name="two" format="2">
  <advance width="560.0"/>
  <unicode hex="0032"/>
  <outline>
    <contour>
      <point x="64.76767676767676" y="0.0" type="line"/>
      <point x="488.75757575757575" y="0.0" type="line"/>
      <point x="512.4545454545455" y="96.53535353535354" type="line"/>
      <point x="219.1919191919192" y="96.53535353535354" type="line"/>
      <point x="425.93939393939394" y="257.26262626262627" type="line" smooth="yes"/>
      <point x="529.929292929293" y="337.7676767676768"/>
      <point x="600.989898989899" y="406.8181818181818"/>
      <point x="600.989898989899" y="521.7777777777778" type="curve" smooth="yes"/>
      <point x="600.989898989899" y="625.5050505050505"/>
      <point x="538.4848484848485" y="671.7474747474747"/>
      <point x="407.5353535353535" y="671.7474747474747" type="curve" smooth="yes"/>
      <point x="344.27272727272725" y="671.7474747474747"/>
      <point x="264.75757575757575" y="653.7575757575758"/>
      <point x="223.0" y="640.2626262626262" type="curve"/>
      <point x="209.04040404040404" y="557.6868686868687" type="line"/>
      <point x="250.56565656565655" y="564.9494949494949"/>
      <point x="324.3636363636364" y="575.2121212121212"/>
      <point x="376.8888888888889" y="575.2121212121212" type="curve" smooth="yes"/>
      <point x="456.9191919191919" y="575.2121212121212"/>
      <point x="486.5050505050505" y="554.4343434343434"/>
      <point x="486.5050505050505" y="496.3636363636364" type="curve" smooth="yes"/>
      <point x="486.5050505050505" y="439.0"/>
      <point x="423.67676767676767" y="379.1818181818182"/>
      <point x="309.7070707070707" y="281.969696969697" type="curve" smooth="yes"/>
      <point x="86.71717171717172" y="91.2929292929293" type="line"/>
    </contour>
  </outline>
</glyph>
<glyph name="three" format="2">
  <advance width="560.0"/>
  <unicode hex="0033"/>
  <outline>
    <contour>
      <point x="262.5353535353535" y="-11.242424242424242" type="curve" smooth="yes"/>
      <point x="425.95959595959596" y="-11.242424242424242"/>
      <point x="540.4747474747475" y="80.22222222222223"/>
      <point x="540.4747474747475" y="220.97979797979798" type="curve" smooth="yes"/>
      <point x="540.4747474747475" y="294.25252525252523"/>
      <point x="517.9191919191919" y="323.5353535353535"/>
      <point x="470.65656565656565" y="348.5151515151515" type="curve"/>
      <point x="555.6262626262626" y="388.4646464646465"/>
      <point x="597.2222222222222" y="438.010101010101"/>
      <point x="597.2222222222222" y="531.5252525252525" type="curve" smooth="yes"/>
      <point x="597.2222222222222" y="627.2323232323232"/>
      <point x="537.5050505050505" y="671.4949494949495"/>
      <point x="406.80808080808083" y="671.4949494949495" type="curve" smooth="yes"/>
      <point x="334.3131313131313" y="671.4949494949495"/>
      <point x="255.05050505050505" y="651.020202020202"/>
      <point x="215.78787878787878" y="635.040404040404" type="curve"/>
      <point x="204.56565656565655" y="559.6868686868687" type="line"/>
      <point x="245.57575757575756" y="566.4444444444445"/>
      <point x="322.1010101010101" y="574.959595959596"/>
      <point x="382.1313131313131" y="574.959595959596" type="curve" smooth="yes"/>
      <point x="452.2020202020202" y="574.959595959596"/>
      <point x="482.73737373737373" y="550.939393939394"/>
      <point x="482.73737373737373" y="502.1010101010101" type="curve" smooth="yes"/>
      <point x="482.73737373737373" y="432.74747474747477"/>
      <point x="405.61729292929294" y="379.6630909090909"/>
      <point x="350.3131313131313" y="377.95959595959596" type="curve" smooth="yes"/>
      <point x="221.06060606060606" y="373.47474747474746" type="line"/>
      <point x="200.1010101010101" y="288.8989898989899" type="line"/>
      <point x="327.3636363636364" y="287.4040404040404" type="line" smooth="yes"/>
      <point x="400.93939393939394" y="286.65656565656565"/>
      <point x="425.98989898989896" y="262.07070707070704"/>
      <point x="425.98989898989896" y="215.73737373737373" type="curve" smooth="yes"/>
      <point x="425.98989898989896" y="132.3838383838384"/>
      <point x="354.14141414141415" y="85.2929292929293"/>
      <point x="272.010101010101" y="85.2929292929293" type="curve" smooth="yes"/>
      <point x="219.4848484848485" y="85.2929292929293"/>
      <point x="136.24242424242425" y="95.07070707070707"/>
      <point x="88.25252525252525" y="102.34343434343435" type="curve"/>
      <point x="64.3030303030303" y="24.0" type="line"/>
      <point x="107.79797979797979" y="9.252525252525253"/>
      <point x="191.2929292929293" y="-11.242424242424242"/>
    </contour>
  </outline>
</glyph>
<glyph name="four" format="2">
  <advance width="560.0"/>
  <unicode hex="0034"/>
  <outline>
    <contour>
      <point x="337.65656565656565" y="-3.7373737373737375" type="line"/>
      <point x="448.4040404040404" y="-3.7373737373737375" type="line"/>
      <point x="476.16161616161617" y="117.05050505050505" type="line"/>
      <point x="544.2424242424242" y="117.05050505050505" type="line"/>
      <point x="566.4444444444445" y="210.59595959595958" type="line"/>
      <point x="497.6161616161616" y="210.59595959595958" type="line"/>
      <point x="542.1515151515151" y="404.25252525252523" type="line"/>
      <point x="431.4040404040404" y="404.25252525252523" type="line"/>
      <point x="386.86868686868684" y="210.59595959595958" type="line"/>
      <point x="211.96969696969697" y="210.59595959595958" type="line"/>
      <point x="506.62626262626264" y="660.0" type="line"/>
      <point x="384.1515151515151" y="660.0" type="line"/>
      <point x="91.98989898989899" y="199.12121212121212" type="line"/>
      <point x="73.03030303030303" y="117.05050505050505" type="line"/>
      <point x="365.4141414141414" y="117.05050505050505" type="line"/>
    </contour>
  </outline>
</glyph>
<glyph name="five" format="2">
  <advance width="560.0"/>
  <unicode hex="0035"/>
  <outline>
    <contour>
      <point x="290.6868686868687" y="-10.737373737373737" type="curve" smooth="yes"/>
      <point x="442.45454545454544" y="-10.737373737373737"/>
      <point x="558.2323232323232" y="104.05050505050505"/>
      <point x="558.2323232323232" y="262.2929292929293" type="curve" smooth="yes"/>
      <point x="558.2323232323232" y="371.24242424242425"/>
      <point x="491.989898989899" y="416.2323232323232"/>
      <point x="385.4949494949495" y="416.2323232323232" type="curve" smooth="yes"/>
      <point x="346.42424242424244" y="416.2323232323232"/>
      <point x="287.1010101010101" y="395.7070707070707"/>
      <point x="252.56565656565658" y="380.4343434343434" type="curve"/>
      <point x="317.62626262626264" y="564.2121212121212" type="line"/>
      <point x="614.2525252525253" y="564.2121212121212" type="line"/>
      <point x="636.4545454545455" y="660.7474747474747" type="line"/>
      <point x="250.27272727272728" y="660.7474747474747" type="line"/>
      <point x="141.54545454545453" y="308.3131313131313" type="line"/>
      <point x="224.62626262626264" y="290.1111111111111" type="line"/>
      <point x="253.43434343434345" y="302.8989898989899"/>
      <point x="308.030303030303" y="319.6969696969697"/>
      <point x="350.34343434343435" y="319.6969696969697" type="curve" smooth="yes"/>
      <point x="415.67676767676767" y="319.6969696969697"/>
      <point x="443.7474747474747" y="293.9090909090909"/>
      <point x="443.7474747474747" y="239.86868686868686" type="curve" smooth="yes"/>
      <point x="443.7474747474747" y="156.1818181818182"/>
      <point x="373.86868686868684" y="85.79797979797979"/>
      <point x="281.979797979798" y="85.79797979797979" type="curve" smooth="yes"/>
      <point x="225.96969696969697" y="85.79797979797979"/>
      <point x="140.4747474747475" y="102.2929292929293"/>
      <point x="91.23232323232324" y="114.2929292929293" type="curve"/>
      <point x="65.53535353535354" y="28.474747474747474" type="line"/>
      <point x="114.52525252525253" y="11.98989898989899"/>
      <point x="209.73737373737373" y="-10.737373737373737"/>
    </contour>
  </outline>
</glyph>
<glyph name="six" format="2">
  <advance width="560.0"/>
  <unicode hex="0036"/>
  <outline>
    <contour>
      <point x="308.2121212121212" y="-11.242424242424242" type="curve" smooth="yes"/>
      <point x="482.1818181818182" y="-11.242424242424242"/>
      <point x="577.1919191919192" y="97.5050505050505"/>
      <point x="577.1919191919192" y="252.26262626262627" type="curve" smooth="yes"/>
      <point x="577.1919191919192" y="356.7171717171717"/>
      <point x="524.1818181818181" y="420.2020202020202"/>
      <point x="398.2121212121212" y="420.2020202020202" type="curve" smooth="yes"/>
      <point x="348.3636363636364" y="420.2020202020202"/>
      <point x="280.7979797979798" y="398.4343434343434"/>
      <point x="244.52525252525254" y="381.9191919191919" type="curve"/>
      <point x="279.01010101010104" y="485.949494949495"/>
      <point x="337.0808080808081" y="574.959595959596"/>
      <point x="445.050505050505" y="574.959595959596" type="curve" smooth="yes"/>
      <point x="502.54545454545456" y="574.959595959596"/>
      <point x="568.3030303030303" y="565.7070707070707"/>
      <point x="602.5555555555555" y="559.4545454545455" type="curve"/>
      <point x="636.969696969697" y="650.2525252525253" type="line"/>
      <point x="598.4848484848485" y="659.0"/>
      <point x="526.2525252525253" y="671.4949494949495"/>
      <point x="471.24242424242425" y="671.4949494949495" type="curve" smooth="yes"/>
      <point x="229.7171717171717" y="671.4949494949495"/>
      <point x="104.55555555555556" y="412.42424242424244"/>
      <point x="104.55555555555556" y="220.4747474747475" type="curve" smooth="yes"/>
      <point x="104.55555555555556" y="63.03030303030303"/>
      <point x="183.4949494949495" y="-11.242424242424242"/>
    </contour>
    <contour>
      <point x="314.6868686868687" y="85.2929292929293" type="curve" smooth="yes"/>
      <point x="245.60606060606062" y="85.2929292929293"/>
      <point x="219.2929292929293" y="148.31313131313132"/>
      <point x="219.2929292929293" y="217.4848484848485" type="curve" smooth="yes"/>
      <point x="219.2929292929293" y="245.77777777777777"/>
      <point x="224.2929292929293" y="275.8484848484849"/>
      <point x="228.7979797979798" y="293.1010101010101" type="curve"/>
      <point x="256.8686868686869" y="306.1313131313131"/>
      <point x="312.4848484848485" y="323.6666666666667"/>
      <point x="365.04040404040404" y="323.6666666666667" type="curve" smooth="yes"/>
      <point x="427.9494949494949" y="323.6666666666667"/>
      <point x="462.7070707070707" y="300.83838383838383"/>
      <point x="462.7070707070707" y="239.010101010101" type="curve" smooth="yes"/>
      <point x="462.7070707070707" y="145.68686868686868"/>
      <point x="412.37373737373736" y="85.2929292929293"/>
    </contour>
  </outline>
</glyph>
<glyph name="seven" format="2">
  <advance width="560.0"/>
  <unicode hex="0037"/>
  <outline>
    <contour>
      <point x="230.88888888888889" y="-15.727272727272727" type="line"/>
      <point x="599.030303030303" y="511.7474747474747" type="line"/>
      <point x="633.4747474747475" y="660.0" type="line"/>
      <point x="227.2828282828283" y="660.0" type="line"/>
      <point x="205.08080808080808" y="563.2121212121212" type="line"/>
      <point x="499.27272727272725" y="563.2121212121212" type="line"/>
      <point x="491.27272727272725" y="523.9797979797979" type="line"/>
      <point x="129.37373737373736" y="14.717171717171718" type="line"/>
    </contour>
  </outline>
</glyph>
<glyph name="eight" format="2">
  <advance width="560.0"/>
  <unicode hex="0038"/>
  <outline>
    <contour>
      <point x="269.25252525252523" y="-12.737373737373737" type="curve" smooth="yes"/>
      <point x="463.04040404040404" y="-12.737373737373737"/>
      <point x="573.2323232323232" y="104.74747474747474"/>
      <point x="573.2323232323232" y="217.75757575757575" type="curve" smooth="yes"/>
      <point x="573.2323232323232" y="262.7878787878788"/>
      <point x="563.4545454545455" y="309.2828282828283"/>
      <point x="506.0808080808081" y="342.020202020202" type="curve"/>
      <point x="588.4646464646464" y="382.7171717171717"/>
      <point x="638.2525252525253" y="441.82828282828285"/>
      <point x="638.2525252525253" y="539.2424242424242" type="curve" smooth="yes"/>
      <point x="638.2525252525253" y="612.7777777777778"/>
      <point x="575.2727272727273" y="672.2424242424242"/>
      <point x="440.74747474747477" y="672.2424242424242" type="curve" smooth="yes"/>
      <point x="250.67676767676767" y="672.2424242424242"/>
      <point x="155.27272727272728" y="556.7575757575758"/>
      <point x="155.27272727272728" y="446.57575757575756" type="curve" smooth="yes"/>
      <point x="155.27272727272728" y="409.989898989899"/>
      <point x="158.58585858585857" y="383.22222222222223"/>
      <point x="209.8989898989899" y="342.020202020202" type="curve"/>
      <point x="146.5252525252525" y="307.5151515151515"/>
      <point x="65.25252525252525" y="241.77777777777777"/>
      <point x="65.25252525252525" y="144.9090909090909" type="curve" smooth="yes"/>
      <point x="65.25252525252525" y="38.68686868686869"/>
      <point x="130.85858585858585" y="-12.737373737373737"/>
    </contour>
    <contour>
      <point x="294.6969696969697" y="83.79797979797979" type="curve" smooth="yes"/>
      <point x="218.8181818181818" y="83.79797979797979"/>
      <point x="186.47474747474746" y="109.0909090909091"/>
      <point x="186.47474747474746" y="165.35353535353536" type="curve" smooth="yes"/>
      <point x="186.47474747474746" y="231.56565656565655"/>
      <point x="242.63636363636363" y="271.1212121212121"/>
      <point x="297.989898989899" y="288.8888888888889" type="curve"/>
      <point x="391.2929292929293" y="288.8888888888889" type="line"/>
      <point x="437.4040404040404" y="272.37373737373736"/>
      <point x="455.5050505050505" y="254.6161616161616"/>
      <point x="455.5050505050505" y="210.74747474747474" type="curve" smooth="yes"/>
      <point x="455.5050505050505" y="155.96969696969697"/>
      <point x="399.24242424242425" y="83.79797979797979"/>
    </contour>
    <contour>
      <point x="320.93939393939394" y="382.1818181818182" type="line"/>
      <point x="281.0505050505051" y="404.6868686868687"/>
      <point x="269.75757575757575" y="422.25252525252523"/>
      <point x="269.75757575757575" y="458.2828282828283" type="curve" smooth="yes"/>
      <point x="269.75757575757575" y="514.3636363636364"/>
      <point x="321.75757575757575" y="575.7070707070707"/>
      <point x="416.050505050505" y="575.7070707070707" type="curve" smooth="yes"/>
      <point x="488.2121212121212" y="575.7070707070707"/>
      <point x="517.7777777777778" y="544.4545454545455"/>
      <point x="517.7777777777778" y="497.3636363636364" type="curve" smooth="yes"/>
      <point x="517.7777777777778" y="445.42424242424244"/>
      <point x="458.050505050505" y="401.4040404040404"/>
      <point x="414.24242424242425" y="382.1818181818182" type="curve"/>
    </contour>
  </outline>
</glyph>
<glyph name="nine" format="2">
  <advance width="560.0"/>
  <unicode hex="0039"/>
  <outline>
    <contour>
      <point x="230.78787878787878" y="-11.242424242424242" type="curve" smooth="yes"/>
      <point x="417.16161616161617" y="-11.242424242424242"/>
      <point x="580.5050505050505" y="121.33333333333334"/>
      <point x="596.4141414141415" y="395.75757575757575" type="curve" smooth="yes"/>
      <point x="610.3030303030303" y="565.929292929293"/>
      <point x="557.3434343434343" y="671.4949494949495"/>
      <point x="421.7878787878788" y="671.4949494949495" type="curve" smooth="yes"/>
      <point x="237.49494949494948" y="671.4949494949495"/>
      <point x="142.92929292929293" y="541.4141414141415"/>
      <point x="134.34343434343435" y="426.35353535353534" type="curve" smooth="yes"/>
      <point x="126.01010101010101" y="297.82828282828285"/>
      <point x="185.27272727272728" y="243.2929292929293"/>
      <point x="301.55555555555554" y="243.2929292929293" type="curve" smooth="yes"/>
      <point x="351.82828282828285" y="243.2929292929293"/>
      <point x="450.8181818181818" y="269.5353535353535"/>
      <point x="465.2121212121212" y="273.3333333333333" type="curve"/>
      <point x="435.3939393939394" y="156.08080808080808"/>
      <point x="353.5959595959596" y="91.52525252525253"/>
      <point x="256.2323232323232" y="91.52525252525253" type="curve" smooth="yes"/>
      <point x="198.73737373737373" y="91.52525252525253"/>
      <point x="141.2020202020202" y="101.03030303030303"/>
      <point x="113.67676767676768" y="107.53535353535354" type="curve"/>
      <point x="78.74747474747475" y="10.505050505050505" type="line"/>
      <point x="112.51515151515152" y="1.505050505050505"/>
      <point x="176.78787878787878" y="-11.242424242424242"/>
    </contour>
    <contour>
      <point x="336.47474747474746" y="343.07070707070704" type="curve" smooth="yes"/>
      <point x="267.5959595959596" y="343.07070707070704"/>
      <point x="237.03030303030303" y="366.17171717171715"/>
      <point x="244.1010101010101" y="435.32323232323233" type="curve" smooth="yes"/>
      <point x="251.17171717171718" y="518.1717171717172"/>
      <point x="321.24242424242425" y="569.4747474747475"/>
      <point x="397.09090909090907" y="569.4747474747475" type="curve" smooth="yes"/>
      <point x="491.2121212121212" y="569.4747474747475"/>
      <point x="513.9797979797979" y="484.1212121212121"/>
      <point x="488.6666666666667" y="365.14141414141415" type="curve"/>
      <point x="448.35353535353534" y="356.1111111111111"/>
      <point x="379.010101010101" y="343.07070707070704"/>
    </contour>
  </outline>
</glyph>
<glyph name="less" format="2">
  <advance width="560.0"/>
  <unicode hex="003C"/>
  <outline>
    <contour>
      <point x="521.2626262626262" y="11.262626262626263" type="line"/>
      <point x="521.2626262626262" y="123.27272727272728" type="line"/>
      <point x="227.43434343434342" y="253.24242424242425" type="line"/>
      <point x="521.2626262626262" y="376.4848484848485" type="line"/>
      <point x="521.2626262626262" y="487.989898989899" type="line"/>
      <point x="110.71717171717172" y="296.65656565656565" type="line"/>
      <point x="110.71717171717172" y="205.34343434343435" type="line"/>
    </contour>
  </outline>
</glyph>
<glyph name="equal" format="2">
  <advance width="560.0"/>
  <unicode hex="003D"/>
  <outline>
    <contour>
      <point x="118.52525252525253" y="300.80808080808083" type="line"/>
      <point x="557.4747474747475" y="300.80808080808083" type="line"/>
      <point x="557.4747474747475" y="399.83838383838383" type="line"/>
      <point x="118.52525252525253" y="399.83838383838383" type="line"/>
    </contour>
    <contour>
      <point x="118.52525252525253" y="102.65656565656565" type="line"/>
      <point x="557.4747474747475" y="102.65656565656565" type="line"/>
      <point x="557.4747474747475" y="201.68686868686868" type="line"/>
      <point x="118.52525252525253" y="201.68686868686868" type="line"/>
    </contour>
  </outline>
</glyph>
<glyph name="greater" format="2">
  <advance width="560.0"/>
  <unicode hex="003E"/>
  <outline>
    <contour>
      <point x="153.23232323232324" y="11.262626262626263" type="line"/>
      <point x="563.7777777777778" y="205.34343434343435" type="line"/>
      <point x="563.7777777777778" y="296.65656565656565" type="line"/>
      <point x="153.23232323232324" y="487.989898989899" type="line"/>
      <point x="153.23232323232324" y="376.4848484848485" type="line"/>
      <point x="447.06060606060606" y="253.24242424242425" type="line"/>
      <point x="153.23232323232324" y="123.27272727272728" type="line"/>
    </contour>
  </outline>
</glyph>
<glyph name="question" format="2">
  <advance width="423.92929292929296"/>
  <unicode hex="003F"/>
  <outline>
    <contour>
      <point x="177.78787878787878" y="202.94949494949495" type="curve"/>
      <point x="280.55555555555554" y="202.94949494949495" type="line"/>
      <point x="289.3030303030303" y="242.6969696969697" type="line" smooth="yes"/>
      <point x="294.80808080808083" y="268.2323232323232"/>
      <point x="317.0370707070707" y="297.3112121212121"/>
      <point x="357.8686868686869" y="327.3131313131313" type="curve" smooth="yes"/>
      <point x="474.4007070707071" y="412.200101010101"/>
      <point x="514.4242424242424" y="453.8787878787879"/>
      <point x="514.4242424242424" y="550.8989898989898" type="curve" smooth="yes"/>
      <point x="514.4242424242424" y="655.5757575757576"/>
      <point x="444.4343434343434" y="696.2929292929293"/>
      <point x="338.5050505050505" y="696.2929292929293" type="curve" smooth="yes"/>
      <point x="288.5151515151515" y="696.2929292929293"/>
      <point x="219.27272727272728" y="681.5454545454545"/>
      <point x="180.77777777777777" y="670.0505050505051" type="curve"/>
      <point x="170.31313131313132" y="583.4848484848485" type="line"/>
      <point x="203.33333333333334" y="589.4949494949495"/>
      <point x="265.8484848484849" y="598.010101010101"/>
      <point x="313.8181818181818" y="598.010101010101" type="curve" smooth="yes"/>
      <point x="365.8888888888889" y="598.010101010101"/>
      <point x="398.6868686868687" y="588.4646464646464"/>
      <point x="398.6868686868687" y="540.4343434343434" type="curve" smooth="yes"/>
      <point x="398.6868686868687" y="490.55555555555554"/>
      <point x="365.0711919191919" y="461.43979797979796"/>
      <point x="282.3131313131313" y="399.6666666666667" type="curve" smooth="yes"/>
      <point x="224.68660606060607" y="357.29763636363634"/>
      <point x="192.54333333333335" y="319.32814141414144"/>
      <point x="185.2828282828283" y="281.0808080808081" type="curve" smooth="yes"/>
      <point x="180.04040404040404" y="254.86868686868686"/>
      <point x="178.04040404040404" y="220.91919191919192"/>
    </contour>
    <contour>
      <point x="128.83838383838383" y="0.2525252525252525" type="line"/>
      <point x="239.5858585858586" y="0.2525252525252525" type="line"/>
      <point x="272.5353535353535" y="146.53535353535352" type="line"/>
      <point x="161.53535353535352" y="146.53535353535352" type="line"/>
    </contour>
  </outline>
</glyph>
<glyph name="at" format="2">
  <advance width="948.1414141414141"/>
  <unicode hex="0040"/>
  <outline>
    <contour>
      <point x="455.64646464646466" y="-204.4747474747475" type="curve" smooth="yes"/>
      <point x="488.64646464646466" y="-204.4747474747475"/>
      <point x="555.3939393939394" y="-198.72727272727272"/>
      <point x="596.8888888888889" y="-194.72727272727272" type="curve"/>
      <point x="617.5858585858585" y="-102.66666666666666" type="line"/>
      <point x="574.5858585858585" y="-106.66666666666666"/>
      <point x="508.5858585858586" y="-111.91919191919192"/>
      <point x="480.83838383838383" y="-111.91919191919192" type="curve" smooth="yes"/>
      <point x="202.4848484848485" y="-111.91919191919192"/>
      <point x="152.17783838383838" y="70.14325252525254"/>
      <point x="199.59595959595958" y="268.47474747474746" type="curve" smooth="yes"/>
      <point x="257.02632323232325" y="508.2543636363636"/>
      <point x="380.22222222222223" y="631.9191919191919"/>
      <point x="619.5454545454545" y="631.9191919191919" type="curve" smooth="yes"/>
      <point x="912.5353535353536" y="631.9191919191919"/>
      <point x="928.8777373737373" y="484.27729292929297"/>
      <point x="885.3131313131313" y="307.0" type="curve" smooth="yes"/>
      <point x="844.0595555555556" y="138.1351313131313"/>
      <point x="809.1818181818181" y="93.51515151515152"/>
      <point x="761.3434343434343" y="93.51515151515152" type="curve" smooth="yes"/>
      <point x="731.3131313131313" y="93.51515151515152"/>
      <point x="713.7979797979798" y="101.0"/>
      <point x="716.040404040404" y="130.3030303030303" type="curve" smooth="yes"/>
      <point x="719.030303030303" y="170.3838383838384"/>
      <point x="781.8181818181819" y="442.4848484848485"/>
      <point x="791.0808080808081" y="481.52525252525254" type="curve"/>
      <point x="696.5151515151515" y="497.74747474747477"/>
      <point x="609.7676767676768" y="511.24242424242425"/>
      <point x="567.7878787878788" y="511.24242424242425" type="curve" smooth="yes"/>
      <point x="426.050505050505" y="511.24242424242425"/>
      <point x="347.6189494949495" y="401.7811111111111"/>
      <point x="315.030303030303" y="230.88888888888889" type="curve" smooth="yes"/>
      <point x="295.134101010101" y="127.50838383838384"/>
      <point x="303.45454545454544" y="-11.494949494949495"/>
      <point x="440.7070707070707" y="-11.242424242424242" type="curve" smooth="yes"/>
      <point x="500.7171717171717" y="-11.242424242424242"/>
      <point x="590.4646464646464" y="19.050505050505052"/>
      <point x="630.4646464646464" y="39.05050505050505" type="curve"/>
      <point x="645.9191919191919" y="4.252525252525253"/>
      <point x="682.1616161616162" y="-10.0"/>
      <point x="737.1515151515151" y="-10.0" type="curve" smooth="yes"/>
      <point x="857.3131313131313" y="-10.0"/>
      <point x="925.3912525252525" y="62.32549494949495"/>
      <point x="984.3434343434343" y="295.75757575757575" type="curve" smooth="yes"/>
      <point x="1043.1379797979798" y="527.4770101010101"/>
      <point x="976.4141414141415" y="724.4747474747475"/>
      <point x="636.5151515151515" y="724.4747474747475" type="curve" smooth="yes"/>
      <point x="345.5050505050505" y="724.4747474747475"/>
      <point x="175.99034343434343" y="600.2596161616162"/>
      <point x="97.06060606060606" y="268.47474747474746" type="curve" smooth="yes"/>
      <point x="41.515595959595956" y="35.08715151515151"/>
      <point x="125.78787878787878" y="-204.4747474747475"/>
    </contour>
    <contour>
      <point x="468.6363636363636" y="83.06060606060606" type="curve" smooth="yes"/>
      <point x="415.73028282828284" y="84.16836363636364"/>
      <point x="407.2828282828283" y="151.14141414141415"/>
      <point x="424.77777777777777" y="230.63636363636363" type="curve" smooth="yes"/>
      <point x="447.57575757575756" y="335.6363636363636"/>
      <point x="484.8888888888889" y="417.9494949494949"/>
      <point x="565.7777777777778" y="417.9494949494949" type="curve" smooth="yes"/>
      <point x="594.5959595959596" y="417.9494949494949"/>
      <point x="641.3535353535353" y="409.2020202020202"/>
      <point x="665.6161616161617" y="403.6969696969697" type="curve"/>
      <point x="643.3333333333334" y="311.07070707070704"/>
      <point x="609.5454545454545" y="160.86868686868686"/>
      <point x="606.5454545454545" y="126.86868686868686" type="curve"/>
      <point x="572.7676767676768" y="107.11111111111111"/>
      <point x="514.6850101010101" y="81.92593939393939"/>
    </contour>
  </outline>
</glyph>
<glyph name="A" format="2">
  <advance width="552.2626262626262"/>
  <unicode hex="0041"/>
  <outline>
    <contour>
      <point x="17.7979797979798" y="0.0" type="line"/>
      <point x="130.2929292929293" y="0.0" type="line"/>
      <point x="198.6969696969697" y="142.74747474747474" type="line"/>
      <point x="422.2020202020202" y="142.74747474747474" type="line"/>
      <point x="422.24242424242425" y="0.0" type="line"/>
      <point x="534.4848484848485" y="0.0" type="line"/>
      <point x="540.5858585858585" y="685.0505050505051" type="line"/>
      <point x="340.2121212121212" y="685.0505050505051" type="line"/>
    </contour>
    <contour>
      <point x="242.11111111111111" y="240.5252525252525" type="line"/>
      <point x="405.80808080808083" y="587.0202020202021" type="line"/>
      <point x="430.5959595959596" y="587.0202020202021" type="line"/>
      <point x="425.4343434343434" y="240.5252525252525" type="line"/>
    </contour>
  </outline>
</glyph>
<glyph name="B" format="2">
  <advance width="574.7676767676768"/>
  <unicode hex="0042"/>
  <outline>
    <contour>
      <point x="70.3030303030303" y="0.0" type="line"/>
      <point x="318.979797979798" y="0.0" type="line" smooth="yes"/>
      <point x="496.6969696969697" y="0.0"/>
      <point x="585.4646464646464" y="102.95959595959596"/>
      <point x="585.4646464646464" y="234.77777777777777" type="curve" smooth="yes"/>
      <point x="585.4646464646464" y="290.0808080808081"/>
      <point x="568.1414141414141" y="324.82828282828285"/>
      <point x="512.6363636363636" y="353.2828282828283" type="curve"/>
      <point x="582.6464646464647" y="390.73737373737373"/>
      <point x="631.959595959596" y="446.050505050505"/>
      <point x="631.959595959596" y="542.8484848484849" type="curve" smooth="yes"/>
      <point x="631.959595959596" y="642.5858585858585"/>
      <point x="568.4949494949495" y="685.0505050505051"/>
      <point x="459.010101010101" y="685.0505050505051" type="curve" smooth="yes"/>
      <point x="228.31313131313132" y="685.0505050505051" type="line"/>
    </contour>
    <contour>
      <point x="204.74747474747477" y="96.53535353535354" type="line"/>
      <point x="251.82828282828282" y="299.64646464646466" type="line"/>
      <point x="383.5151515151515" y="299.64646464646466" type="line" smooth="yes"/>
      <point x="437.6060606060606" y="299.64646464646466"/>
      <point x="469.72727272727275" y="282.3939393939394"/>
      <point x="469.72727272727275" y="232.2828282828283" type="curve" smooth="yes"/>
      <point x="469.72727272727275" y="151.37373737373738"/>
      <point x="421.1313131313131" y="96.53535353535354"/>
      <point x="341.1818181818182" y="96.53535353535354" type="curve" smooth="yes"/>
    </contour>
    <contour>
      <point x="273.030303030303" y="393.93939393939394" type="line"/>
      <point x="318.35353535353534" y="588.5151515151515" type="line"/>
      <point x="440.7979797979798" y="588.5151515151515" type="line" smooth="yes"/>
      <point x="493.6666666666667" y="588.5151515151515"/>
      <point x="517.2222222222222" y="568.5151515151515"/>
      <point x="517.2222222222222" y="521.6666666666666" type="curve" smooth="yes"/>
      <point x="517.2222222222222" y="447.80808080808083"/>
      <point x="466.64646464646466" y="393.93939393939394"/>
      <point x="397.4949494949495" y="393.93939393939394" type="curve" smooth="yes"/>
    </contour>
  </outline>
</glyph>
<glyph name="C" format="2">
  <advance width="498.04040404040404"/>
  <unicode hex="0043"/>
  <outline>
    <contour>
      <point x="304.5050505050505" y="-11.242424242424242" type="curve" smooth="yes"/>
      <point x="360.26262626262627" y="-11.242424242424242"/>
      <point x="433.75757575757575" y="2.7474747474747474"/>
      <point x="473.0" y="13.242424242424242" type="curve"/>
      <point x="481.47474747474746" y="101.55555555555556" type="line"/>
      <point x="445.47474747474746" y="95.05050505050505"/>
      <point x="376.47474747474746" y="87.04040404040404"/>
      <point x="319.22222222222223" y="87.04040404040404" type="curve" smooth="yes"/>
      <point x="249.84848484848484" y="87.04040404040404"/>
      <point x="220.2929292929293" y="124.34343434343435"/>
      <point x="220.2929292929293" y="193.73737373737373" type="curve" smooth="yes"/>
      <point x="220.2929292929293" y="385.75757575757575"/>
      <point x="301.3636363636364" y="598.010101010101"/>
      <point x="449.3030303030303" y="598.010101010101" type="curve" smooth="yes"/>
      <point x="507.5353535353535" y="598.010101010101"/>
      <point x="567.5656565656566" y="590.2525252525253"/>
      <point x="597.0909090909091" y="584.7474747474747" type="curve"/>
      <point x="623.030303030303" y="669.070707070707" type="line"/>
      <point x="585.2828282828283" y="680.8080808080808"/>
      <point x="513.040404040404" y="696.2929292929293"/>
      <point x="454.050505050505" y="696.2929292929293" type="curve" smooth="yes"/>
      <point x="200.6060606060606" y="696.2929292929293"/>
      <point x="104.55555555555556" y="397.7676767676768"/>
      <point x="104.55555555555556" y="186.26262626262627" type="curve" smooth="yes"/>
      <point x="104.55555555555556" y="59.0"/>
      <point x="169.2929292929293" y="-11.242424242424242"/>
    </contour>
  </outline>
</glyph>
<glyph name="D" format="2">
  <advance width="605.7575757575758"/>
  <unicode hex="0044"/>
  <outline>
    <contour>
      <point x="70.3030303030303" y="0.0" type="line"/>
      <point x="312.5353535353535" y="0.0" type="line" smooth="yes"/>
      <point x="550.979797979798" y="0.0"/>
      <point x="656.4646464646464" y="258.6161616161616"/>
      <point x="656.4646464646464" y="478.55555555555554" type="curve" smooth="yes"/>
      <point x="656.4646464646464" y="634.989898989899"/>
      <point x="565.6161616161617" y="685.0505050505051"/>
      <point x="446.1010101010101" y="685.0505050505051" type="curve" smooth="yes"/>
      <point x="228.56565656565655" y="685.0505050505051" type="line"/>
    </contour>
    <contour>
      <point x="205.74747474747477" y="98.03030303030303" type="line"/>
      <point x="317.85858585858585" y="587.0202020202021" type="line"/>
      <point x="423.4040404040404" y="587.0202020202021" type="line" smooth="yes"/>
      <point x="500.24242424242425" y="587.0202020202021"/>
      <point x="540.7272727272727" y="558.929292929293"/>
      <point x="540.7272727272727" y="478.55555555555554" type="curve" smooth="yes"/>
      <point x="540.7272727272727" y="338.64646464646466"/>
      <point x="476.6161616161616" y="98.03030303030303"/>
      <point x="323.77777777777777" y="98.03030303030303" type="curve" smooth="yes"/>
    </contour>
  </outline>
</glyph>
<glyph name="E" format="2">
  <advance width="500.2828282828283"/>
  <unicode hex="0045"/>
  <outline>
    <contour>
      <point x="70.3030303030303" y="0.0" type="line"/>
      <point x="464.4949494949495" y="0.0" type="line"/>
      <point x="486.6969696969697" y="98.03030303030303" type="line"/>
      <point x="205.49494949494948" y="98.03030303030303" type="line"/>
      <point x="251.08080808080808" y="295.9090909090909" type="line"/>
      <point x="476.2828282828283" y="295.9090909090909" type="line"/>
      <point x="499.2323232323232" y="393.93939393939394" type="line"/>
      <point x="273.2828282828283" y="393.93939393939394" type="line"/>
      <point x="317.85858585858585" y="587.0202020202021" type="line"/>
      <point x="598.3131313131313" y="587.0202020202021" type="line"/>
      <point x="621.2626262626262" y="685.0505050505051" type="line"/>
      <point x="227.8181818181818" y="685.0505050505051" type="line"/>
    </contour>
  </outline>
</glyph>
<glyph name="F" format="2">
  <advance width="479.020202020202"/>
  <unicode hex="0046"/>
  <outline>
    <contour>
      <point x="70.3030303030303" y="0.0" type="line"/>
      <point x="182.54545454545456" y="0.0" type="line"/>
      <point x="241.34343434343435" y="255.45454545454544" type="line"/>
      <point x="470.04040404040404" y="255.45454545454544" type="line"/>
      <point x="493.73737373737373" y="353.4848484848485" type="line"/>
      <point x="264.2929292929293" y="353.4848484848485" type="line"/>
      <point x="317.85858585858585" y="587.0202020202021" type="line"/>
      <point x="591.3030303030303" y="587.0202020202021" type="line"/>
      <point x="614.2525252525253" y="685.0505050505051" type="line"/>
      <point x="228.56565656565655" y="685.0505050505051" type="line"/>
    </contour>
  </outline>
</glyph>
<glyph name="G" format="2">
  <advance width="569.7676767676768"/>
  <unicode hex="0047"/>
  <outline>
    <contour>
      <point x="324.72727272727275" y="-11.242424242424242" type="curve" smooth="yes"/>
      <point x="410.16161616161617" y="-11.242424242424242"/>
      <point x="485.6868686868687" y="4.01010101010101"/>
      <point x="518.4747474747475" y="15.262626262626263" type="curve"/>
      <point x="601.2020202020202" y="369.9191919191919" type="line"/>
      <point x="408.5353535353535" y="369.9191919191919" type="line"/>
      <point x="386.3333333333333" y="276.37373737373736" type="line"/>
      <point x="467.5050505050505" y="276.37373737373736" type="line"/>
      <point x="425.6868686868687" y="96.08080808080808" type="line"/>
      <point x="407.1212121212121" y="92.31313131313132"/>
      <point x="370.010101010101" y="86.78787878787878"/>
      <point x="337.93939393939394" y="86.78787878787878" type="curve" smooth="yes"/>
      <point x="266.57575757575756" y="86.78787878787878"/>
      <point x="222.53535353535352" y="117.83838383838383"/>
      <point x="222.53535353535352" y="194.43434343434345" type="curve" smooth="yes"/>
      <point x="222.53535353535352" y="362.57575757575756"/>
      <point x="289.62626262626264" y="598.2626262626262"/>
      <point x="456.27272727272725" y="598.2626262626262" type="curve" smooth="yes"/>
      <point x="520.7777777777778" y="598.2626262626262"/>
      <point x="601.2828282828283" y="586.7575757575758"/>
      <point x="644.5353535353536" y="577.7575757575758" type="curve"/>
      <point x="670.979797979798" y="660.0808080808081" type="line"/>
      <point x="628.7272727272727" y="675.5656565656566"/>
      <point x="543.7373737373738" y="696.2929292929293"/>
      <point x="466.5151515151515" y="696.2929292929293" type="curve" smooth="yes"/>
      <point x="218.2828282828283" y="696.2929292929293"/>
      <point x="106.79797979797979" y="445.3939393939394"/>
      <point x="106.79797979797979" y="195.1818181818182" type="curve" smooth="yes"/>
      <point x="106.79797979797979" y="56.474747474747474"/>
      <point x="183.03030303030303" y="-11.242424242424242"/>
    </contour>
  </outline>
</glyph>
<glyph name="H" format="2">
  <advance width="621.5151515151515"/>
  <unicode hex="0048"/>
  <outline>
    <contour>
      <point x="70.3030303030303" y="0.0" type="line"/>
      <point x="182.54545454545456" y="0.0" type="line"/>
      <point x="251.32323232323233" y="299.6161616161616" type="line"/>
      <point x="507.7474747474747" y="299.6161616161616" type="line"/>
      <point x="438.969696969697" y="0.0" type="line"/>
      <point x="551.2121212121212" y="0.0" type="line"/>
      <point x="709.4747474747475" y="685.0505050505051" type="line"/>
      <point x="597.2323232323232" y="685.0505050505051" type="line"/>
      <point x="530.6969696969697" y="397.64646464646466" type="line"/>
      <point x="274.27272727272725" y="397.64646464646466" type="line"/>
      <point x="340.80808080808083" y="685.0505050505051" type="line"/>
      <point x="228.56565656565655" y="685.0505050505051" type="line"/>
    </contour>
  </outline>
</glyph>
<glyph name="I" format="2">
  <advance width="252.84848484848484"/>
  <unicode hex="0049"/>
  <outline>
    <contour>
      <point x="70.3030303030303" y="0.0" type="line"/>
      <point x="182.54545454545456" y="0.0" type="line"/>
      <point x="340.80808080808083" y="685.0505050505051" type="line"/>
      <point x="228.56565656565655" y="685.0505050505051" type="line"/>
    </contour>
  </outline>
</glyph>
<glyph name="J" format="2">
  <advance width="275.42424242424244"/>
  <unicode hex="004A"/>
  <outline>
    <contour>
      <point x="6.252525252525253" y="-69.5050505050505" type="line"/>
      <point x="171.9090909090909" y="-69.5050505050505"/>
      <point x="197.8242222222222" y="-44.714565656565654"/>
      <point x="237.60606060606062" y="127.92929292929293" type="curve" smooth="yes"/>
      <point x="366.3838383838384" y="685.0505050505051" type="line"/>
      <point x="254.14141414141415" y="685.0505050505051" type="line"/>
      <point x="125.86868686868686" y="130.2020202020202" type="line" smooth="yes"/>
      <point x="104.83838383838383" y="38.81818181818182"/>
      <point x="90.33333333333333" y="30.02020202020202"/>
      <point x="24.95959595959596" y="28.525252525252526" type="curve"/>
    </contour>
  </outline>
</glyph>
<glyph name="L" format="2">
  <advance width="426.7979797979798"/>
  <unicode hex="004C"/>
  <outline>
    <contour>
      <point x="70.3030303030303" y="0.0" type="line"/>
      <point x="422.2828282828283" y="0.0" type="line"/>
      <point x="444.4848484848485" y="98.03030303030303" type="line"/>
      <point x="205.49494949494948" y="98.03030303030303" type="line"/>
      <point x="340.80808080808083" y="685.0505050505051" type="line"/>
      <point x="228.56565656565655" y="685.0505050505051" type="line"/>
    </contour>
  </outline>
</glyph>
<glyph name="M" format="2">
  <advance width="785.2121212121212"/>
  <unicode hex="004D"/>
  <outline>
    <contour>
      <point x="70.3030303030303" y="0.0" type="line"/>
      <point x="182.54545454545456" y="0.0" type="line"/>
      <point x="317.1111111111111" y="587.0202020202021" type="line"/>
      <point x="324.3838383838384" y="587.0202020202021" type="line"/>
      <point x="344.32323232323233" y="27.727272727272727" type="line"/>
      <point x="453.1111111111111" y="27.727272727272727" type="line"/>
      <point x="731.2121212121212" y="587.0202020202021" type="line"/>
      <point x="738.9797979797979" y="587.0202020202021" type="line"/>
      <point x="602.6666666666666" y="0.0" type="line"/>
      <point x="714.9090909090909" y="0.0" type="line"/>
      <point x="873.1717171717172" y="685.0505050505051" type="line"/>
      <point x="691.7878787878788" y="685.0505050505051" type="line"/>
      <point x="425.8888888888889" y="151.91919191919192" type="line"/>
      <point x="406.95959595959596" y="685.0505050505051" type="line"/>
      <point x="228.56565656565655" y="685.0505050505051" type="line"/>
    </contour>
  </outline>
</glyph>
<glyph name="N" format="2">
  <advance width="642.4141414141415"/>
  <unicode hex="004E"/>
  <outline>
    <contour>
      <point x="70.3030303030303" y="0.0" type="line"/>
      <point x="176.56565656565658" y="0.0" type="line"/>
      <point x="310.3838383838384" y="574.3131313131313" type="line"/>
      <point x="325.6666666666667" y="574.3131313131313" type="line"/>
      <point x="396.6868686868687" y="0.0" type="line"/>
      <point x="572.1111111111111" y="0.0" type="line"/>
      <point x="730.3737373737374" y="685.0505050505051" type="line"/>
      <point x="621.8686868686868" y="685.0505050505051" type="line"/>
      <point x="492.5353535353535" y="118.21212121212122" type="line"/>
      <point x="477.5050505050505" y="118.21212121212122" type="line"/>
      <point x="412.7171717171717" y="685.0505050505051" type="line"/>
      <point x="228.56565656565655" y="685.0505050505051" type="line"/>
    </contour>
  </outline>
</glyph>
<glyph name="O" format="2">
  <advance width="620.3030303030303"/>
  <unicode hex="004F"/>
  <outline>
    <contour>
      <point x="319.54545454545456" y="-11.242424242424242" type="curve" smooth="yes"/>
      <point x="389.7878787878788" y="-11.242424242424242"/>
      <point x="456.75757575757575" y="9.767676767676768"/>
      <point x="505.5050505050505" y="48.27272727272727" type="curve" smooth="yes"/>
      <point x="619.0" y="138.78787878787878"/>
      <point x="670.2626262626262" y="317.55555555555554"/>
      <point x="670.2626262626262" y="488.7979797979798" type="curve" smooth="yes"/>
      <point x="670.2626262626262" y="634.5353535353536"/>
      <point x="588.3030303030303" y="696.2929292929293"/>
      <point x="451.7878787878788" y="696.2929292929293" type="curve" smooth="yes"/>
      <point x="378.050505050505" y="696.2929292929293"/>
      <point x="314.3131313131313" y="672.030303030303"/>
      <point x="263.5656565656566" y="627.2727272727273" type="curve" smooth="yes"/>
      <point x="158.07070707070707" y="534.010101010101"/>
      <point x="106.3030303030303" y="361.4949494949495"/>
      <point x="106.3030303030303" y="196.25252525252526" type="curve" smooth="yes"/>
      <point x="106.3030303030303" y="50.484848484848484"/>
      <point x="182.24242424242425" y="-11.242424242424242"/>
    </contour>
    <contour>
      <point x="337.4848484848485" y="86.78787878787878" type="curve" smooth="yes"/>
      <point x="251.84848484848484" y="86.78787878787878"/>
      <point x="221.78787878787878" y="120.33333333333334"/>
      <point x="221.78787878787878" y="206.46464646464648" type="curve" smooth="yes"/>
      <point x="221.78787878787878" y="318.5858585858586"/>
      <point x="264.34343434343435" y="490.6868686868687"/>
      <point x="347.2121212121212" y="564.9797979797979" type="curve" smooth="yes"/>
      <point x="373.0" y="588.2424242424242"/>
      <point x="405.2828282828283" y="598.2626262626262"/>
      <point x="439.82828282828285" y="598.2626262626262" type="curve" smooth="yes"/>
      <point x="522.9494949494949" y="598.2626262626262"/>
      <point x="554.5252525252525" y="562.9494949494949"/>
      <point x="554.5252525252525" y="478.5858585858586" type="curve" smooth="yes"/>
      <point x="554.5252525252525" y="354.73737373737373"/>
      <point x="513.2424242424242" y="194.86868686868686"/>
      <point x="434.6161616161616" y="123.56565656565657" type="curve" smooth="yes"/>
      <point x="407.82828282828285" y="99.30303030303031"/>
      <point x="374.04040404040404" y="86.78787878787878"/>
    </contour>
  </outline>
</glyph>
<glyph name="P" format="2">
  <advance width="547.0"/>
  <unicode hex="0050"/>
  <outline>
    <contour>
      <point x="70.3030303030303" y="0.0" type="line"/>
      <point x="182.54545454545456" y="0.0" type="line"/>
      <point x="231.08080808080808" y="211.15151515151516" type="line"/>
      <point x="344.1111111111111" y="211.15151515151516" type="line" smooth="yes"/>
      <point x="520.5858585858585" y="211.15151515151516"/>
      <point x="627.4949494949495" y="319.26262626262627"/>
      <point x="627.4949494949495" y="504.9191919191919" type="curve" smooth="yes"/>
      <point x="627.4949494949495" y="628.8181818181819"/>
      <point x="570.2929292929293" y="685.0505050505051"/>
      <point x="433.9090909090909" y="685.0505050505051" type="curve" smooth="yes"/>
      <point x="228.56565656565655" y="685.0505050505051" type="line"/>
    </contour>
    <contour>
      <point x="254.03030303030303" y="309.4343434343434" type="line"/>
      <point x="317.85858585858585" y="586.7676767676768" type="line"/>
      <point x="424.4141414141414" y="586.7676767676768" type="line" smooth="yes"/>
      <point x="487.979797979798" y="586.7676767676768"/>
      <point x="511.75757575757575" y="559.2323232323232"/>
      <point x="511.75757575757575" y="503.42424242424244" type="curve" smooth="yes"/>
      <point x="511.75757575757575" y="387.85858585858585"/>
      <point x="458.2323232323232" y="309.4343434343434"/>
      <point x="359.5858585858586" y="309.4343434343434" type="curve" smooth="yes"/>
    </contour>
  </outline>
</glyph>
<glyph name="Q" format="2">
  <advance width="620.3030303030303"/>
  <unicode hex="0051"/>
  <outline>
    <contour>
      <point x="407.9494949494949" y="-150.21212121212122" type="line"/>
      <point x="514.4545454545455" y="-115.29292929292929" type="line"/>
      <point x="459.22222222222223" y="44.1919191919192" type="line"/>
      <point x="359.44444444444446" y="9.272727272727273" type="line"/>
    </contour>
    <component base="O"/>
  </outline>
</glyph>
<glyph name="R" format="2">
  <advance width="561.2727272727273"/>
  <unicode hex="0052"/>
  <outline>
    <contour>
      <point x="70.3030303030303" y="0.0" type="line"/>
      <point x="182.54545454545456" y="0.0" type="line"/>
      <point x="236.83838383838383" y="234.1818181818182" type="line"/>
      <point x="361.1313131313131" y="234.1818181818182" type="line"/>
      <point x="416.98989898989896" y="0.0" type="line"/>
      <point x="529.2323232323232" y="0.0" type="line"/>
      <point x="465.64646464646466" y="249.39393939393938" type="line"/>
      <point x="547.1313131313132" y="277.5959595959596"/>
      <point x="628.2525252525253" y="360.7979797979798"/>
      <point x="628.2525252525253" y="502.4141414141414" type="curve" smooth="yes"/>
      <point x="628.2525252525253" y="634.0909090909091"/>
      <point x="562.5353535353536" y="685.0505050505051"/>
      <point x="431.1313131313131" y="685.0505050505051" type="curve" smooth="yes"/>
      <point x="228.56565656565655" y="685.0505050505051" type="line"/>
    </contour>
    <contour>
      <point x="258.7878787878788" y="330.7171717171717" type="line"/>
      <point x="318.6060606060606" y="588.5151515151515" type="line"/>
      <point x="423.1313131313131" y="588.5151515151515" type="line" smooth="yes"/>
      <point x="487.95959595959596" y="588.5151515151515"/>
      <point x="512.5151515151515" y="562.7575757575758"/>
      <point x="512.5151515151515" y="497.92929292929296" type="curve" smooth="yes"/>
      <point x="512.5151515151515" y="406.7676767676768"/>
      <point x="460.16161616161617" y="330.7171717171717"/>
      <point x="372.5353535353535" y="330.7171717171717" type="curve" smooth="yes"/>
    </contour>
  </outline>
</glyph>
<glyph name="S" format="2">
  <advance width="496.7676767676768"/>
  <unicode hex="0053"/>
  <outline>
    <contour>
      <point x="257.4949494949495" y="-11.242424242424242" type="curve" smooth="yes"/>
      <point x="409.979797979798" y="-11.242424242424242"/>
      <point x="510.7070707070707" y="73.04040404040404"/>
      <point x="510.7070707070707" y="225.5252525252525" type="curve" smooth="yes"/>
      <point x="510.7070707070707" y="315.030303030303"/>
      <point x="480.14141414141415" y="349.25252525252523"/>
      <point x="372.6868686868687" y="393.6969696969697" type="curve" smooth="yes"/>
      <point x="286.64646464646466" y="428.67676767676767"/>
      <point x="266.55555555555554" y="441.6868686868687"/>
      <point x="266.55555555555554" y="486.7676767676768" type="curve" smooth="yes"/>
      <point x="266.55555555555554" y="557.9494949494949"/>
      <point x="313.17171717171715" y="599.7575757575758"/>
      <point x="389.5858585858586" y="599.7575757575758" type="curve" smooth="yes"/>
      <point x="440.5858585858586" y="599.7575757575758"/>
      <point x="521.3232323232323" y="589.7575757575758"/>
      <point x="567.5656565656566" y="581.7575757575758" type="curve"/>
      <point x="587.7676767676768" y="662.5858585858585" type="line"/>
      <point x="545.7777777777778" y="676.8181818181819"/>
      <point x="462.80808080808083" y="696.2929292929293"/>
      <point x="388.3636363636364" y="696.2929292929293" type="curve" smooth="yes"/>
      <point x="244.1010101010101" y="696.2929292929293"/>
      <point x="152.56565656565655" y="605.8585858585859"/>
      <point x="152.56565656565655" y="474.80808080808083" type="curve" smooth="yes"/>
      <point x="152.56565656565655" y="384.050505050505"/>
      <point x="196.87878787878788" y="347.09090909090907"/>
      <point x="290.4141414141414" y="309.1212121212121" type="curve" smooth="yes"/>
      <point x="378.9191919191919" y="272.9090909090909"/>
      <point x="396.4646464646465" y="259.3939393939394"/>
      <point x="396.4646464646465" y="213.31313131313132" type="curve" smooth="yes"/>
      <point x="396.4646464646465" y="125.68686868686869"/>
      <point x="345.14141414141415" y="86.78787878787878"/>
      <point x="257.5151515151515" y="86.78787878787878" type="curve" smooth="yes"/>
      <point x="205.25252525252526" y="86.78787878787878"/>
      <point x="120.98989898989899" y="97.53535353535354"/>
      <point x="71.48484848484848" y="106.03030303030303" type="curve"/>
      <point x="52.525252525252526" y="23.696969696969695" type="line"/>
      <point x="97.03030303030303" y="8.474747474747474"/>
      <point x="183.77777777777777" y="-11.242424242424242"/>
    </contour>
  </outline>
</glyph>
<glyph name="T" format="2">
  <advance width="461.3030303030303"/>
  <unicode hex="0054"/>
  <outline>
    <contour>
      <point x="173.40404040404042" y="0.0" type="line"/>
      <point x="285.64646464646466" y="0.0" type="line"/>
      <point x="420.95959595959596" y="587.0202020202021" type="line"/>
      <point x="586.6060606060606" y="587.0202020202021" type="line"/>
      <point x="609.5555555555555" y="685.0505050505051" type="line"/>
      <point x="167.5151515151515" y="685.0505050505051" type="line"/>
      <point x="144.56565656565655" y="587.0202020202021" type="line"/>
      <point x="308.7171717171717" y="587.0202020202021" type="line"/>
    </contour>
  </outline>
</glyph>
<glyph name="U" format="2">
  <advance width="594.4949494949495"/>
  <unicode hex="0055"/>
  <outline>
    <contour>
      <point x="310.25252525252523" y="-11.242424242424242" type="curve" smooth="yes"/>
      <point x="467.22222222222223" y="-11.242424242424242"/>
      <point x="543.939393939394" y="61.75757575757576"/>
      <point x="580.9191919191919" y="222.41414141414143" type="curve" smooth="yes"/>
      <point x="687.9494949494949" y="685.0505050505051" type="line"/>
      <point x="575.7070707070707" y="685.0505050505051" type="line"/>
      <point x="468.67676767676767" y="222.66666666666666" type="line" smooth="yes"/>
      <point x="447.9090909090909" y="131.34343434343435"/>
      <point x="416.07070707070704" y="87.04040404040404"/>
      <point x="319.72727272727275" y="87.04040404040404" type="curve" smooth="yes"/>
      <point x="257.85858585858585" y="87.04040404040404"/>
      <point x="218.53535353535352" y="102.5959595959596"/>
      <point x="218.53535353535352" y="156.16161616161617" type="curve" smooth="yes"/>
      <point x="218.53535353535352" y="179.40404040404042"/>
      <point x="222.63177777777776" y="202.90686868686868"/>
      <point x="227.78787878787878" y="224.93939393939394" type="curve" smooth="yes"/>
      <point x="334.3131313131313" y="685.0505050505051" type="line"/>
      <point x="222.07070707070707" y="685.0505050505051" type="line"/>
      <point x="119.28282828282828" y="241.3838383838384" type="line" smooth="yes"/>
      <point x="112.53535353535354" y="211.40404040404042"/>
      <point x="107.04040404040404" y="170.67676767676767"/>
      <point x="107.04040404040404" y="138.7171717171717" type="curve" smooth="yes"/>
      <point x="107.04040404040404" y="35.494949494949495"/>
      <point x="188.27272727272728" y="-11.242424242424242"/>
    </contour>
  </outline>
</glyph>
<glyph name="V" format="2">
  <advance width="550.7070707070707"/>
  <unicode hex="0056"/>
  <outline>
    <contour>
      <point x="170.14141414141415" y="0.0" type="line"/>
      <point x="373.07070707070704" y="0.0" type="line"/>
      <point x="690.1616161616162" y="685.0505050505051" type="line"/>
      <point x="577.9191919191919" y="685.0505050505051" type="line"/>
      <point x="312.45454545454544" y="98.03030303030303" type="line"/>
      <point x="274.1515151515151" y="98.03030303030303" type="line"/>
      <point x="287.04040404040404" y="685.0505050505051" type="line"/>
      <point x="174.7979797979798" y="685.0505050505051" type="line"/>
    </contour>
  </outline>
</glyph>
<glyph name="W" format="2">
  <advance width="849.8484848484849"/>
  <unicode hex="0057"/>
  <outline>
    <contour>
      <point x="150.07070707070707" y="0.0" type="line"/>
      <point x="327.030303030303" y="0.0" type="line"/>
      <point x="546.2424242424242" y="526.070707070707" type="line"/>
      <point x="519.0505050505051" y="0.0" type="line"/>
      <point x="691.0202020202021" y="0.0" type="line"/>
      <point x="984.7979797979798" y="685.0505050505051" type="line"/>
      <point x="872.5555555555555" y="685.0505050505051" type="line"/>
      <point x="632.3939393939394" y="103.26262626262627" type="line"/>
      <point x="613.5959595959596" y="103.26262626262627" type="line"/>
      <point x="640.5353535353536" y="675.0505050505051" type="line"/>
      <point x="517.3232323232323" y="675.0505050505051" type="line"/>
      <point x="273.14141414141415" y="103.26262626262627" type="line"/>
      <point x="253.83838383838383" y="103.26262626262627" type="line"/>
      <point x="291.54545454545456" y="685.0505050505051" type="line"/>
      <point x="179.3030303030303" y="685.0505050505051" type="line"/>
    </contour>
  </outline>
</glyph>
<glyph name="X" format="2">
  <advance width="517.2222222222222"/>
  <unicode hex="0058"/>
  <outline>
    <contour>
      <point x="5.797979797979798" y="0.0" type="line"/>
      <point x="125.2929292929293" y="0.0" type="line"/>
      <point x="318.7878787878788" y="261.4343434343434" type="line"/>
      <point x="389.19191919191917" y="0.0" type="line"/>
      <point x="506.6666666666667" y="0.0" type="line"/>
      <point x="404.83838383838383" y="342.5050505050505" type="line"/>
      <point x="665.9494949494949" y="685.0505050505051" type="line"/>
      <point x="546.4545454545455" y="685.0505050505051" type="line"/>
      <point x="357.2020202020202" y="425.34343434343435" type="line"/>
      <point x="291.2828282828283" y="685.0505050505051" type="line"/>
      <point x="173.06060606060606" y="685.0505050505051" type="line"/>
      <point x="271.64646464646466" y="344.7676767676768" type="line"/>
    </contour>
  </outline>
</glyph>
<glyph name="Y" format="2">
  <advance width="499.2020202020202"/>
  <unicode hex="0059"/>
  <outline>
    <contour>
      <point x="193.83838383838383" y="0.0" type="line"/>
      <point x="298.6060606060606" y="0.0" type="line"/>
      <point x="367.1111111111111" y="291.2828282828283" type="line"/>
      <point x="652.4141414141415" y="685.0505050505051" type="line"/>
      <point x="533.1818181818181" y="685.0505050505051" type="line"/>
      <point x="338.67676767676767" y="395.80808080808083" type="line"/>
      <point x="276.7878787878788" y="685.0505050505051" type="line"/>
      <point x="163.05050505050505" y="685.0505050505051" type="line"/>
      <point x="262.5959595959596" y="297.5353535353535" type="line"/>
    </contour>
  </outline>
</glyph>
<glyph name="Z" format="2">
  <advance width="492.020202020202"/>
  <unicode hex="005A"/>
  <outline>
    <contour>
      <point x="36.75757575757576" y="0.0" type="line"/>
      <point x="454.0" y="0.0" type="line"/>
      <point x="476.949494949495" y="98.03030303030303" type="line"/>
      <point x="185.40404040404042" y="98.03030303030303" type="line"/>
      <point x="191.40404040404042" y="122.28282828282829" type="line"/>
      <point x="584.5555555555555" y="561.4545454545455" type="line"/>
      <point x="613.020202020202" y="685.0505050505051" type="line"/>
      <point x="195.77777777777777" y="685.0505050505051" type="line"/>
      <point x="172.82828282828282" y="587.0202020202021" type="line"/>
      <point x="461.3838383838384" y="587.0202020202021" type="line"/>
      <point x="455.8787878787879" y="561.7575757575758" type="line"/>
      <point x="64.22222222222223" y="121.0909090909091" type="line"/>
    </contour>
  </outline>
</glyph>
<glyph name="bracketleft" format="2">
  <advance width="258.62626262626264"/>
  <unicode hex="005B"/>
  <outline>
    <contour>
      <point x="1.6666666666666643" y="-122.0" type="line"/>
      <point x="214.03030303030303" y="-122.0" type="line"/>
      <point x="237.23232323232324" y="-28.454545454545453" type="line"/>
      <point x="136.35353535353536" y="-28.454545454545453" type="line"/>
      <point x="295.45454545454544" y="653.4545454545455" type="line"/>
      <point x="396.3333333333333" y="653.4545454545455" type="line"/>
      <point x="419.030303030303" y="747.0" type="line"/>
      <point x="204.17171717171718" y="747.0" type="line"/>
    </contour>
  </outline>
</glyph>
<glyph name="backslash" format="2">
  <advance width="459.5050505050505"/>
  <unicode hex="005C"/>
  <outline>
    <contour>
      <point x="319.25252525252523" y="0.0" type="line"/>
      <point x="432.74747474747477" y="3.5353535353535346" type="line"/>
      <point x="301.2525252525253" y="701.7474747474747" type="line"/>
      <point x="187.010101010101" y="698.2121212121212" type="line"/>
    </contour>
  </outline>
</glyph>
<glyph name="bracketright" format="2">
  <advance width="257.8787878787879"/>
  <unicode hex="005D"/>
  <outline>
    <contour>
      <point x="401.2121212121212" y="747.2525252525253" type="line"/>
      <point x="188.84848484848484" y="747.2525252525253" type="line"/>
      <point x="165.64646464646464" y="653.7070707070707" type="line"/>
      <point x="266.52525252525254" y="653.7070707070707" type="line"/>
      <point x="107.42424242424242" y="-28.2020202020202" type="line"/>
      <point x="6.545454545454545" y="-28.2020202020202" type="line"/>
      <point x="-16.151515151515152" y="-121.74747474747475" type="line"/>
      <point x="198.7070707070707" y="-121.74747474747475" type="line"/>
    </contour>
  </outline>
</glyph>
<glyph name="asciicircum" format="2">
  <advance width="560.0"/>
  <unicode hex="005E"/>
  <outline>
    <contour>
      <point x="80.75757575757575" y="315.52525252525254" type="line"/>
      <point x="195.5050505050505" y="315.52525252525254" type="line"/>
      <point x="319.86868686868684" y="553.7373737373737" type="line"/>
      <point x="443.5151515151515" y="315.52525252525254" type="line"/>
      <point x="558.2626262626262" y="315.52525252525254" type="line"/>
      <point x="365.52525252525254" y="660.0" type="line"/>
      <point x="271.22222222222223" y="660.0" type="line"/>
    </contour>
  </outline>
</glyph>
<glyph name="underscore" format="2">
  <advance width="519.6666666666666"/>
  <unicode hex="005F"/>
  <outline>
    <contour>
      <point x="-5.98989898989899" y="-182.77777777777777" type="line"/>
      <point x="441.75757575757575" y="-182.77777777777777" type="line"/>
      <point x="465.2121212121212" y="-79.74747474747475" type="line"/>
      <point x="16.95959595959596" y="-79.74747474747475" type="line"/>
    </contour>
  </outline>
</glyph>
<glyph name="grave" format="2">
  <advance width="518.0"/>
  <unicode hex="0060"/>
  <outline>
    <contour>
      <point x="470.72727272727275" y="588.3030303030303" type="line"/>
      <point x="517.1313131313132" y="667.8585858585859" type="line"/>
      <point x="311.5353535353535" y="759.1212121212121" type="line"/>
      <point x="259.1515151515151" y="670.5858585858585" type="line"/>
    </contour>
  </outline>
</glyph>
<glyph name="a" format="2">
  <advance width="516.3838383838383"/>
  <unicode hex="0061"/>
  <outline>
    <contour>
      <point x="219.4848484848485" y="-11.242424242424242" type="curve" smooth="yes"/>
      <point x="278.5151515151515" y="-11.242424242424242"/>
      <point x="341.32323232323233" y="45.57575757575758"/>
      <point x="372.6060606060606" y="88.62626262626262" type="curve"/>
      <point x="369.35353535353534" y="75.36363636363636"/>
      <point x="362.09090909090907" y="29.050505050505052"/>
      <point x="357.3333333333333" y="-1.7474747474747474" type="curve"/>
      <point x="465.0808080808081" y="2.494949494949495" type="line"/>
      <point x="471.0808080808081" y="42.25252525252525"/>
      <point x="482.3333333333333" y="112.26262626262626"/>
      <point x="492.5858585858586" y="157.76767676767676" type="curve" smooth="yes"/>
      <point x="567.8383838383838" y="481.52525252525254" type="line"/>
      <point x="498.1515151515151" y="494.26262626262627"/>
      <point x="387.0" y="511.24242424242425"/>
      <point x="336.77777777777777" y="511.24242424242425" type="curve" smooth="yes"/>
      <point x="160.33333333333334" y="511.24242424242425"/>
      <point x="83.78787878787878" y="301.2020202020202"/>
      <point x="83.78787878787878" y="156.86868686868686" type="curve" smooth="yes"/>
      <point x="83.78787878787878" y="58.17171717171718"/>
      <point x="122.78787878787878" y="-11.242424242424242"/>
    </contour>
    <contour>
      <point x="255.63636363636363" y="82.30303030303031" type="curve" smooth="yes"/>
      <point x="208.32323232323233" y="82.30303030303031"/>
      <point x="194.78787878787878" y="109.57575757575758"/>
      <point x="194.78787878787878" y="156.86868686868686" type="curve" smooth="yes"/>
      <point x="194.78787878787878" y="262.010101010101"/>
      <point x="243.86868686868686" y="417.9494949494949"/>
      <point x="339.7676767676768" y="417.9494949494949" type="curve" smooth="yes"/>
      <point x="365.3333333333333" y="417.9494949494949"/>
      <point x="413.6161616161616" y="409.6969696969697"/>
      <point x="442.37373737373736" y="403.6969696969697" type="curve"/>
      <point x="391.57575757575756" y="188.72727272727272" type="line"/>
      <point x="354.5353535353535" y="143.15151515151516"/>
      <point x="292.45454545454544" y="82.30303030303031"/>
    </contour>
  </outline>
</glyph>
<glyph name="b" format="2">
  <advance width="515.3838383838383"/>
  <unicode hex="0062"/>
  <outline>
    <contour>
      <point x="288.8686868686869" y="-10.494949494949495" type="curve" smooth="yes"/>
      <point x="459.4343434343434" y="-10.494949494949495"/>
      <point x="546.5959595959596" y="175.55555555555554"/>
      <point x="546.5959595959596" y="352.5353535353535" type="curve" smooth="yes"/>
      <point x="546.5959595959596" y="435.3030303030303"/>
      <point x="516.6262626262626" y="511.24242424242425"/>
      <point x="403.4141414141414" y="511.24242424242425" type="curve" smooth="yes"/>
      <point x="354.1111111111111" y="511.24242424242425"/>
      <point x="298.55555555555554" y="476.1818181818182"/>
      <point x="270.52525252525254" y="449.6363636363636" type="curve"/>
      <point x="330.07070707070704" y="707.5757575757576" type="line"/>
      <point x="221.07070707070707" y="707.5757575757576" type="line"/>
      <point x="62.54545454545455" y="19.22222222222222" type="line"/>
      <point x="117.76767676767676" y="6.484848484848485"/>
      <point x="217.94949494949495" y="-10.494949494949495"/>
    </contour>
    <contour>
      <point x="287.1212121212121" y="82.79797979797979" type="curve" smooth="yes"/>
      <point x="255.36363636363637" y="82.79797979797979"/>
      <point x="212.3030303030303" y="89.55555555555556"/>
      <point x="188.75757575757575" y="94.06060606060606" type="curve"/>
      <point x="248.31313131313132" y="352.7979797979798" type="line"/>
      <point x="278.6060606060606" y="381.1111111111111"/>
      <point x="333.1818181818182" y="417.6969696969697"/>
      <point x="370.989898989899" y="417.6969696969697" type="curve" smooth="yes"/>
      <point x="426.09090909090907" y="417.6969696969697"/>
      <point x="434.8484848484849" y="380.6666666666667"/>
      <point x="434.8484848484849" y="342.07070707070704" type="curve" smooth="yes"/>
      <point x="434.8484848484849" y="266.82828282828285"/>
      <point x="397.3030303030303" y="82.79797979797979"/>
    </contour>
  </outline>
</glyph>
<glyph name="c" format="2">
  <advance width="407.4848484848485"/>
  <unicode hex="0063"/>
  <outline>
    <contour>
      <point x="246.010101010101" y="-11.242424242424242" type="curve" smooth="yes"/>
      <point x="295.979797979798" y="-11.242424242424242"/>
      <point x="354.95959595959596" y="2.0"/>
      <point x="385.45454545454544" y="12.242424242424242" type="curve"/>
      <point x="393.67676767676767" y="94.32323232323233" type="line"/>
      <point x="364.16161616161617" y="90.06060606060606"/>
      <point x="314.64646464646466" y="83.54545454545455"/>
      <point x="284.65656565656565" y="83.54545454545455" type="curve" smooth="yes"/>
      <point x="221.32323232323233" y="83.54545454545455"/>
      <point x="197.2929292929293" y="116.56565656565657"/>
      <point x="197.2929292929293" y="176.1010101010101" type="curve" smooth="yes"/>
      <point x="197.2929292929293" y="289.7979797979798"/>
      <point x="242.62626262626264" y="416.45454545454544"/>
      <point x="343.5656565656566" y="416.45454545454544" type="curve" smooth="yes"/>
      <point x="375.3131313131313" y="416.45454545454544"/>
      <point x="428.2828282828283" y="409.7070707070707"/>
      <point x="459.26262626262627" y="404.2121212121212" type="curve"/>
      <point x="486.949494949495" y="485.2929292929293" type="line"/>
      <point x="454.969696969697" y="496.27272727272725"/>
      <point x="395.26262626262627" y="511.24242424242425"/>
      <point x="348.050505050505" y="511.24242424242425" type="curve" smooth="yes"/>
      <point x="171.53535353535352" y="511.24242424242425"/>
      <point x="86.29292929292929" y="346.65656565656565"/>
      <point x="86.29292929292929" y="153.66666666666666" type="curve" smooth="yes"/>
      <point x="86.29292929292929" y="47.72727272727273"/>
      <point x="147.4848484848485" y="-11.242424242424242"/>
    </contour>
  </outline>
</glyph>
<glyph name="d" format="2">
  <advance width="516.1313131313132"/>
  <unicode hex="0064"/>
  <outline>
    <contour>
      <point x="220.21212121212122" y="-11.242424242424242" type="curve" smooth="yes"/>
      <point x="278.26262626262627" y="-11.242424242424242"/>
      <point x="336.0808080808081" y="33.34343434343434"/>
      <point x="363.86868686868684" y="67.65656565656565" type="curve"/>
      <point x="350.57575757575756" y="0.0" type="line"/>
      <point x="456.3333333333333" y="0.0" type="line"/>
      <point x="620.1010101010102" y="707.5757575757576" type="line"/>
      <point x="511.1010101010101" y="707.5757575757576" type="line"/>
      <point x="460.5858585858586" y="490.75757575757575" type="line"/>
      <point x="427.34343434343435" y="499.25252525252523"/>
      <point x="370.82828282828285" y="510.4949494949495"/>
      <point x="334.77777777777777" y="510.4949494949495" type="curve" smooth="yes"/>
      <point x="171.3030303030303" y="510.4949494949495"/>
      <point x="83.78787878787878" y="317.65656565656565"/>
      <point x="83.78787878787878" y="152.87878787878788" type="curve" smooth="yes"/>
      <point x="83.78787878787878" y="47.1919191919192"/>
      <point x="129.76767676767676" y="-11.242424242424242"/>
    </contour>
    <contour>
      <point x="254.87878787878788" y="82.05050505050505" type="curve" smooth="yes"/>
      <point x="213.07070707070707" y="82.05050505050505"/>
      <point x="194.78787878787878" y="111.06060606060606"/>
      <point x="194.78787878787878" y="153.62626262626264" type="curve" smooth="yes"/>
      <point x="194.78787878787878" y="258.7676767676768"/>
      <point x="244.12121212121212" y="417.2020202020202"/>
      <point x="334.77777777777777" y="417.2020202020202" type="curve" smooth="yes"/>
      <point x="367.82828282828285" y="417.2020202020202"/>
      <point x="414.6161616161616" y="408.9494949494949"/>
      <point x="440.8787878787879" y="402.9494949494949" type="curve"/>
      <point x="388.0808080808081" y="173.4949494949495" type="line"/>
      <point x="351.7979797979798" y="134.16161616161617"/>
      <point x="291.22222222222223" y="82.05050505050505"/>
    </contour>
  </outline>
</glyph>
<glyph name="e" format="2">
  <advance width="469.93939393939394"/>
  <unicode hex="0065"/>
  <outline>
    <contour>
      <point x="246.7171717171717" y="-11.242424242424242" type="curve" smooth="yes"/>
      <point x="314.949494949495" y="-11.242424242424242"/>
      <point x="392.1818181818182" y="5.01010101010101"/>
      <point x="431.42424242424244" y="17.262626262626263" type="curve"/>
      <point x="442.6363636363636" y="99.5959595959596" type="line"/>
      <point x="401.8989898989899" y="92.08080808080808"/>
      <point x="328.65656565656565" y="82.55555555555556"/>
      <point x="277.14141414141415" y="82.55555555555556" type="curve" smooth="yes"/>
      <point x="230.07070707070707" y="82.55555555555556"/>
      <point x="194.54545454545456" y="106.85858585858585"/>
      <point x="194.54545454545456" y="155.1919191919192" type="curve" smooth="yes"/>
      <point x="194.54545454545456" y="171.73737373737373"/>
      <point x="196.8080808080808" y="193.8181818181818"/>
      <point x="200.57575757575756" y="208.88888888888889" type="curve"/>
      <point x="242.64646464646464" y="208.88888888888889" type="line" smooth="yes"/>
      <point x="431.8787878787879" y="208.88888888888889"/>
      <point x="520.9090909090909" y="245.39393939393938"/>
      <point x="520.9090909090909" y="373.1111111111111" type="curve" smooth="yes"/>
      <point x="520.9090909090909" y="471.27272727272725"/>
      <point x="456.949494949495" y="510.4949494949495"/>
      <point x="357.27272727272725" y="510.4949494949495" type="curve" smooth="yes"/>
      <point x="165.3030303030303" y="510.4949494949495"/>
      <point x="85.04040404040404" y="328.64646464646466"/>
      <point x="85.04040404040404" y="151.1818181818182" type="curve" smooth="yes"/>
      <point x="85.04040404040404" y="40.494949494949495"/>
      <point x="139.7979797979798" y="-11.242424242424242"/>
    </contour>
    <contour>
      <point x="213.55555555555554" y="290.969696969697" type="line"/>
      <point x="235.1010101010101" y="373.07070707070704"/>
      <point x="279.4040404040404" y="421.6868686868687"/>
      <point x="351.7878787878788" y="421.6868686868687" type="curve" smooth="yes"/>
      <point x="391.1111111111111" y="421.6868686868687"/>
      <point x="413.1515151515151" y="408.4141414141414"/>
      <point x="413.1515151515151" y="371.3636363636364" type="curve" smooth="yes"/>
      <point x="413.1515151515151" y="311.4848484848485"/>
      <point x="370.020202020202" y="290.969696969697"/>
      <point x="260.6161616161616" y="290.969696969697" type="curve" smooth="yes"/>
    </contour>
  </outline>
</glyph>
<glyph name="f" format="2">
  <advance width="320.17171717171715"/>
  <unicode hex="0066"/>
  <outline>
    <contour>
      <point x="28.77777777777778" y="-215.7979797979798" type="line"/>
      <point x="126.54545454545455" y="-215.7979797979798" type="line"/>
      <point x="188.53535353535352" y="0.0" type="line"/>
      <point x="283.3333333333333" y="406.7070707070707" type="line"/>
      <point x="397.7070707070707" y="406.7070707070707" type="line"/>
      <point x="420.90909090909093" y="500.0" type="line"/>
      <point x="303.5353535353535" y="500.0" type="line"/>
      <point x="310.80808080808083" y="528.5959595959596" type="line" smooth="yes"/>
      <point x="325.1010101010101" y="586.5151515151515"/>
      <point x="339.64646464646466" y="625.5252525252525"/>
      <point x="381.47474747474746" y="625.5252525252525" type="curve" smooth="yes"/>
      <point x="404.2323232323232" y="625.5252525252525"/>
      <point x="433.4949494949495" y="621.5252525252525"/>
      <point x="449.25252525252523" y="618.5252525252525" type="curve"/>
      <point x="469.2121212121212" y="699.6060606060606" type="line"/>
      <point x="448.7171717171717" y="707.8383838383838"/>
      <point x="410.2323232323232" y="718.8181818181819"/>
      <point x="378.75757575757575" y="718.8181818181819" type="curve" smooth="yes"/>
      <point x="274.32323232323233" y="718.8181818181819"/>
      <point x="234.99955555555556" y="663.878505050505"/>
      <point x="201.8080808080808" y="529.8484848484849" type="curve" smooth="yes"/>
      <point x="194.53535353535352" y="500.0" type="line"/>
      <point x="146.4848484848485" y="500.0" type="line"/>
      <point x="123.53535353535354" y="405.2121212121212" type="line"/>
      <point x="174.08080808080808" y="405.2121212121212" type="line"/>
    </contour>
  </outline>
</glyph>
<glyph name="g" format="2">
  <advance width="477.4343434343434"/>
  <unicode hex="0067"/>
  <outline>
    <contour>
      <point x="213.62626262626264" y="-232.27272727272728" type="curve" smooth="yes"/>
      <point x="366.8989898989899" y="-232.27272727272728"/>
      <point x="458.4141414141414" y="-149.0"/>
      <point x="458.4141414141414" y="-39.57575757575758" type="curve" smooth="yes"/>
      <point x="458.4141414141414" y="45.121212121212125"/>
      <point x="394.020202020202" y="72.3838383838384"/>
      <point x="312.62626262626264" y="83.39393939393939" type="curve" smooth="yes"/>
      <point x="244.37373737373738" y="92.88888888888889"/>
      <point x="219.3838383838384" y="98.39393939393939"/>
      <point x="219.3838383838384" y="117.91919191919192" type="curve" smooth="yes"/>
      <point x="219.3838383838384" y="132.94949494949495"/>
      <point x="231.91919191919192" y="154.010101010101"/>
      <point x="240.94949494949495" y="166.54545454545453" type="curve"/>
      <point x="248.94949494949495" y="164.7979797979798"/>
      <point x="264.93939393939394" y="162.3030303030303"/>
      <point x="279.65656565656565" y="162.3030303030303" type="curve" smooth="yes"/>
      <point x="409.4848484848485" y="162.3030303030303"/>
      <point x="489.4141414141414" y="255.9090909090909"/>
      <point x="489.4141414141414" y="352.1111111111111" type="curve" smooth="yes"/>
      <point x="489.4141414141414" y="377.65656565656565"/>
      <point x="485.14141414141415" y="397.6666666666667"/>
      <point x="480.1111111111111" y="410.4343434343434" type="curve"/>
      <point x="551.2424242424242" y="410.4343434343434" type="line"/>
      <point x="571.9494949494949" y="500.0" type="line"/>
      <point x="425.19191919191917" y="494.0" type="line"/>
      <point x="399.24242424242425" y="501.4949494949495"/>
      <point x="351.55555555555554" y="511.24242424242425"/>
      <point x="314.7979797979798" y="511.24242424242425" type="curve" smooth="yes"/>
      <point x="187.2828282828283" y="511.24242424242425"/>
      <point x="110.07070707070707" y="418.4040404040404"/>
      <point x="110.07070707070707" y="312.969696969697" type="curve" smooth="yes"/>
      <point x="110.07070707070707" y="248.4949494949495"/>
      <point x="136.06060606060606" y="212.97979797979798"/>
      <point x="178.57575757575756" y="190.24242424242425" type="curve"/>
      <point x="153.58585858585857" y="167.989898989899"/>
      <point x="120.84848484848484" y="126.48484848484848"/>
      <point x="120.84848484848484" y="93.73737373737374" type="curve" smooth="yes"/>
      <point x="120.84848484848484" y="71.5050505050505"/>
      <point x="125.35353535353535" y="58.25252525252525"/>
      <point x="139.08080808080808" y="44.77777777777778" type="curve"/>
      <point x="82.32323232323232" y="16.515151515151516"/>
      <point x="12.787878787878787" y="-25.272727272727273"/>
      <point x="12.787878787878787" y="-97.79797979797979" type="curve" smooth="yes"/>
      <point x="12.787878787878787" y="-190.72727272727272"/>
      <point x="92.95959595959596" y="-232.27272727272728"/>
    </contour>
    <contour>
      <point x="213.40404040404042" y="-140.47474747474746" type="curve" smooth="yes"/>
      <point x="141.86868686868686" y="-140.47474747474746"/>
      <point x="113.32323232323233" y="-109.43434343434343"/>
      <point x="113.32323232323233" y="-72.85858585858585" type="curve" smooth="yes"/>
      <point x="113.32323232323233" y="-38.282828282828284"/>
      <point x="156.65656565656565" y="-3.474747474747475"/>
      <point x="188.25252525252526" y="13.07070707070707" type="curve"/>
      <point x="203.989898989899" y="8.818181818181817"/>
      <point x="235.22222222222223" y="3.3131313131313114"/>
      <point x="274.26262626262627" y="-2.434343434343436" type="curve" smooth="yes"/>
      <point x="327.1313131313131" y="-9.939393939393941"/>
      <point x="354.8888888888889" y="-18.22222222222222"/>
      <point x="354.8888888888889" y="-51.535353535353536" type="curve" smooth="yes"/>
      <point x="354.8888888888889" y="-116.84848484848484"/>
      <point x="282.55555555555554" y="-140.47474747474746"/>
    </contour>
    <contour>
      <point x="286.90909090909093" y="251.85858585858585" type="curve" smooth="yes"/>
      <point x="233.1010101010101" y="251.85858585858585"/>
      <point x="211.1010101010101" y="277.65656565656565"/>
      <point x="211.1010101010101" y="317.95959595959596" type="curve" smooth="yes"/>
      <point x="211.1010101010101" y="368.7676767676768"/>
      <point x="247.9090909090909" y="421.6868686868687"/>
      <point x="310.050505050505" y="421.6868686868687" type="curve" smooth="yes"/>
      <point x="365.37373737373736" y="421.6868686868687"/>
      <point x="388.3838383838384" y="397.1515151515151"/>
      <point x="388.3838383838384" y="353.8181818181818" type="curve" smooth="yes"/>
      <point x="388.3838383838384" y="306.2929292929293"/>
      <point x="352.8484848484849" y="251.85858585858585"/>
    </contour>
  </outline>
</glyph>
<glyph name="h" format="2">
  <advance width="506.93939393939394"/>
  <unicode hex="0068"/>
  <outline>
    <contour>
      <point x="59.7979797979798" y="0.0" type="line"/>
      <point x="168.7979797979798" y="0.0" type="line"/>
      <point x="245.54545454545456" y="333.979797979798" type="line"/>
      <point x="277.83838383838383" y="369.57575757575756"/>
      <point x="332.6868686868687" y="416.2020202020202"/>
      <point x="366.04040404040404" y="416.2020202020202" type="curve" smooth="yes"/>
      <point x="406.5959595959596" y="416.2020202020202"/>
      <point x="417.65656565656565" y="392.42424242424244"/>
      <point x="417.65656565656565" y="351.1313131313131" type="curve" smooth="yes"/>
      <point x="417.65656565656565" y="323.3333333333333"/>
      <point x="406.16161616161617" y="268.83838383838383"/>
      <point x="399.4040404040404" y="240.8080808080808" type="curve" smooth="yes"/>
      <point x="343.8888888888889" y="0.0" type="line"/>
      <point x="452.6363636363636" y="0.0" type="line"/>
      <point x="509.64646464646466" y="248.03030303030303" type="line" smooth="yes"/>
      <point x="517.4040404040404" y="281.06060606060606"/>
      <point x="530.3939393939394" y="338.77777777777777"/>
      <point x="530.3939393939394" y="376.55555555555554" type="curve" smooth="yes"/>
      <point x="530.3939393939394" y="453.04040404040404"/>
      <point x="496.3636363636364" y="511.24242424242425"/>
      <point x="410.16161616161617" y="511.24242424242425" type="curve" smooth="yes"/>
      <point x="356.1010101010101" y="511.24242424242425"/>
      <point x="298.04040404040404" y="467.8989898989899"/>
      <point x="269.75757575757575" y="435.82828282828285" type="curve"/>
      <point x="331.8181818181818" y="707.5757575757576" type="line"/>
      <point x="222.8181818181818" y="707.5757575757576" type="line"/>
    </contour>
  </outline>
</glyph>
<glyph name="j" format="2">
  <advance width="227.59595959595958"/>
  <unicode hex="006A"/>
  <outline>
    <contour>
      <point x="-42.898989898989896" y="-232.27272727272728" type="line"/>
      <point x="124.02020202020202" y="-157.54545454545453"/>
      <point x="135.71997979797982" y="-142.0830101010101"/>
      <point x="168.54545454545456" y="0.0" type="curve" smooth="yes"/>
      <point x="283.7979797979798" y="500.0" type="line"/>
      <point x="174.7979797979798" y="500.0" type="line"/>
      <point x="59.54545454545455" y="0.0" type="line" smooth="yes"/>
      <point x="41.48412121212121" y="-78.41901010101009"/>
      <point x="33.24242424242424" y="-87.93939393939394"/>
      <point x="-77.32323232323232" y="-144.7171717171717" type="curve"/>
    </contour>
    <contour>
      <point x="190.11111111111111" y="568.0" type="line"/>
      <point x="300.6060606060606" y="568.0" type="line"/>
      <point x="327.06060606060606" y="685.0505050505051" type="line"/>
      <point x="217.31313131313132" y="685.0505050505051" type="line"/>
    </contour>
  </outline>
</glyph>
<glyph name="k" format="2">
  <advance width="457.90909090909093"/>
  <unicode hex="006B"/>
  <outline>
    <contour>
      <point x="59.7979797979798" y="0.0" type="line"/>
      <point x="168.7979797979798" y="0.0" type="line"/>
      <point x="218.33333333333334" y="216.15151515151516" type="line"/>
      <point x="269.44444444444446" y="220.63636363636363" type="line"/>
      <point x="332.8484848484849" y="0.0" type="line"/>
      <point x="445.1010101010101" y="0.0" type="line"/>
      <point x="367.2323232323232" y="262.7878787878788" type="line"/>
      <point x="556.8888888888889" y="499.25252525252523" type="line"/>
      <point x="435.3939393939394" y="499.25252525252523" type="line"/>
      <point x="285.6666666666667" y="311.6868686868687" type="line"/>
      <point x="239.04040404040404" y="306.45454545454544" type="line"/>
      <point x="331.8181818181818" y="707.5757575757576" type="line"/>
      <point x="222.8181818181818" y="707.5757575757576" type="line"/>
    </contour>
  </outline>
</glyph>
<glyph name="l" format="2">
  <advance width="231.62626262626264"/>
  <unicode hex="006C"/>
  <outline>
    <contour>
      <point x="61.31313131313131" y="0.0" type="line"/>
      <point x="170.31313131313132" y="0.0" type="line"/>
      <point x="333.3333333333333" y="707.5757575757576" type="line"/>
      <point x="224.33333333333334" y="707.5757575757576" type="line"/>
    </contour>
  </outline>
</glyph>
<glyph name="m" format="2">
  <advance width="775.4949494949495"/>
  <unicode hex="006D"/>
  <outline>
    <contour>
      <point x="59.54545454545455" y="0.0" type="line"/>
      <point x="168.54545454545456" y="0.0" type="line"/>
      <point x="245.54545454545456" y="334.4848484848485" type="line"/>
      <point x="276.83838383838383" y="369.82828282828285"/>
      <point x="330.6868686868687" y="416.2020202020202"/>
      <point x="364.2929292929293" y="416.2020202020202" type="curve" smooth="yes"/>
      <point x="403.34343434343435" y="416.2020202020202"/>
      <point x="416.4040404040404" y="392.42424242424244"/>
      <point x="416.4040404040404" y="351.1313131313131" type="curve" smooth="yes"/>
      <point x="416.4040404040404" y="324.34343434343435"/>
      <point x="404.9090909090909" y="268.83838383838383"/>
      <point x="398.1515151515151" y="240.8080808080808" type="curve" smooth="yes"/>
      <point x="342.6363636363636" y="0.0" type="line"/>
      <point x="451.6363636363636" y="0.0" type="line"/>
      <point x="508.64646464646466" y="248.03030303030303" type="line" smooth="yes"/>
      <point x="516.1616161616162" y="278.8484848484849"/>
      <point x="522.1616161616162" y="321.34343434343435"/>
      <point x="524.4040404040404" y="344.8181818181818" type="curve"/>
      <point x="553.4343434343434" y="375.62626262626264"/>
      <point x="604.2525252525253" y="416.2020202020202"/>
      <point x="638.8282828282828" y="416.2020202020202" type="curve" smooth="yes"/>
      <point x="674.8888888888889" y="416.2020202020202"/>
      <point x="688.2020202020202" y="391.67676767676767"/>
      <point x="688.2020202020202" y="348.14141414141415" type="curve" smooth="yes"/>
      <point x="688.2020202020202" y="321.83838383838383"/>
      <point x="676.7070707070707" y="268.83838383838383"/>
      <point x="669.9494949494949" y="240.8080808080808" type="curve" smooth="yes"/>
      <point x="612.939393939394" y="0.0" type="line"/>
      <point x="721.939393939394" y="0.0" type="line"/>
      <point x="778.9494949494949" y="248.03030303030303" type="line" smooth="yes"/>
      <point x="786.4545454545455" y="280.55555555555554"/>
      <point x="798.2020202020202" y="337.77777777777777"/>
      <point x="798.2020202020202" y="376.55555555555554" type="curve" smooth="yes"/>
      <point x="798.2020202020202" y="453.04040404040404"/>
      <point x="765.6666666666666" y="511.24242424242425"/>
      <point x="679.4646464646464" y="511.24242424242425" type="curve" smooth="yes"/>
      <point x="621.4444444444445" y="511.24242424242425"/>
      <point x="553.6767676767677" y="466.6969696969697"/>
      <point x="518.9191919191919" y="432.6666666666667" type="curve"/>
      <point x="512.6868686868687" y="466.6969696969697"/>
      <point x="479.44444444444446" y="511.24242424242425"/>
      <point x="412.8989898989899" y="511.24242424242425" type="curve" smooth="yes"/>
      <point x="355.1010101010101" y="511.24242424242425"/>
      <point x="297.04040404040404" y="468.1515151515151"/>
      <point x="269.01010101010104" y="435.5858585858586" type="curve"/>
      <point x="279.3131313131313" y="500.0" type="line"/>
      <point x="174.7979797979798" y="500.0" type="line"/>
    </contour>
  </outline>
</glyph>
<glyph name="n" format="2">
  <advance width="506.6868686868687"/>
  <unicode hex="006E"/>
  <outline>
    <contour>
      <point x="59.54545454545455" y="0.0" type="line"/>
      <point x="168.54545454545456" y="0.0" type="line"/>
      <point x="245.54545454545456" y="334.4848484848485" type="line"/>
      <point x="276.83838383838383" y="369.82828282828285"/>
      <point x="331.4343434343434" y="416.2020202020202"/>
      <point x="365.04040404040404" y="416.2020202020202" type="curve" smooth="yes"/>
      <point x="406.83838383838383" y="416.2020202020202"/>
      <point x="417.4040404040404" y="392.42424242424244"/>
      <point x="417.4040404040404" y="351.1313131313131" type="curve" smooth="yes"/>
      <point x="417.4040404040404" y="323.3333333333333"/>
      <point x="405.9090909090909" y="268.83838383838383"/>
      <point x="399.1515151515151" y="240.8080808080808" type="curve" smooth="yes"/>
      <point x="343.6363636363636" y="0.0" type="line"/>
      <point x="452.3838383838384" y="0.0" type="line"/>
      <point x="509.64646464646466" y="248.78787878787878" type="line" smooth="yes"/>
      <point x="517.0498585858586" y="281.33630303030304"/>
      <point x="530.1414141414141" y="340.27272727272725"/>
      <point x="530.1414141414141" y="376.55555555555554" type="curve" smooth="yes"/>
      <point x="530.1414141414141" y="453.04040404040404"/>
      <point x="496.1111111111111" y="511.24242424242425"/>
      <point x="409.90909090909093" y="511.24242424242425" type="curve" smooth="yes"/>
      <point x="355.8484848484849" y="511.24242424242425"/>
      <point x="297.04040404040404" y="467.4040404040404"/>
      <point x="268.26262626262627" y="434.83838383838383" type="curve"/>
      <point x="279.3131313131313" y="500.0" type="line"/>
      <point x="174.7979797979798" y="500.0" type="line"/>
    </contour>
  </outline>
</glyph>
<glyph name="o" format="2">
  <advance width="495.24242424242425"/>
  <unicode hex="006F"/>
  <outline>
    <contour>
      <point x="270.6868686868687" y="-11.242424242424242" type="curve" smooth="yes"/>
      <point x="434.8989898989899" y="-11.242424242424242"/>
      <point x="524.1919191919192" y="163.45454545454547"/>
      <point x="524.1919191919192" y="329.57575757575756" type="curve" smooth="yes"/>
      <point x="524.1919191919192" y="455.4949494949495"/>
      <point x="456.24242424242425" y="510.4949494949495"/>
      <point x="337.04040404040404" y="510.4949494949495" type="curve" smooth="yes"/>
      <point x="181.58585858585857" y="510.4949494949495"/>
      <point x="84.79797979797979" y="334.7878787878788"/>
      <point x="84.79797979797979" y="167.40404040404042" type="curve" smooth="yes"/>
      <point x="84.79797979797979" y="41.484848484848484"/>
      <point x="152.24242424242425" y="-11.242424242424242"/>
    </contour>
    <contour>
      <point x="270.6868686868687" y="82.05050505050505" type="curve" smooth="yes"/>
      <point x="219.34343434343435" y="82.05050505050505"/>
      <point x="193.3030303030303" y="112.58585858585859"/>
      <point x="193.3030303030303" y="165.9090909090909" type="curve" smooth="yes"/>
      <point x="193.3030303030303" y="289.1010101010101"/>
      <point x="248.16161616161617" y="417.2020202020202"/>
      <point x="337.04040404040404" y="417.2020202020202" type="curve" smooth="yes"/>
      <point x="389.64646464646466" y="417.2020202020202"/>
      <point x="415.6868686868687" y="383.8888888888889"/>
      <point x="415.6868686868687" y="331.07070707070704" type="curve" smooth="yes"/>
      <point x="415.6868686868687" y="207.87878787878788"/>
      <point x="360.82828282828285" y="82.05050505050505"/>
    </contour>
  </outline>
</glyph>
<glyph name="p" format="2">
  <advance width="515.1313131313132"/>
  <unicode hex="0070"/>
  <outline>
    <contour>
      <point x="10.282828282828282" y="-215.05050505050505" type="line"/>
      <point x="117.78787878787878" y="-215.05050505050505" type="line"/>
      <point x="169.7979797979798" y="9.494949494949495" type="line"/>
      <point x="201.7979797979798" y="1.0"/>
      <point x="258.3131313131313" y="-10.494949494949495"/>
      <point x="296.35353535353534" y="-10.494949494949495" type="curve" smooth="yes"/>
      <point x="460.5858585858586" y="-10.494949494949495"/>
      <point x="547.3434343434343" y="184.11111111111111"/>
      <point x="547.3434343434343" y="350.83838383838383" type="curve" smooth="yes"/>
      <point x="547.3434343434343" y="445.5656565656566"/>
      <point x="505.1111111111111" y="511.24242424242425"/>
      <point x="408.65656565656565" y="511.24242424242425" type="curve" smooth="yes"/>
      <point x="355.35353535353534" y="511.24242424242425"/>
      <point x="296.54545454545456" y="466.65656565656565"/>
      <point x="267.26262626262627" y="432.34343434343435" type="curve"/>
      <point x="281.3030303030303" y="500.0" type="line"/>
      <point x="174.7979797979798" y="500.0" type="line"/>
    </contour>
    <contour>
      <point x="296.35353535353534" y="82.79797979797979" type="curve" smooth="yes"/>
      <point x="263.3030303030303" y="82.79797979797979"/>
      <point x="216.5151515151515" y="91.05050505050505"/>
      <point x="190.25252525252526" y="97.30303030303031" type="curve"/>
      <point x="243.05050505050505" y="326.5050505050505" type="line"/>
      <point x="279.3333333333333" y="365.83838383838383"/>
      <point x="340.16161616161617" y="417.6969696969697"/>
      <point x="375.4949494949495" y="417.6969696969697" type="curve" smooth="yes"/>
      <point x="418.3131313131313" y="417.6969696969697"/>
      <point x="436.34343434343435" y="388.93939393939394"/>
      <point x="436.34343434343435" y="344.85858585858585" type="curve" smooth="yes"/>
      <point x="436.34343434343435" y="242.74747474747474"/>
      <point x="387.5151515151515" y="82.79797979797979"/>
    </contour>
  </outline>
</glyph>
<glyph name="q" format="2">
  <advance width="514.1313131313132"/>
  <unicode hex="0071"/>
  <outline>
    <contour>
      <point x="298.57575757575756" y="-212.5252525252525" type="line"/>
      <point x="407.32323232323233" y="-212.5252525252525" type="line"/>
      <point x="566.8383838383838" y="480.77777777777777" type="line"/>
      <point x="502.1515151515151" y="493.5151515151515"/>
      <point x="393.4949494949495" y="510.4949494949495"/>
      <point x="334.52525252525254" y="510.4949494949495" type="curve" smooth="yes"/>
      <point x="173.2828282828283" y="510.4949494949495"/>
      <point x="83.53535353535354" y="320.6161616161616"/>
      <point x="83.53535353535354" y="151.3939393939394" type="curve" smooth="yes"/>
      <point x="83.53535353535354" y="50.21212121212121"/>
      <point x="129.75757575757575" y="-11.242424242424242"/>
      <point x="221.22222222222223" y="-11.242424242424242" type="curve" smooth="yes"/>
      <point x="278.5151515151515" y="-11.242424242424242"/>
      <point x="335.82828282828285" y="34.09090909090909"/>
      <point x="363.3636363636364" y="68.15151515151516" type="curve"/>
    </contour>
    <contour>
      <point x="255.63636363636363" y="82.30303030303031" type="curve" smooth="yes"/>
      <point x="212.31313131313132" y="82.30303030303031"/>
      <point x="194.53535353535352" y="111.56565656565657"/>
      <point x="194.53535353535352" y="154.88888888888889" type="curve" smooth="yes"/>
      <point x="194.53535353535352" y="265.25252525252523"/>
      <point x="247.36363636363637" y="417.2020202020202"/>
      <point x="333.77777777777777" y="417.2020202020202" type="curve" smooth="yes"/>
      <point x="367.3333333333333" y="417.2020202020202"/>
      <point x="414.6161616161616" y="408.9494949494949"/>
      <point x="440.62626262626264" y="402.9494949494949" type="curve"/>
      <point x="387.82828282828285" y="173.24242424242425" type="line"/>
      <point x="351.54545454545456" y="134.16161616161617"/>
      <point x="290.969696969697" y="82.30303030303031"/>
    </contour>
  </outline>
</glyph>
<glyph name="r" format="2">
  <advance width="326.42424242424244"/>
  <unicode hex="0072"/>
  <outline>
    <contour>
      <point x="59.54545454545455" y="0.0" type="line"/>
      <point x="168.7979797979798" y="0.0" type="line"/>
      <point x="246.0909090909091" y="333.6868686868687" type="line"/>
      <point x="289.37373737373736" y="354.7171717171717"/>
      <point x="360.6868686868687" y="386.75757575757575"/>
      <point x="401.2323232323232" y="398.01010101010104" type="curve"/>
      <point x="432.4040404040404" y="511.4949494949495" type="line"/>
      <point x="373.3636363636364" y="501.969696969697"/>
      <point x="302.32323232323233" y="457.72727272727275"/>
      <point x="265.3030303030303" y="426.989898989899" type="curve"/>
      <point x="283.0505050505051" y="500.0" type="line"/>
      <point x="175.05050505050505" y="500.0" type="line"/>
    </contour>
  </outline>
</glyph>
<glyph name="s" format="2">
  <advance width="430.73737373737373"/>
  <unicode hex="0073"/>
  <outline>
    <contour>
      <point x="214.95959595959596" y="-11.242424242424242" type="curve" smooth="yes"/>
      <point x="341.17171717171715" y="-11.242424242424242"/>
      <point x="436.67676767676767" y="48.505050505050505"/>
      <point x="436.67676767676767" y="175.4747474747475" type="curve" smooth="yes"/>
      <point x="436.67676767676767" y="250.95959595959596"/>
      <point x="388.6969494949495" y="269.2655555555555"/>
      <point x="302.16161616161617" y="294.4343434343434" type="curve" smooth="yes"/>
      <point x="240.35351515151515" y="312.00292929292925"/>
      <point x="222.32323232323233" y="321.2020202020202"/>
      <point x="222.32323232323233" y="348.0" type="curve" smooth="yes"/>
      <point x="222.32323232323233" y="385.35353535353534"/>
      <point x="252.66666666666666" y="417.2020202020202"/>
      <point x="305.7878787878788" y="417.2020202020202" type="curve" smooth="yes"/>
      <point x="352.7878787878788" y="417.2020202020202"/>
      <point x="427.5151515151515" y="408.7070707070707"/>
      <point x="470.0" y="401.95959595959596" type="curve"/>
      <point x="490.2121212121212" y="483.7878787878788" type="line"/>
      <point x="456.19191919191917" y="495.020202020202"/>
      <point x="385.6969696969697" y="510.4949494949495"/>
      <point x="316.52525252525254" y="510.4949494949495" type="curve" smooth="yes"/>
      <point x="206.75757575757575" y="510.4949494949495"/>
      <point x="113.07070707070707" y="440.72727272727275"/>
      <point x="113.07070707070707" y="320.32323232323233" type="curve" smooth="yes"/>
      <point x="113.07070707070707" y="250.34343434343435"/>
      <point x="164.56414141414143" y="225.1862424242424"/>
      <point x="249.04040404040404" y="202.63636363636363" type="curve" smooth="yes"/>
      <point x="302.170202020202" y="188.93371717171715"/>
      <point x="325.1818181818182" y="180.6161616161616"/>
      <point x="325.1818181818182" y="153.5252525252525" type="curve" smooth="yes"/>
      <point x="325.1818181818182" y="108.35353535353536"/>
      <point x="291.27272727272725" y="82.05050505050505"/>
      <point x="227.43434343434345" y="82.05050505050505" type="curve" smooth="yes"/>
      <point x="180.2020202020202" y="82.05050505050505"/>
      <point x="108.96969696969697" y="91.79797979797979"/>
      <point x="68.47474747474747" y="99.54545454545455" type="curve"/>
      <point x="48.02020202020202" y="18.21212121212121" type="line"/>
      <point x="81.77777777777777" y="5.232323232323233"/>
      <point x="150.02020202020202" y="-11.242424242424242"/>
    </contour>
  </outline>
</glyph>
<glyph name="t" format="2">
  <advance width="324.45454545454544"/>
  <unicode hex="0074"/>
  <outline>
    <contour>
      <point x="213.5151515151515" y="-11.242424242424242" type="curve" smooth="yes"/>
      <point x="252.22222222222223" y="-11.242424242424242"/>
      <point x="296.45454545454544" y="-0.26262626262626254"/>
      <point x="319.2020202020202" y="7.969696969696971" type="curve"/>
      <point x="327.92929292929296" y="87.55555555555556" type="line"/>
      <point x="308.16161616161617" y="85.30303030303031"/>
      <point x="274.8888888888889" y="82.05050505050505"/>
      <point x="255.88888888888889" y="82.05050505050505" type="curve" smooth="yes"/>
      <point x="228.82828282828282" y="82.05050505050505"/>
      <point x="218.05050505050505" y="94.83838383838383"/>
      <point x="218.05050505050505" y="117.87878787878788" type="curve" smooth="yes"/>
      <point x="218.05050505050505" y="135.16161616161617"/>
      <point x="222.8080808080808" y="163.6969696969697"/>
      <point x="227.8181818181818" y="184.989898989899" type="curve" smooth="yes"/>
      <point x="279.1212121212121" y="406.7070707070707" type="line"/>
      <point x="398.020202020202" y="406.7070707070707" type="line"/>
      <point x="420.969696969697" y="500.0" type="line"/>
      <point x="301.32323232323233" y="500.0" type="line"/>
      <point x="333.1010101010101" y="636.5858585858585" type="line"/>
      <point x="224.1010101010101" y="636.5858585858585" type="line"/>
      <point x="192.57575757575756" y="500.0" type="line"/>
      <point x="135.76767676767676" y="500.0" type="line"/>
      <point x="111.32323232323232" y="406.7070707070707" type="line"/>
      <point x="170.12121212121212" y="406.7070707070707" type="line"/>
      <point x="120.31313131313131" y="193.95959595959596" type="line" smooth="yes"/>
      <point x="112.31313131313131" y="161.21212121212122"/>
      <point x="104.8080808080808" y="122.95959595959596"/>
      <point x="104.8080808080808" y="91.20202020202021" type="curve" smooth="yes"/>
      <point x="104.8080808080808" y="32.2020202020202"/>
      <point x="142.55555555555554" y="-11.242424242424242"/>
    </contour>
  </outline>
</glyph>
<glyph name="u" format="2">
  <advance width="506.6868686868687"/>
  <unicode hex="0075"/>
  <outline>
    <contour>
      <point x="211.77777777777777" y="-11.242424242424242" type="curve" smooth="yes"/>
      <point x="265.83838383838383" y="-11.242424242424242"/>
      <point x="324.64646464646466" y="32.5959595959596"/>
      <point x="353.42424242424244" y="65.16161616161617" type="curve"/>
      <point x="342.37373737373736" y="0.0" type="line"/>
      <point x="446.8888888888889" y="0.0" type="line"/>
      <point x="562.1414141414141" y="500.0" type="line"/>
      <point x="453.14141414141415" y="500.0" type="line"/>
      <point x="376.14141414141415" y="165.5151515151515" type="line"/>
      <point x="344.8484848484849" y="130.17171717171718"/>
      <point x="290.25252525252523" y="83.79797979797979"/>
      <point x="256.64646464646466" y="83.79797979797979" type="curve" smooth="yes"/>
      <point x="217.59595959595958" y="83.79797979797979"/>
      <point x="204.2828282828283" y="107.57575757575758"/>
      <point x="204.2828282828283" y="148.86868686868686" type="curve" smooth="yes"/>
      <point x="204.2828282828283" y="176.66666666666666"/>
      <point x="215.77777777777777" y="231.16161616161617"/>
      <point x="222.53535353535352" y="259.19191919191917" type="curve" smooth="yes"/>
      <point x="278.0505050505051" y="500.0" type="line"/>
      <point x="169.3030303030303" y="500.0" type="line"/>
      <point x="112.04040404040404" y="251.21212121212122" type="line" smooth="yes"/>
      <point x="104.53535353535354" y="219.43434343434345"/>
      <point x="91.54545454545455" y="159.72727272727272"/>
      <point x="91.54545454545455" y="123.44444444444444" type="curve" smooth="yes"/>
      <point x="91.54545454545455" y="46.95959595959596"/>
      <point x="125.82828282828282" y="-11.242424242424242"/>
    </contour>
  </outline>
</glyph>
<glyph name="v" format="2">
  <advance width="459.2121212121212"/>
  <unicode hex="0076"/>
  <outline>
    <contour>
      <point x="134.62626262626262" y="0.0" type="line"/>
      <point x="315.3333333333333" y="0.0" type="line"/>
      <point x="558.1616161616162" y="500.0" type="line"/>
      <point x="447.65656565656565" y="500.0" type="line"/>
      <point x="257.2121212121212" y="91.05050505050505" type="line"/>
      <point x="233.65656565656565" y="91.05050505050505" type="line"/>
      <point x="238.31313131313132" y="500.0" type="line"/>
      <point x="131.3030303030303" y="500.0" type="line"/>
    </contour>
  </outline>
</glyph>
<glyph name="w" format="2">
  <advance width="748.8686868686868"/>
  <unicode hex="0077"/>
  <outline>
    <contour>
      <point x="118.87878787878788" y="0.0" type="line"/>
      <point x="300.75757575757575" y="0.0" type="line"/>
      <point x="452.26262626262627" y="345.34343434343435" type="line"/>
      <point x="442.35353535353534" y="0.0" type="line"/>
      <point x="627.7272727272727" y="0.0" type="line"/>
      <point x="841.3232323232323" y="500.0" type="line"/>
      <point x="731.070707070707" y="500.0" type="line"/>
      <point x="562.3737373737374" y="93.2929292929293" type="line"/>
      <point x="540.8888888888889" y="93.2929292929293" type="line"/>
      <point x="550.7878787878788" y="490.0" type="line"/>
      <point x="425.80808080808083" y="490.0" type="line"/>
      <point x="247.36363636363637" y="93.2929292929293" type="line"/>
      <point x="226.13131313131314" y="93.2929292929293" type="line"/>
      <point x="248.53535353535352" y="500.0" type="line"/>
      <point x="138.78787878787878" y="500.0" type="line"/>
    </contour>
  </outline>
</glyph>
<glyph name="x" format="2">
  <advance width="425.2020202020202"/>
  <unicode hex="0078"/>
  <outline>
    <contour>
      <point x="11.303030303030303" y="0.0" type="line"/>
      <point x="126.06060606060606" y="0.0" type="line"/>
      <point x="249.77777777777777" y="166.1919191919192" type="line"/>
      <point x="299.8888888888889" y="0.0" type="line"/>
      <point x="411.3939393939394" y="0.0" type="line"/>
      <point x="327.85858585858585" y="241.76767676767676" type="line"/>
      <point x="529.6565656565657" y="500.0" type="line"/>
      <point x="417.14141414141415" y="500.0" type="line"/>
      <point x="291.42424242424244" y="328.3131313131313" type="line"/>
      <point x="240.55555555555554" y="500.0" type="line"/>
      <point x="129.3030303030303" y="500.0" type="line"/>
      <point x="211.59595959595958" y="250.0" type="line"/>
    </contour>
  </outline>
</glyph>
<glyph name="y" format="2">
  <advance width="459.95959595959596"/>
  <unicode hex="0079"/>
  <outline>
    <contour>
      <point x="103.26262626262626" y="-214.54545454545453" type="line"/>
      <point x="212.27272727272728" y="-214.54545454545453" type="line"/>
      <point x="558.1616161616162" y="500.0" type="line"/>
      <point x="447.65656565656565" y="500.0" type="line"/>
      <point x="254.96969696969697" y="91.05050505050505" type="line"/>
      <point x="233.65656565656565" y="91.05050505050505" type="line"/>
      <point x="238.31313131313132" y="500.0" type="line"/>
      <point x="131.3030303030303" y="500.0" type="line"/>
      <point x="134.62626262626262" y="0.0" type="line"/>
      <point x="211.31313131313132" y="0.0" type="line"/>
    </contour>
  </outline>
</glyph>
<glyph name="z" format="2">
  <advance width="415.5151515151515"/>
  <unicode hex="007A"/>
  <outline>
    <contour>
      <point x="35.76767676767677" y="0.0" type="line"/>
      <point x="379.25252525252523" y="0.0" type="line"/>
      <point x="402.6969696969697" y="93.2929292929293" type="line"/>
      <point x="184.1818181818182" y="93.2929292929293" type="line"/>
      <point x="473.55555555555554" y="408.9494949494949" type="line"/>
      <point x="495.74747474747477" y="500.0" type="line"/>
      <point x="152.26262626262627" y="500.0" type="line"/>
      <point x="128.56565656565655" y="406.7070707070707" type="line"/>
      <point x="343.83838383838383" y="406.7070707070707" type="line"/>
      <point x="55.21212121212121" y="91.79797979797979" type="line"/>
    </contour>
  </outline>
</glyph>
<glyph name="braceleft" format="2">
  <advance width="298.35353535353534"/>
  <unicode hex="007B"/>
  <outline>
    <contour>
      <point x="249.27272727272728" y="-130.4747474747475" type="curve"/>
      <point x="274.969696969697" y="-35.42424242424242" type="line"/>
      <point x="227.62626262626264" y="-35.42424242424242"/>
      <point x="204.0909090909091" y="-15.151515151515149"/>
      <point x="204.0909090909091" y="21.414141414141415" type="curve" smooth="yes"/>
      <point x="204.0909090909091" y="63.72727272727273"/>
      <point x="250.35353535353536" y="181.25252525252526"/>
      <point x="250.35353535353536" y="220.26262626262627" type="curve" smooth="yes" name="hr00"/>
      <point x="250.35353535353536" y="269.27272727272725"/>
      <point x="227.82828282828282" y="292.27272727272725"/>
      <point x="188.59595959595958" y="312.4949494949495" type="curve"/>
      <point x="257.6060606060606" y="336.24242424242425"/>
      <point x="289.35353535353534" y="367.24242424242425"/>
      <point x="308.35353535353534" y="447.7676767676768" type="curve" smooth="yes"/>
      <point x="315.0909090909091" y="482.19191919191917"/>
      <point x="324.6060606060606" y="534.7979797979798"/>
      <point x="331.5959595959596" y="570.989898989899" type="curve" smooth="yes"/>
      <point x="343.8686868686869" y="623.3737373737374"/>
      <point x="370.17171717171715" y="656.4242424242424"/>
      <point x="441.050505050505" y="661.4242424242424" type="curve"/>
      <point x="459.010101010101" y="756.4747474747475" type="line"/>
      <point x="330.80808080808083" y="751.4747474747475"/>
      <point x="267.83838383838383" y="711.9494949494949"/>
      <point x="234.0909090909091" y="601.2323232323232" type="curve" smooth="yes"/>
      <point x="224.58585858585857" y="554.030303030303"/>
      <point x="210.0909090909091" y="476.26262626262627"/>
      <point x="205.34343434343435" y="458.010101010101" type="curve" smooth="yes"/>
      <point x="193.33333333333334" y="407.42424242424244"/>
      <point x="180.3030303030303" y="382.64646464646466"/>
      <point x="91.29292929292929" y="359.14141414141415" type="curve"/>
      <point x="71.33333333333333" y="279.2929292929293" type="line"/>
      <point x="122.08080808080808" y="255.82828282828282"/>
      <point x="140.6060606060606" y="230.35353535353536"/>
      <point x="140.6060606060606" y="195.8080808080808" type="curve" smooth="yes"/>
      <point x="140.6060606060606" y="156.8181818181818"/>
      <point x="96.58585858585859" y="37.04040404040404"/>
      <point x="96.58585858585859" y="-9.515151515151516" type="curve" smooth="yes"/>
      <point x="96.58585858585859" y="-86.98989898989899"/>
      <point x="153.77777777777777" y="-129.46464646464648"/>
    </contour>
  </outline>
</glyph>
<glyph name="bar" format="2">
  <advance width="325.1515151515151"/>
  <unicode hex="007C"/>
  <outline>
    <contour>
      <point x="164.82828282828282" y="-215.05050505050505" type="line"/>
      <point x="273.82828282828285" y="-215.05050505050505" type="line"/>
      <point x="273.82828282828285" y="707.5757575757576" type="line"/>
      <point x="164.82828282828282" y="707.5757575757576" type="line"/>
    </contour>
  </outline>
</glyph>
<glyph name="braceright" format="2">
  <advance width="297.6060606060606"/>
  <unicode hex="007D"/>
  <outline>
    <contour>
      <point x="192.33333333333334" y="753.4747474747475" type="curve"/>
      <point x="166.63636363636363" y="658.4242424242424" type="line"/>
      <point x="213.97979797979798" y="658.4242424242424"/>
      <point x="237.5151515151515" y="638.1515151515151"/>
      <point x="237.5151515151515" y="601.5858585858585" type="curve" smooth="yes"/>
      <point x="237.5151515151515" y="559.2727272727273"/>
      <point x="191.25252525252523" y="441.74747474747477"/>
      <point x="191.25252525252523" y="402.73737373737373" type="curve" smooth="yes"/>
      <point x="191.25252525252523" y="353.72727272727275"/>
      <point x="213.77777777777777" y="330.72727272727275"/>
      <point x="253.010101010101" y="310.5050505050505" type="curve"/>
      <point x="184.0" y="286.75757575757575"/>
      <point x="152.25252525252523" y="255.75757575757575"/>
      <point x="133.25252525252523" y="175.23232323232324" type="curve" smooth="yes"/>
      <point x="126.51515151515152" y="140.8080808080808"/>
      <point x="117.0" y="88.20202020202021"/>
      <point x="110.01010101010101" y="52.01010101010101" type="curve" smooth="yes"/>
      <point x="97.73737373737373" y="-0.37373737373737015"/>
      <point x="71.43434343434343" y="-33.42424242424242"/>
      <point x="0.5555555555555536" y="-38.42424242424242" type="curve"/>
      <point x="-17.404040404040405" y="-133.4747474747475" type="line"/>
      <point x="110.79797979797979" y="-128.4747474747475"/>
      <point x="173.76767676767676" y="-88.94949494949495"/>
      <point x="207.5151515151515" y="21.767676767676768" type="curve" smooth="yes"/>
      <point x="217.02020202020202" y="68.96969696969697"/>
      <point x="231.5151515151515" y="146.73737373737373"/>
      <point x="236.26262626262627" y="164.989898989899" type="curve" smooth="yes"/>
      <point x="248.27272727272728" y="215.57575757575756"/>
      <point x="261.3030303030303" y="240.35353535353536"/>
      <point x="350.3131313131313" y="263.85858585858585" type="curve"/>
      <point x="370.27272727272725" y="343.7070707070707" type="line"/>
      <point x="319.52525252525254" y="367.17171717171715"/>
      <point x="301.0" y="392.64646464646466"/>
      <point x="301.0" y="427.19191919191917" type="curve" smooth="yes"/>
      <point x="301.0" y="466.1818181818182"/>
      <point x="345.020202020202" y="585.959595959596"/>
      <point x="345.020202020202" y="632.5151515151515" type="curve" smooth="yes"/>
      <point x="345.020202020202" y="709.989898989899"/>
      <point x="287.82828282828285" y="752.4646464646464"/>
    </contour>
  </outline>
</glyph>
<glyph name="asciitilde" format="2">
  <advance width="560.0"/>
  <unicode hex="007E"/>
  <outline>
    <contour>
      <point x="442.4949494949495" y="180.6060606060606" type="curve" smooth="yes"/>
      <point x="484.72727272727275" y="180.6060606060606"/>
      <point x="531.2323232323232" y="210.11111111111111"/>
      <point x="555.2424242424242" y="232.6161616161616" type="curve"/>
      <point x="546.4848484848485" y="320.42424242424244" type="line" name="hr00"/>
      <point x="519.2323232323232" y="302.90909090909093"/>
      <point x="471.979797979798" y="278.8888888888889"/>
      <point x="444.4848484848485" y="278.8888888888889" type="curve" smooth="yes"/>
      <point x="398.0" y="278.8888888888889"/>
      <point x="297.0" y="330.2121212121212"/>
      <point x="243.0" y="330.2121212121212" type="curve" smooth="yes"/>
      <point x="201.02020202020202" y="330.2121212121212"/>
      <point x="149.77777777777777" y="299.95959595959596"/>
      <point x="122.77777777777777" y="277.7070707070707" type="curve"/>
      <point x="133.03030303030303" y="189.64646464646464" type="line"/>
      <point x="159.53535353535352" y="207.9090909090909"/>
      <point x="207.53535353535352" y="231.92929292929293"/>
      <point x="240.26262626262627" y="231.92929292929293" type="curve" smooth="yes"/>
      <point x="279.27272727272725" y="231.92929292929293"/>
      <point x="388.4949494949495" y="180.6060606060606"/>
    </contour>
  </outline>
</glyph>
<glyph name="exclamdown" format="2">
  <advance width="168.07070707070707"/>
  <unicode hex="00A1"/>
  <outline>
    <contour>
      <point x="195.1919191919192" y="253.86868686868686" type="line"/>
      <point x="93.93939393939394" y="253.86868686868686" type="line"/>
      <point x="-19.575757575757578" y="-200.0" type="line"/>
      <point x="95.64646464646465" y="-200.0" type="line"/>
    </contour>
    <contour>
      <point x="253.8989898989899" y="500.0" type="line"/>
      <point x="143.15151515151516" y="500.0" type="line"/>
      <point x="112.1919191919192" y="364.67676767676767" type="line"/>
      <point x="222.93939393939394" y="364.67676767676767" type="line"/>
    </contour>
  </outline>
</glyph>
<glyph name="cent" format="2">
  <advance width="560.0"/>
  <unicode hex="00A2"/>
  <outline>
    <contour>
      <point x="253.5252525252525" y="-76.52525252525253" type="line" name="hr00"/>
      <point x="341.34343434343435" y="-76.52525252525253" type="line"/>
      <point x="367.6060606060606" y="37.76767676767677" type="line"/>
      <point x="396.1111111111111" y="39.01010101010101"/>
      <point x="432.16161616161617" y="43.26262626262626"/>
      <point x="451.949494949495" y="46.26262626262626" type="curve"/>
      <point x="469.9191919191919" y="138.56565656565658" type="line"/>
      <point x="437.1515151515151" y="136.31313131313132"/>
      <point x="383.1212121212121" y="133.55555555555554"/>
      <point x="355.35353535353534" y="133.55555555555554" type="curve" smooth="yes"/>
      <point x="257.2525252525253" y="133.55555555555554"/>
      <point x="247.55555555555554" y="175.92929292929293"/>
      <point x="265.32323232323233" y="249.24242424242425" type="curve" smooth="yes"/>
      <point x="285.34343434343435" y="328.3333333333333"/>
      <point x="324.6666666666667" y="365.9494949494949"/>
      <point x="408.2020202020202" y="365.9494949494949" type="curve" smooth="yes"/>
      <point x="434.2020202020202" y="365.9494949494949"/>
      <point x="486.979797979798" y="362.93939393939394"/>
      <point x="519.7474747474747" y="361.1818181818182" type="curve"/>
      <point x="547.6868686868687" y="453.73737373737373" type="line"/>
      <point x="535.959595959596" y="456.2323232323232"/>
      <point x="493.82828282828285" y="461.24242424242425"/>
      <point x="468.34343434343435" y="463.73737373737373" type="curve"/>
      <point x="495.6060606060606" y="575.0505050505051" type="line"/>
      <point x="406.54545454545456" y="575.0505050505051" type="line"/>
      <point x="381.52525252525254" y="465.72727272727275" type="line"/>
      <point x="276.5353535353535" y="459.989898989899"/>
      <point x="195.3030303030303" y="389.73737373737373"/>
      <point x="160.05050505050505" y="249.24242424242425" type="curve" smooth="yes"/>
      <point x="135.2929292929293" y="147.4848484848485"/>
      <point x="151.5050505050505" y="38.01010101010101"/>
      <point x="278.2929292929293" y="32.03030303030303" type="curve"/>
    </contour>
  </outline>
</glyph>
<glyph name="sterling" format="2">
  <advance width="560.0"/>
  <unicode hex="00A3"/>
  <outline>
    <contour>
      <point x="77.02020202020202" y="0.0" type="line"/>
      <point x="409.44444444444446" y="0.0" type="line"/>
      <point x="485.2121212121212" y="17.252525252525253" type="line"/>
      <point x="487.45454545454544" y="111.04040404040404" type="line"/>
      <point x="416.17171717171715" y="93.54545454545455" type="line"/>
      <point x="304.72727272727275" y="93.54545454545455" type="line"/>
      <point x="361.2929292929293" y="340.1111111111111" type="line"/>
      <point x="533.2020202020202" y="340.1111111111111" type="line"/>
      <point x="555.4040404040404" y="433.65656565656565" type="line"/>
      <point x="382.74747474747477" y="433.65656565656565" type="line"/>
      <point x="390.020202020202" y="463.25252525252523" type="line" smooth="yes"/>
      <point x="407.7979797979798" y="535.1212121212121"/>
      <point x="420.3131313131313" y="582.4646464646464"/>
      <point x="482.42424242424244" y="582.4646464646464" type="curve" smooth="yes"/>
      <point x="514.2020202020202" y="582.4646464646464"/>
      <point x="563.7272727272727" y="577.4646464646464"/>
      <point x="591.989898989899" y="574.4646464646464" type="curve"/>
      <point x="616.929292929293" y="657.5353535353536" type="line"/>
      <point x="579.2020202020202" y="667.020202020202"/>
      <point x="515.4747474747475" y="679.0"/>
      <point x="477.7171717171717" y="679.0" type="curve" smooth="yes"/>
      <point x="358.6969696969697" y="679.0"/>
      <point x="315.74747474747477" y="615.4242424242424"/>
      <point x="281.5151515151515" y="476.22222222222223" type="curve" smooth="yes"/>
      <point x="271.25252525252523" y="433.65656565656565" type="line"/>
      <point x="194.02020202020202" y="433.65656565656565" type="line"/>
      <point x="171.8181818181818" y="340.1111111111111" type="line"/>
      <point x="249.7979797979798" y="340.1111111111111" type="line"/>
      <point x="193.72727272727272" y="93.54545454545455" type="line"/>
      <point x="98.47474747474747" y="93.54545454545455" type="line"/>
    </contour>
  </outline>
</glyph>
<glyph name="currency" format="2">
  <advance width="560.0"/>
  <unicode hex="00A4"/>
  <outline>
    <contour>
      <point x="204.2929292929293" y="117.79797979797979" type="curve" smooth="yes"/>
      <point x="278.5151515151515" y="44.07070707070707"/>
      <point x="398.47474747474746" y="44.07070707070707"/>
      <point x="472.6969696969697" y="117.79797979797979" type="curve" smooth="yes"/>
      <point x="546.4242424242424" y="192.02020202020202"/>
      <point x="546.4242424242424" y="311.979797979798"/>
      <point x="472.6969696969697" y="386.2020202020202" type="curve" smooth="yes"/>
      <point x="398.47474747474746" y="459.92929292929296"/>
      <point x="278.5151515151515" y="459.92929292929296"/>
      <point x="204.2929292929293" y="386.2020202020202" type="curve" smooth="yes"/>
      <point x="130.56565656565655" y="311.979797979798"/>
      <point x="130.56565656565655" y="192.02020202020202"/>
    </contour>
    <contour>
      <point x="175.6969696969697" y="13.868686868686865" type="line"/>
      <point x="280.90909090909093" y="119.33333333333333" type="line"/>
      <point x="205.82828282828282" y="194.41414141414143" type="line"/>
      <point x="100.36363636363636" y="89.20202020202021" type="line"/>
    </contour>
    <contour>
      <point x="274.8888888888889" y="188.3939393939394" type="curve" smooth="yes"/>
      <point x="240.33333333333334" y="223.2020202020202"/>
      <point x="240.33333333333334" y="280.7979797979798"/>
      <point x="274.8888888888889" y="315.6060606060606" type="curve" smooth="yes"/>
      <point x="309.6969696969697" y="350.16161616161617"/>
      <point x="367.2929292929293" y="350.16161616161617"/>
      <point x="402.1010101010101" y="315.6060606060606" type="curve" smooth="yes"/>
      <point x="436.65656565656565" y="280.7979797979798"/>
      <point x="436.65656565656565" y="223.2020202020202"/>
      <point x="402.1010101010101" y="188.3939393939394" type="curve" smooth="yes"/>
      <point x="367.2929292929293" y="153.83838383838383"/>
      <point x="309.6969696969697" y="153.83838383838383"/>
    </contour>
    <contour>
      <point x="205.82828282828282" y="309.5858585858586" type="line"/>
      <point x="280.90909090909093" y="384.6666666666667" type="line"/>
      <point x="175.6969696969697" y="490.13131313131316" type="line"/>
      <point x="100.36363636363636" y="414.7979797979798" type="line"/>
    </contour>
    <contour>
      <point x="501.2929292929293" y="13.868686868686865" type="line"/>
      <point x="576.6262626262626" y="89.20202020202021" type="line"/>
      <point x="471.16161616161617" y="194.41414141414143" type="line"/>
      <point x="396.0808080808081" y="119.33333333333333" type="line"/>
    </contour>
    <contour>
      <point x="471.16161616161617" y="309.5858585858586" type="line"/>
      <point x="576.6262626262626" y="414.7979797979798" type="line"/>
      <point x="501.2929292929293" y="490.13131313131316" type="line"/>
      <point x="396.0808080808081" y="384.6666666666667" type="line"/>
    </contour>
  </outline>
</glyph>
<glyph name="yen" format="2">
  <advance width="560.0"/>
  <unicode hex="00A5"/>
  <outline>
    <contour>
      <point x="229.1010101010101" y="0.0" type="line"/>
      <point x="340.34343434343435" y="0.0" type="line"/>
      <point x="372.8787878787879" y="139.64646464646464" type="line"/>
      <point x="525.5050505050505" y="139.64646464646464" type="line"/>
      <point x="547.7070707070707" y="236.1818181818182" type="line"/>
      <point x="395.0808080808081" y="236.1818181818182" type="line"/>
      <point x="405.1212121212121" y="276.86868686868684" type="line"/>
      <point x="416.14141414141415" y="290.14141414141415" type="line"/>
      <point x="559.7575757575758" y="290.14141414141415" type="line"/>
      <point x="582.4545454545455" y="386.67676767676767" type="line"/>
      <point x="489.73737373737373" y="386.67676767676767" type="line"/>
      <point x="714.3434343434343" y="660.2525252525253" type="line"/>
      <point x="569.6767676767677" y="660.2525252525253" type="line"/>
      <point x="369.45454545454544" y="409.0505050505051" type="line"/>
      <point x="265.14141414141415" y="660.2525252525253" type="line"/>
      <point x="144.17171717171718" y="660.2525252525253" type="line"/>
      <point x="254.6969696969697" y="386.67676767676767" type="line"/>
      <point x="161.46464646464648" y="386.67676767676767" type="line"/>
      <point x="140.010101010101" y="290.14141414141415" type="line"/>
      <point x="290.1212121212121" y="290.14141414141415" type="line"/>
      <point x="293.62626262626264" y="277.37373737373736" type="line"/>
      <point x="284.0808080808081" y="236.1818181818182" type="line"/>
      <point x="127.21212121212122" y="236.1818181818182" type="line"/>
      <point x="104.26262626262626" y="139.64646464646464" type="line"/>
      <point x="262.1313131313131" y="139.64646464646464" type="line"/>
    </contour>
  </outline>
</glyph>
<glyph name="brokenbar" format="2">
  <advance width="327.67676767676767"/>
  <unicode hex="00A6"/>
  <outline>
    <contour>
      <point x="166.0909090909091" y="334.5656565656566" type="line"/>
      <point x="275.0909090909091" y="334.5656565656566" type="line"/>
      <point x="275.0909090909091" y="707.5757575757576" type="line"/>
      <point x="166.0909090909091" y="707.5757575757576" type="line"/>
    </contour>
    <contour>
      <point x="166.0909090909091" y="-215.05050505050505" type="line"/>
      <point x="275.0909090909091" y="-215.05050505050505" type="line"/>
      <point x="275.0909090909091" y="163.93939393939394" type="line"/>
      <point x="166.0909090909091" y="163.93939393939394" type="line"/>
    </contour>
  </outline>
</glyph>
<glyph name="section" format="2">
  <advance width="479.92929292929296"/>
  <unicode hex="00A7"/>
  <outline>
    <contour>
      <point x="189.78787878787878" y="-171.33333333333334" type="curve" smooth="yes"/>
      <point x="402.85858585858585" y="-171.33333333333334"/>
      <point x="433.16161616161617" y="-6.161616161616163"/>
      <point x="433.16161616161617" y="52.06060606060606" type="curve" smooth="yes"/>
      <point x="433.16161616161617" y="71.08080808080808"/>
      <point x="431.4141414141414" y="86.82828282828282"/>
      <point x="416.16161616161617" y="109.56565656565657" type="curve"/>
      <point x="450.1515151515151" y="149.56565656565655"/>
      <point x="499.62626262626264" y="211.84848484848484"/>
      <point x="499.62626262626264" y="273.32323232323233" type="curve" smooth="yes"/>
      <point x="499.62626262626264" y="315.34343434343435"/>
      <point x="479.5858585858586" y="371.77777777777777"/>
      <point x="379.83838383838383" y="393.75757575757575" type="curve" smooth="yes"/>
      <point x="319.27272727272725" y="406.75757575757575"/>
      <point x="267.5959595959596" y="415.010101010101"/>
      <point x="267.5959595959596" y="460.3030303030303" type="curve" smooth="yes"/>
      <point x="267.5959595959596" y="511.17171717171715"/>
      <point x="309.13131313131316" y="544.5151515151515"/>
      <point x="387.47474747474746" y="544.5151515151515" type="curve" smooth="yes"/>
      <point x="419.72727272727275" y="544.5151515151515"/>
      <point x="489.7171717171717" y="536.0202020202021"/>
      <point x="533.959595959596" y="529.2727272727273" type="curve"/>
      <point x="558.9090909090909" y="621.3333333333334" type="line"/>
      <point x="519.6666666666666" y="630.3232323232323"/>
      <point x="450.1818181818182" y="642.5555555555555"/>
      <point x="403.6969696969697" y="642.5555555555555" type="curve" smooth="yes"/>
      <point x="239.2929292929293" y="642.5555555555555"/>
      <point x="160.8181818181818" y="523.1515151515151"/>
      <point x="160.8181818181818" y="439.6161616161616" type="curve" smooth="yes"/>
      <point x="160.8181818181818" y="415.3131313131313"/>
      <point x="162.58585858585857" y="378.64646464646466"/>
      <point x="180.8181818181818" y="360.3939393939394" type="curve"/>
      <point x="145.8181818181818" y="332.8787878787879"/>
      <point x="88.35353535353535" y="276.1010101010101"/>
      <point x="88.35353535353535" y="198.16161616161617" type="curve" smooth="yes"/>
      <point x="88.35353535353535" y="139.42424242424244"/>
      <point x="119.35353535353535" y="101.17171717171718"/>
      <point x="210.40404040404042" y="77.45454545454545" type="curve" smooth="yes"/>
      <point x="302.65656565656565" y="52.494949494949495"/>
      <point x="325.3939393939394" y="50.696969696969695"/>
      <point x="325.3939393939394" y="9.939393939393938" type="curve" smooth="yes"/>
      <point x="325.3939393939394" y="-33.121212121212125"/>
      <point x="279.86868686868684" y="-73.54545454545455"/>
      <point x="205.26262626262627" y="-73.54545454545455" type="curve" smooth="yes"/>
      <point x="168.26262626262627" y="-73.54545454545455"/>
      <point x="97.75757575757575" y="-65.54545454545455"/>
      <point x="54.505050505050505" y="-59.54545454545455" type="curve"/>
      <point x="23.32323232323232" y="-151.60606060606062" type="line"/>
      <point x="67.81818181818181" y="-159.84848484848484"/>
      <point x="143.3030303030303" y="-171.33333333333334"/>
    </contour>
    <contour>
      <point x="344.32323232323233" y="149.989898989899" type="curve"/>
      <point x="323.3131313131313" y="160.25252525252526"/>
      <point x="296.7979797979798" y="168.0"/>
      <point x="263.52525252525254" y="178.4848484848485" type="curve" smooth="yes"/>
      <point x="220.85858585858585" y="189.24242424242425"/>
      <point x="200.1010101010101" y="199.2929292929293"/>
      <point x="200.1010101010101" y="226.85858585858585" type="curve" smooth="yes"/>
      <point x="200.1010101010101" y="258.64646464646466"/>
      <point x="227.88888888888889" y="306.17171717171715"/>
      <point x="242.93939393939394" y="322.4646464646465" type="curve"/>
      <point x="250.44444444444446" y="317.45454545454544"/>
      <point x="283.47474747474746" y="308.6969696969697"/>
      <point x="312.020202020202" y="302.44444444444446" type="curve" smooth="yes"/>
      <point x="365.6161616161616" y="290.19191919191917"/>
      <point x="386.8888888888889" y="276.16161616161617"/>
      <point x="386.8888888888889" y="248.62626262626262" type="curve" smooth="yes"/>
      <point x="386.8888888888889" y="218.83838383838383"/>
      <point x="361.6060606060606" y="169.54545454545453"/>
    </contour>
  </outline>
</glyph>
<glyph name="dieresis" format="2">
  <advance width="583.9494949494949"/>
  <unicode hex="00A8"/>
  <outline>
    <contour>
      <point x="415.5656565656566" y="609.0808080808081" type="line"/>
      <point x="504.6060606060606" y="609.0808080808081" type="line"/>
      <point x="532.3131313131313" y="726.4040404040404" type="line"/>
      <point x="442.020202020202" y="726.4040404040404" type="line"/>
    </contour>
    <contour>
      <point x="226.36363636363637" y="609.0808080808081" type="line"/>
      <point x="315.90909090909093" y="609.0808080808081" type="line"/>
      <point x="343.6161616161616" y="726.4040404040404" type="line"/>
      <point x="253.32323232323233" y="726.4040404040404" type="line"/>
    </contour>
  </outline>
</glyph>
<glyph name="copyright" format="2">
  <advance width="642.2626262626262"/>
  <unicode hex="00A9"/>
  <outline>
    <contour>
      <point x="420.010101010101" y="154.7979797979798" type="curve" smooth="yes"/>
      <point x="584.2020202020202" y="154.7979797979798"/>
      <point x="691.7070707070707" y="276.5353535353535"/>
      <point x="691.7070707070707" y="434.0" type="curve" smooth="yes"/>
      <point x="691.7070707070707" y="586.2323232323232"/>
      <point x="584.2020202020202" y="713.4545454545455"/>
      <point x="421.5050505050505" y="713.4545454545455" type="curve" smooth="yes"/>
      <point x="264.7878787878788" y="713.4545454545455"/>
      <point x="150.8080808080808" y="593.7070707070707"/>
      <point x="150.8080808080808" y="434.0" type="curve" smooth="yes"/>
      <point x="150.8080808080808" y="277.2828282828283"/>
      <point x="265.5353535353535" y="154.7979797979798"/>
    </contour>
    <contour>
      <point x="427.4848484848485" y="272.030303030303" type="curve" smooth="yes"/>
      <point x="463.93939393939394" y="272.030303030303"/>
      <point x="495.44444444444446" y="280.7676767676768"/>
      <point x="508.95959595959596" y="287.5050505050505" type="curve"/>
      <point x="503.47474747474746" y="356.8787878787879" type="line"/>
      <point x="487.4646464646465" y="354.62626262626264"/>
      <point x="457.2020202020202" y="351.1212121212121"/>
      <point x="434.95959595959596" y="351.1212121212121" type="curve" smooth="yes"/>
      <point x="400.1111111111111" y="351.1212121212121"/>
      <point x="389.35353535353534" y="378.67676767676767"/>
      <point x="389.35353535353534" y="437.4848484848485" type="curve" smooth="yes"/>
      <point x="389.35353535353534" y="493.55555555555554"/>
      <point x="397.8484848484849" y="516.1313131313132"/>
      <point x="434.95959595959596" y="516.1313131313132" type="curve" smooth="yes"/>
      <point x="457.95959595959596" y="516.1313131313132"/>
      <point x="487.7171717171717" y="512.8787878787879"/>
      <point x="503.47474747474746" y="509.8787878787879" type="curve"/>
      <point x="508.95959595959596" y="582.2424242424242" type="line"/>
      <point x="494.7070707070707" y="587.4848484848485"/>
      <point x="463.7070707070707" y="595.2222222222222"/>
      <point x="430.47474747474746" y="595.2222222222222" type="curve" smooth="yes"/>
      <point x="338.979797979798" y="595.2222222222222"/>
      <point x="304.2828282828283" y="551.6565656565657"/>
      <point x="304.2828282828283" y="437.4848484848485" type="curve" smooth="yes"/>
      <point x="304.2828282828283" y="312.8484848484849"/>
      <point x="339.4848484848485" y="272.030303030303"/>
    </contour>
    <contour>
      <point x="420.010101010101" y="207.72727272727272" type="curve" smooth="yes"/>
      <point x="296.24242424242425" y="207.72727272727272"/>
      <point x="205.23232323232324" y="310.2323232323232"/>
      <point x="205.23232323232324" y="434.0" type="curve" smooth="yes"/>
      <point x="205.23232323232324" y="557.7676767676768"/>
      <point x="296.989898989899" y="660.5252525252525"/>
      <point x="420.75757575757575" y="660.5252525252525" type="curve" smooth="yes"/>
      <point x="544.5252525252525" y="660.5252525252525"/>
      <point x="637.2828282828283" y="557.7676767676768"/>
      <point x="637.2828282828283" y="434.0" type="curve" smooth="yes"/>
      <point x="637.2828282828283" y="309.4848484848485"/>
      <point x="546.020202020202" y="207.72727272727272"/>
    </contour>
  </outline>
</glyph>
<glyph name="ordfeminine" format="2">
  <advance width="335.3131313131313"/>
  <unicode hex="00AA"/>
  <outline>
    <contour>
      <point x="400.7070707070707" y="331.4343434343434" type="curve"/>
      <point x="410.7070707070707" y="399.3030303030303" type="line"/>
      <point x="401.93939393939394" y="400.80808080808083"/>
      <point x="394.9191919191919" y="402.32323232323233"/>
      <point x="390.6666666666667" y="408.5959595959596" type="curve"/>
      <point x="426.4040404040404" y="546.0808080808081" type="line" smooth="yes"/>
      <point x="445.14141414141415" y="627.020202020202"/>
      <point x="403.7070707070707" y="659.2525252525253"/>
      <point x="313.5656565656566" y="659.2525252525253" type="curve" smooth="yes"/>
      <point x="270.37373737373736" y="659.2525252525253"/>
      <point x="222.6161616161616" y="652.7575757575758"/>
      <point x="176.66666666666666" y="639.2929292929293" type="curve"/>
      <point x="173.67676767676767" y="574.1616161616162" type="line"/>
      <point x="212.64646464646464" y="577.1616161616162"/>
      <point x="274.1010101010101" y="580.6666666666666"/>
      <point x="302.5959595959596" y="580.6666666666666" type="curve" smooth="yes"/>
      <point x="330.3838383838384" y="582.1616161616162"/>
      <point x="339.8787878787879" y="579.3838383838383"/>
      <point x="335.85858585858585" y="560.5454545454545" type="curve" smooth="yes"/>
      <point x="296.3838383838384" y="389.64646464646466" type="line"/>
      <point x="289.6868686868687" y="345.7070707070707"/>
      <point x="333.57575757575756" y="333.2020202020202"/>
    </contour>
    <contour>
      <point x="197.57575757575756" y="332.4343434343434" type="curve" smooth="yes"/>
      <point x="237.58585858585857" y="332.4343434343434"/>
      <point x="283.62626262626264" y="346.92929292929296"/>
      <point x="322.8484848484849" y="375.6161616161616" type="curve"/>
      <point x="366.92929292929296" y="447.47474747474746" type="line"/>
      <point x="277.3838383838384" y="419.04040404040404"/>
      <point x="260.75757575757575" y="405.7878787878788"/>
      <point x="228.4747474747475" y="405.7878787878788" type="curve" smooth="yes"/>
      <point x="210.95959595959596" y="405.7878787878788"/>
      <point x="205.44444444444446" y="412.07070707070704"/>
      <point x="208.7070707070707" y="427.37373737373736" type="curve" smooth="yes"/>
      <point x="214.21212121212122" y="452.8989898989899"/>
      <point x="233.45454545454547" y="466.8989898989899"/>
      <point x="257.989898989899" y="468.8989898989899" type="curve" smooth="yes"/>
      <point x="350.27272727272725" y="475.8989898989899" type="line"/>
      <point x="363.4949494949495" y="535.0505050505051" type="line"/>
      <point x="248.03030303030303" y="529.5454545454545" type="line" smooth="yes"/>
      <point x="170.86868686868686" y="525.7979797979798"/>
      <point x="131.65656565656565" y="499.80808080808083"/>
      <point x="119.16161616161617" y="443.09090909090907" type="curve" smooth="yes"/>
      <point x="104.91919191919192" y="378.14141414141415"/>
      <point x="133.8989898989899" y="332.4343434343434"/>
    </contour>
  </outline>
</glyph>
<glyph name="logicalnot" format="2">
  <advance width="560.0"/>
  <unicode hex="00AC"/>
  <outline>
    <contour>
      <point x="450.969696969697" y="109.55555555555556" type="line"/>
      <point x="549.7575757575758" y="109.55555555555556" type="line"/>
      <point x="549.7575757575758" y="351.4343434343434" type="line"/>
      <point x="117.29292929292929" y="351.4343434343434" type="line"/>
      <point x="117.29292929292929" y="253.15151515151516" type="line"/>
      <point x="450.969696969697" y="253.15151515151516" type="line"/>
    </contour>
  </outline>
</glyph>
<glyph name="registered" format="2">
  <advance width="642.2626262626262"/>
  <unicode hex="00AE"/>
  <outline>
    <contour>
      <point x="420.75757575757575" y="154.7979797979798" type="curve" smooth="yes"/>
      <point x="584.2020202020202" y="154.7979797979798"/>
      <point x="691.7070707070707" y="276.5353535353535"/>
      <point x="691.7070707070707" y="434.0" type="curve" smooth="yes"/>
      <point x="691.7070707070707" y="586.2323232323232"/>
      <point x="584.2020202020202" y="713.4545454545455"/>
      <point x="420.75757575757575" y="713.4545454545455" type="curve" smooth="yes"/>
      <point x="264.7878787878788" y="713.4545454545455"/>
      <point x="150.8080808080808" y="593.7070707070707"/>
      <point x="150.8080808080808" y="434.0" type="curve" smooth="yes"/>
      <point x="150.8080808080808" y="277.2828282828283"/>
      <point x="265.5353535353535" y="154.7979797979798"/>
    </contour>
    <contour>
      <point x="420.75757575757575" y="207.72727272727272" type="curve" smooth="yes"/>
      <point x="299.2323232323232" y="207.72727272727272"/>
      <point x="205.23232323232324" y="310.2323232323232"/>
      <point x="205.23232323232324" y="434.0" type="curve" smooth="yes"/>
      <point x="205.23232323232324" y="557.7676767676768"/>
      <point x="297.73737373737373" y="660.5252525252525"/>
      <point x="420.75757575757575" y="660.5252525252525" type="curve" smooth="yes"/>
      <point x="544.5252525252525" y="660.5252525252525"/>
      <point x="637.2828282828283" y="557.7676767676768"/>
      <point x="637.2828282828283" y="434.0" type="curve" smooth="yes"/>
      <point x="637.2828282828283" y="309.4848484848485"/>
      <point x="546.020202020202" y="207.72727272727272"/>
    </contour>
    <contour>
      <point x="305.3030303030303" y="278.52525252525254" type="line"/>
      <point x="385.14141414141415" y="278.52525252525254" type="line"/>
      <point x="385.14141414141415" y="377.3333333333333" type="line"/>
      <point x="427.27272727272725" y="377.3333333333333" type="line"/>
      <point x="464.1111111111111" y="278.52525252525254" type="line"/>
      <point x="547.9494949494949" y="278.52525252525254" type="line"/>
      <point x="500.8888888888889" y="390.7979797979798" type="line"/>
      <point x="533.6767676767677" y="411.5151515151515"/>
      <point x="544.1919191919192" y="436.77777777777777"/>
      <point x="544.1919191919192" y="487.5151515151515" type="curve" smooth="yes"/>
      <point x="544.1919191919192" y="561.4949494949495"/>
      <point x="498.22222222222223" y="588.4747474747475"/>
      <point x="430.44444444444446" y="588.4747474747475" type="curve" smooth="yes"/>
      <point x="305.3030303030303" y="588.4747474747475" type="line"/>
    </contour>
    <contour>
      <point x="384.3939393939394" y="438.2323232323232" type="line"/>
      <point x="384.3939393939394" y="526.8282828282828" type="line"/>
      <point x="420.2323232323232" y="526.8282828282828" type="line" smooth="yes"/>
      <point x="451.80808080808083" y="526.8282828282828"/>
      <point x="466.5959595959596" y="511.5858585858586"/>
      <point x="466.5959595959596" y="482.2828282828283" type="curve" smooth="yes"/>
      <point x="466.5959595959596" y="453.72727272727275"/>
      <point x="453.0808080808081" y="438.2323232323232"/>
      <point x="425.52525252525254" y="438.2323232323232" type="curve" smooth="yes"/>
    </contour>
  </outline>
</glyph>
<glyph name="macron" format="2">
  <advance width="452.4040404040404"/>
  <unicode hex="00AF"/>
  <outline>
    <contour>
      <point x="222.05050505050505" y="632.0505050505051" type="line"/>
      <point x="515.9090909090909" y="632.0505050505051" type="line"/>
      <point x="537.1111111111111" y="720.0909090909091" type="line"/>
      <point x="242.25252525252526" y="720.0909090909091" type="line"/>
    </contour>
  </outline>
</glyph>
<glyph name="degree" format="2">
  <advance width="560.0"/>
  <unicode hex="00B0"/>
  <outline>
    <contour>
      <point x="406.5151515151515" y="404.3636363636364" type="curve" smooth="yes"/>
      <point x="493.4949494949495" y="404.3636363636364"/>
      <point x="552.979797979798" y="462.8484848484849"/>
      <point x="552.979797979798" y="549.8282828282828" type="curve" smooth="yes"/>
      <point x="552.979797979798" y="636.8080808080808"/>
      <point x="493.4949494949495" y="696.2929292929293"/>
      <point x="406.5151515151515" y="696.2929292929293" type="curve" smooth="yes"/>
      <point x="319.5353535353535" y="696.2929292929293"/>
      <point x="260.050505050505" y="636.8080808080808"/>
      <point x="260.050505050505" y="549.8282828282828" type="curve" smooth="yes"/>
      <point x="260.050505050505" y="462.8484848484849"/>
      <point x="319.5353535353535" y="404.3636363636364"/>
    </contour>
    <contour>
      <point x="406.5151515151515" y="467.010101010101" type="curve" smooth="yes"/>
      <point x="357.22222222222223" y="467.010101010101"/>
      <point x="324.6969696969697" y="500.5353535353535"/>
      <point x="324.6969696969697" y="549.8282828282828" type="curve" smooth="yes"/>
      <point x="324.6969696969697" y="599.1212121212121"/>
      <point x="357.22222222222223" y="633.6464646464647"/>
      <point x="406.5151515151515" y="633.6464646464647" type="curve" smooth="yes"/>
      <point x="455.80808080808083" y="633.6464646464647"/>
      <point x="490.3333333333333" y="599.1212121212121"/>
      <point x="490.3333333333333" y="549.8282828282828" type="curve" smooth="yes"/>
      <point x="490.3333333333333" y="500.5353535353535"/>
      <point x="455.80808080808083" y="467.010101010101"/>
    </contour>
  </outline>
</glyph>
<glyph name="plusminus" format="2">
  <advance width="560.0"/>
  <unicode hex="00B1"/>
  <outline>
    <contour>
      <point x="277.8484848484849" y="168.4848484848485" type="line"/>
      <point x="376.6363636363636" y="168.4848484848485" type="line"/>
      <point x="376.6363636363636" y="279.5959595959596" type="line"/>
      <point x="555.969696969697" y="279.5959595959596" type="line"/>
      <point x="555.969696969697" y="377.8787878787879" type="line"/>
      <point x="376.6363636363636" y="377.8787878787879" type="line"/>
      <point x="376.6363636363636" y="493.45454545454544" type="line"/>
      <point x="277.8484848484849" y="493.45454545454544" type="line"/>
      <point x="277.8484848484849" y="377.8787878787879" type="line"/>
      <point x="100.51515151515152" y="377.8787878787879" type="line"/>
      <point x="100.51515151515152" y="279.5959595959596" type="line"/>
      <point x="277.8484848484849" y="279.5959595959596" type="line"/>
    </contour>
    <contour>
      <point x="100.51515151515152" y="26.828282828282827" type="line"/>
      <point x="555.969696969697" y="26.828282828282827" type="line"/>
      <point x="555.969696969697" y="125.11111111111111" type="line"/>
      <point x="100.51515151515152" y="125.11111111111111" type="line"/>
    </contour>
  </outline>
</glyph>
<glyph name="twosuperior" format="2">
  <advance width="280.0"/>
  <unicode hex="00B2"/>
  <outline>
    <contour>
      <point x="136.53535353535352" y="478.0" type="line"/>
      <point x="358.44444444444446" y="478.0" type="line"/>
      <point x="377.65656565656565" y="557.5959595959596" type="line"/>
      <point x="270.020202020202" y="557.5959595959596" type="line"/>
      <point x="327.8989898989899" y="598.979797979798" type="line" smooth="yes"/>
      <point x="376.4040404040404" y="631.010101010101"/>
      <point x="401.2586868686869" y="658.8211313131313"/>
      <point x="412.6868686868687" y="704.2828282828283" type="curve" smooth="yes"/>
      <point x="429.5011111111111" y="771.7915757575757"/>
      <point x="407.6666666666667" y="800.4949494949495"/>
      <point x="330.47474747474746" y="800.4949494949495" type="curve" smooth="yes"/>
      <point x="297.979797979798" y="800.4949494949495"/>
      <point x="246.26262626262627" y="794.989898989899"/>
      <point x="216.2828282828283" y="790.4848484848485" type="curve"/>
      <point x="199.07070707070707" y="708.1515151515151" type="line"/>
      <point x="223.32323232323233" y="711.6565656565657"/>
      <point x="262.5858585858586" y="715.6666666666666"/>
      <point x="280.85858585858585" y="715.6666666666666" type="curve" smooth="yes"/>
      <point x="307.62626262626264" y="715.6666666666666"/>
      <point x="321.4817777777778" y="709.868707070707"/>
      <point x="316.8888888888889" y="691.8282828282828" type="curve" smooth="yes"/>
      <point x="311.4514747474747" y="670.4949696969696"/>
      <point x="292.0808080808081" y="652.2323232323232"/>
      <point x="252.0909090909091" y="624.2222222222222" type="curve" smooth="yes"/>
      <point x="155.0" y="553.8585858585859" type="line"/>
    </contour>
  </outline>
</glyph>
<glyph name="threesuperior" format="2">
  <advance width="280.0"/>
  <unicode hex="00B3"/>
  <outline>
    <contour>
      <point x="247.5050505050505" y="467.5050505050505" type="curve" smooth="yes"/>
      <point x="317.979797979798" y="467.5050505050505"/>
      <point x="368.78393939393936" y="499.53830303030304"/>
      <point x="385.7070707070707" y="567.2323232323232" type="curve" smooth="yes"/>
      <point x="397.2889898989899" y="614.064303030303"/>
      <point x="387.4343434343434" y="631.7474747474747"/>
      <point x="364.1515151515151" y="641.7474747474747" type="curve"/>
      <point x="385.65656565656565" y="651.989898989899"/>
      <point x="406.949494949495" y="677.2424242424242"/>
      <point x="415.7070707070707" y="713.7676767676768" type="curve" smooth="yes"/>
      <point x="428.95959595959596" y="766.7777777777778"/>
      <point x="400.969696969697" y="793.7676767676768"/>
      <point x="326.25252525252523" y="795.2626262626262" type="curve" smooth="yes"/>
      <point x="291.1212121212121" y="796.010101010101"/>
      <point x="250.6060606060606" y="790.7777777777778"/>
      <point x="207.31313131313132" y="779.7777777777778" type="curve"/>
      <point x="200.8181818181818" y="714.8888888888889" type="line"/>
      <point x="222.07070707070707" y="717.3939393939394"/>
      <point x="261.0808080808081" y="720.8989898989898"/>
      <point x="289.8484848484849" y="720.8989898989898" type="curve" smooth="yes"/>
      <point x="312.9191919191919" y="720.8989898989898"/>
      <point x="322.9191919191919" y="714.6161616161617"/>
      <point x="318.9090909090909" y="698.070707070707" type="curve" smooth="yes"/>
      <point x="314.3939393939394" y="681.7575757575758"/>
      <point x="299.32323232323233" y="671.6969696969697"/>
      <point x="284.050505050505" y="671.6969696969697" type="curve" smooth="yes"/>
      <point x="219.7979797979798" y="671.6969696969697" type="line"/>
      <point x="202.08080808080808" y="599.5757575757576" type="line"/>
      <point x="267.82828282828285" y="599.5757575757576" type="line" smooth="yes"/>
      <point x="289.86868686868684" y="599.5757575757576"/>
      <point x="301.4040404040404" y="594.2929292929293"/>
      <point x="296.1313131313131" y="573.7070707070707" type="curve" smooth="yes"/>
      <point x="291.86868686868684" y="556.1515151515151"/>
      <point x="278.82828282828285" y="547.1010101010102"/>
      <point x="252.02020202020202" y="547.1010101010102" type="curve" smooth="yes"/>
      <point x="224.989898989899" y="547.1010101010102"/>
      <point x="181.73737373737373" y="550.6060606060606"/>
      <point x="156.74747474747474" y="553.8585858585859" type="curve"/>
      <point x="132.2929292929293" y="476.26262626262627" type="line"/>
      <point x="160.77777777777777" y="472.75757575757575"/>
      <point x="211.5050505050505" y="467.5050505050505"/>
    </contour>
  </outline>
</glyph>
<glyph name="acute" format="2">
  <advance width="553.4444444444445"/>
  <unicode hex="00B4"/>
  <outline>
    <contour>
      <point x="264.6060606060606" y="584.5858585858585" type="line"/>
      <point x="513.4545454545455" y="665.6161616161617" type="line"/>
      <point x="504.4646464646465" y="762.8888888888889" type="line"/>
      <point x="255.86868686868686" y="670.8787878787879" type="line"/>
    </contour>
  </outline>
</glyph>
<glyph name="mu" format="2">
  <advance width="639.6565656565657"/>
  <unicode hex="00B5"/>
  <outline>
    <contour>
      <point x="150.77777777777777" y="-157.7070707070707" type="line"/>
      <point x="258.77777777777777" y="-157.7070707070707" type="line"/>
      <point x="374.030303030303" y="342.2929292929293" type="line"/>
      <point x="266.030303030303" y="342.2929292929293" type="line"/>
    </contour>
    <component base="u" xOffset="132.96969696969697"/>
  </outline>
</glyph>
<glyph name="paragraph" format="2">
  <advance width="561.4646464646464"/>
  <unicode hex="00B6"/>
  <outline>
    <contour>
      <point x="207.010101010101" y="0.0" type="line"/>
      <point x="296.32323232323233" y="0.0" type="line"/>
      <point x="442.6161616161616" y="611.6767676767677" type="line"/>
      <point x="521.3333333333334" y="611.6767676767677" type="line"/>
      <point x="376.04040404040404" y="0.0" type="line"/>
      <point x="464.6060606060606" y="0.0" type="line"/>
      <point x="610.6464646464647" y="611.6767676767677" type="line"/>
      <point x="659.2929292929293" y="611.6767676767677" type="line"/>
      <point x="679.7474747474747" y="700.0" type="line"/>
      <point x="367.75757575757575" y="700.0" type="line" smooth="yes"/>
      <point x="232.77777777777777" y="700.0"/>
      <point x="142.27272727272728" y="579.5050505050505"/>
      <point x="142.27272727272728" y="465.3030303030303" type="curve" smooth="yes"/>
      <point x="142.27272727272728" y="388.3333333333333"/>
      <point x="177.7979797979798" y="318.6060606060606"/>
      <point x="283.04040404040404" y="316.85858585858585" type="curve"/>
    </contour>
  </outline>
</glyph>
<glyph name="periodcentered" format="2">
  <advance width="158.82828282828282"/>
  <unicode hex="00B7"/>
  <outline>
    <contour>
      <point x="75.69696969696969" y="222.9090909090909" type="line"/>
      <point x="186.2020202020202" y="222.9090909090909" type="line"/>
      <point x="219.15151515151516" y="370.19191919191917" type="line"/>
      <point x="108.64646464646464" y="370.19191919191917" type="line"/>
    </contour>
  </outline>
</glyph>
<glyph name="cedilla" format="2">
  <advance width="791.0"/>
  <unicode hex="00B8"/>
  <outline>
    <contour>
      <point x="382.5656565656566" y="-221.42424242424244" type="curve" smooth="yes"/>
      <point x="447.27272727272725" y="-221.42424242424244"/>
      <point x="488.05044444444445" y="-188.4788484848485"/>
      <point x="502.979797979798" y="-124.0" type="curve" smooth="yes"/>
      <point x="518.7777171717172" y="-56.06470707070707"/>
      <point x="475.4848484848485" y="-38.05050505050505"/>
      <point x="417.010101010101" y="-38.05050505050505" type="curve" smooth="yes"/>
      <point x="411.26262626262627" y="-38.05050505050505" type="line"/>
      <point x="423.27272727272725" y="5.0" type="line"/>
      <point x="376.32323232323233" y="5.0" type="line"/>
      <point x="354.57575757575756" y="-91.22222222222223" type="line"/>
      <point x="383.8989898989899" y="-91.22222222222223" type="line" smooth="yes"/>
      <point x="405.8989898989899" y="-91.22222222222223"/>
      <point x="421.5022222222222" y="-94.44"/>
      <point x="415.9090909090909" y="-116.52525252525253" type="curve" smooth="yes"/>
      <point x="410.7345454545454" y="-136.77557575757578"/>
      <point x="397.1313131313131" y="-145.57575757575756"/>
      <point x="370.37373737373736" y="-145.57575757575756" type="curve" smooth="yes"/>
      <point x="355.5959595959596" y="-145.57575757575756"/>
      <point x="331.8181818181818" y="-144.32323232323233"/>
      <point x="317.55555555555554" y="-143.8181818181818" type="curve"/>
      <point x="300.5858585858586" y="-212.1919191919192" type="line"/>
      <point x="317.82828282828285" y="-216.43434343434345"/>
      <point x="352.3131313131313" y="-221.42424242424244"/>
    </contour>
  </outline>
</glyph>
<glyph name="onesuperior" format="2">
  <advance width="280.0"/>
  <unicode hex="00B9"/>
  <outline>
    <contour>
      <point x="231.8080808080808" y="478.0" type="line"/>
      <point x="320.13131313131316" y="478.0" type="line"/>
      <point x="397.13131313131316" y="790.0" type="line"/>
      <point x="316.2828282828283" y="790.0" type="line"/>
      <point x="194.55555555555554" y="717.020202020202" type="line"/>
      <point x="219.5050505050505" y="654.6363636363636" type="line"/>
      <point x="284.85858585858585" y="692.6969696969697" type="line"/>
    </contour>
  </outline>
</glyph>
<glyph name="ordmasculine" format="2">
  <advance width="341.989898989899"/>
  <unicode hex="00BA"/>
  <outline>
    <contour>
      <point x="243.54545454545453" y="331.42424242424244" type="curve" smooth="yes"/>
      <point x="352.19191919191917" y="331.42424242424244"/>
      <point x="410.3939393939394" y="374.92929292929296"/>
      <point x="439.85858585858585" y="499.3030303030303" type="curve" smooth="yes"/>
      <point x="446.35353535353534" y="526.7878787878788"/>
      <point x="450.1010101010101" y="556.7474747474747"/>
      <point x="444.1212121212121" y="588.2222222222222" type="curve" smooth="yes"/>
      <point x="435.1515151515151" y="639.2323232323232"/>
      <point x="376.74747474747477" y="659.4949494949495"/>
      <point x="321.0" y="659.4949494949495" type="curve" smooth="yes"/>
      <point x="220.57575757575756" y="659.4949494949495"/>
      <point x="160.88888888888889" y="617.5050505050505"/>
      <point x="132.40404040404042" y="501.8181818181818" type="curve" smooth="yes"/>
      <point x="127.4040404040404" y="481.5656565656566"/>
      <point x="124.65656565656565" y="463.3131313131313"/>
      <point x="123.9090909090909" y="446.5656565656566" type="curve" smooth="yes"/>
      <point x="120.17171717171718" y="374.37373737373736"/>
      <point x="165.37373737373736" y="331.42424242424244"/>
    </contour>
    <contour>
      <point x="263.25252525252523" y="412.27272727272725" type="curve" smooth="yes"/>
      <point x="230.97979797979798" y="412.27272727272725"/>
      <point x="219.45454545454547" y="425.2828282828283"/>
      <point x="219.45454545454547" y="454.80808080808083" type="curve" smooth="yes"/>
      <point x="219.45454545454547" y="469.55555555555554"/>
      <point x="222.2020202020202" y="484.80808080808083"/>
      <point x="227.2020202020202" y="504.06060606060606" type="curve" smooth="yes"/>
      <point x="241.46464646464648" y="561.6161616161617"/>
      <point x="262.989898989899" y="581.6363636363636"/>
      <point x="304.2828282828283" y="581.6363636363636" type="curve" smooth="yes"/>
      <point x="335.80808080808083" y="581.6363636363636"/>
      <point x="350.5656565656566" y="569.3838383838383"/>
      <point x="350.5656565656566" y="539.3636363636364" type="curve" smooth="yes"/>
      <point x="350.5656565656566" y="526.3636363636364"/>
      <point x="348.8181818181818" y="513.8484848484849"/>
      <point x="345.3131313131313" y="499.57575757575756" type="curve" smooth="yes"/>
      <point x="327.3131313131313" y="432.7979797979798"/>
      <point x="305.2929292929293" y="412.27272727272725"/>
    </contour>
  </outline>
</glyph>
<glyph name="guillemotright" format="2">
  <advance width="476.52525252525254"/>
  <unicode hex="00BB"/>
  <outline>
    <contour>
      <point x="365.7878787878788" y="424.6363636363636" type="line"/>
      <point x="338.34343434343435" y="326.1010101010101" type="line"/>
      <point x="421.8787878787879" y="240.76767676767676" type="line"/>
      <point x="301.050505050505" y="166.67676767676767" type="line"/>
      <point x="270.3636363636364" y="58.4040404040404" type="line"/>
      <point x="504.95959595959596" y="212.56565656565655" type="line"/>
      <point x="524.1717171717172" y="263.7171717171717" type="line"/>
    </contour>
    <contour>
      <point x="132.85858585858585" y="424.6363636363636" type="line"/>
      <point x="105.41414141414141" y="326.1010101010101" type="line"/>
      <point x="188.94949494949495" y="240.76767676767676" type="line"/>
      <point x="68.12121212121212" y="166.67676767676767" type="line"/>
      <point x="37.43434343434343" y="58.4040404040404" type="line"/>
      <point x="272.030303030303" y="212.56565656565655" type="line"/>
      <point x="291.24242424242425" y="263.7171717171717" type="line"/>
    </contour>
  </outline>
</glyph>
<glyph name="questiondown" format="2">
  <advance width="421.64646464646466"/>
  <unicode hex="00BF"/>
  <outline>
    <contour>
      <point x="361.37373737373736" y="297.3030303030303" type="curve"/>
      <point x="258.6060606060606" y="297.3030303030303" type="line"/>
      <point x="249.85858585858585" y="257.55555555555554" type="line" smooth="yes"/>
      <point x="244.35353535353536" y="232.02020202020202"/>
      <point x="222.0909090909091" y="202.989898989899"/>
      <point x="181.2929292929293" y="172.93939393939394" type="curve" smooth="yes"/>
      <point x="64.72727272727273" y="88.1010101010101"/>
      <point x="24.737373737373737" y="46.37373737373738"/>
      <point x="24.737373737373737" y="-50.64646464646464" type="curve" smooth="yes"/>
      <point x="24.737373737373737" y="-155.32323232323233"/>
      <point x="94.72727272727273" y="-196.04040404040404"/>
      <point x="200.65656565656565" y="-196.04040404040404" type="curve" smooth="yes"/>
      <point x="250.64646464646464" y="-196.04040404040404"/>
      <point x="319.8888888888889" y="-181.2929292929293"/>
      <point x="358.3838383838384" y="-169.7979797979798" type="curve"/>
      <point x="368.8484848484849" y="-83.23232323232322" type="line"/>
      <point x="335.82828282828285" y="-89.24242424242424"/>
      <point x="273.3131313131313" y="-97.75757575757575"/>
      <point x="225.34343434343435" y="-97.75757575757575" type="curve" smooth="yes"/>
      <point x="173.27272727272728" y="-97.75757575757575"/>
      <point x="140.47474747474746" y="-88.21212121212122"/>
      <point x="140.47474747474746" y="-40.18181818181818" type="curve" smooth="yes"/>
      <point x="140.47474747474746" y="9.696969696969697"/>
      <point x="173.97979797979798" y="38.96969696969697"/>
      <point x="256.8484848484849" y="100.58585858585859" type="curve" smooth="yes"/>
      <point x="314.3636363636364" y="143.11111111111111"/>
      <point x="346.8686868686869" y="180.87878787878788"/>
      <point x="353.8787878787879" y="219.17171717171718" type="curve" smooth="yes"/>
      <point x="359.1212121212121" y="245.3838383838384"/>
      <point x="361.1212121212121" y="279.3333333333333"/>
    </contour>
    <contour>
      <point x="410.32323232323233" y="500.0" type="line"/>
      <point x="299.57575757575756" y="500.0" type="line"/>
      <point x="266.62626262626264" y="353.7171717171717" type="line"/>
      <point x="377.62626262626264" y="353.7171717171717" type="line"/>
    </contour>
  </outline>
</glyph>
<glyph name="AE" format="2">
  <advance width="764.8585858585859"/>
  <unicode hex="00C6"/>
  <outline>
    <contour>
      <point x="18.545454545454547" y="0.0" type="line"/>
      <point x="125.30303030303031" y="0.0" type="line"/>
      <point x="193.7070707070707" y="143.24242424242425" type="line"/>
      <point x="361.2020202020202" y="143.24242424242425" type="line"/>
      <point x="327.8989898989899" y="0.0" type="line"/>
      <point x="726.5757575757576" y="0.0" type="line"/>
      <point x="749.7676767676768" y="105.5050505050505" type="line"/>
      <point x="457.35353535353534" y="105.5050505050505" type="line"/>
      <point x="501.949494949495" y="293.6666666666667" type="line"/>
      <point x="739.6161616161617" y="293.6666666666667" type="line"/>
      <point x="762.8080808080808" y="395.4343434343434" type="line"/>
      <point x="525.8888888888889" y="395.4343434343434" type="line"/>
      <point x="572.2222222222222" y="588.2727272727273" type="line"/>
      <point x="865.1414141414141" y="586.2727272727273" type="line"/>
      <point x="889.0808080808081" y="692.5252525252525" type="line"/>
      <point x="342.2020202020202" y="692.5252525252525" type="line"/>
    </contour>
    <contour>
      <point x="241.1010101010101" y="247.0" type="line"/>
      <point x="399.3131313131313" y="587.0202020202021" type="line"/>
      <point x="466.4646464646465" y="587.0202020202021" type="line"/>
      <point x="386.14141414141415" y="247.0" type="line"/>
    </contour>
  </outline>
</glyph>
<glyph name="Eth" format="2">
  <advance width="612.2424242424242"/>
  <unicode hex="00D0"/>
  <outline>
    <contour>
      <point x="84.51515151515152" y="289.3939393939394" type="line"/>
      <point x="379.44444444444446" y="289.3939393939394" type="line"/>
      <point x="404.14141414141415" y="400.64646464646466" type="line"/>
      <point x="107.95959595959596" y="400.64646464646466" type="line"/>
    </contour>
    <component base="D" xOffset="6.484848484848485"/>
  </outline>
</glyph>
<glyph name="Odieresis" format="2">
  <advance width="620.3030303030303"/>
  <unicode hex="00D6"/>
  <outline>
    <contour>
      <point x="341.95959595959596" y="794.1313131313132" type="line"/>
      <point x="440.24242424242425" y="794.1313131313132" type="line"/>
      <point x="467.949494949495" y="911.4545454545455" type="line"/>
      <point x="368.9191919191919" y="911.4545454545455" type="line"/>
    </contour>
    <contour>
      <point x="539.8989898989898" y="794.1313131313132" type="line"/>
      <point x="637.6767676767677" y="794.1313131313132" type="line"/>
      <point x="665.3838383838383" y="911.4545454545455" type="line"/>
      <point x="566.3535353535353" y="911.4545454545455" type="line"/>
    </contour>
    <component base="O"/>
  </outline>
</glyph>
<glyph name="multiply" format="2">
  <advance width="560.0"/>
  <unicode hex="00D7"/>
  <outline>
    <contour>
      <point x="485.83838383838383" y="32.56565656565657" type="line"/>
      <point x="555.4343434343434" y="102.16161616161617" type="line"/>
      <point x="404.1010101010101" y="250.25252525252526" type="line"/>
      <point x="555.4343434343434" y="399.09090909090907" type="line"/>
      <point x="486.5858585858586" y="468.6868686868687" type="line"/>
      <point x="337.74747474747477" y="317.35353535353534" type="line"/>
      <point x="190.40404040404042" y="467.19191919191917" type="line"/>
      <point x="120.8080808080808" y="397.5959595959596" type="line"/>
      <point x="270.64646464646466" y="250.25252525252526" type="line"/>
      <point x="120.06060606060606" y="102.16161616161617" type="line"/>
      <point x="189.65656565656565" y="33.31313131313131" type="line"/>
      <point x="337.74747474747477" y="183.15151515151516" type="line"/>
    </contour>
  </outline>
</glyph>
<glyph name="Oslash" format="2">
  <advance width="620.3030303030303"/>
  <unicode hex="00D8"/>
  <outline>
    <contour>
      <point x="115.71717171717172" y="-118.22222222222223" type="line"/>
      <point x="419.4646464646465" y="326.7676767676768" type="line"/>
      <point x="723.959595959596" y="774.7575757575758" type="line"/>
      <point x="661.070707070707" y="801.4646464646464" type="line"/>
      <point x="359.8181818181818" y="359.2121212121212" type="line"/>
      <point x="59.56565656565657" y="-84.28282828282828" type="line"/>
    </contour>
    <component base="O"/>
  </outline>
</glyph>
<glyph name="Udieresis" format="2">
  <advance width="594.4949494949495"/>
  <unicode hex="00DC"/>
  <outline>
    <contour>
      <point x="474.1515151515151" y="794.1313131313132" type="line"/>
      <point x="572.4343434343434" y="794.1313131313132" type="line"/>
      <point x="600.1414141414141" y="911.4545454545455" type="line"/>
      <point x="501.1111111111111" y="911.4545454545455" type="line"/>
    </contour>
    <contour>
      <point x="367.1212121212121" y="794.1313131313132" type="line"/>
      <point x="464.8989898989899" y="794.1313131313132" type="line"/>
      <point x="492.6060606060606" y="911.4545454545455" type="line"/>
      <point x="393.57575757575756" y="911.4545454545455" type="line"/>
    </contour>
    <component base="U"/>
  </outline>
</glyph>
<glyph name="Thorn" format="2">
  <advance width="542.5454545454545"/>
  <unicode hex="00DE"/>
  <outline>
    <contour>
      <point x="68.55555555555556" y="0.0" type="line"/>
      <point x="174.8181818181818" y="0.0" type="line"/>
      <point x="199.83838383838383" y="108.58585858585859" type="line"/>
      <point x="322.35353535353534" y="107.83838383838383" type="line" smooth="yes"/>
      <point x="466.0808080808081" y="106.34343434343434"/>
      <point x="565.7575757575758" y="203.35353535353536"/>
      <point x="598.4949494949495" y="352.7979797979798" type="curve" smooth="yes"/>
      <point x="626.4848484848485" y="482.74747474747477"/>
      <point x="573.0909090909091" y="589.4646464646464"/>
      <point x="434.06060606060606" y="589.4646464646464" type="curve" smooth="yes"/>
      <point x="313.06060606060606" y="589.4646464646464" type="line"/>
      <point x="338.8181818181818" y="692.5252525252525" type="line"/>
      <point x="231.8080808080808" y="692.5252525252525" type="line"/>
    </contour>
    <contour>
      <point x="225.77777777777777" y="218.32323232323233" type="line"/>
      <point x="288.1212121212121" y="481.22222222222223" type="line"/>
      <point x="408.86868686868684" y="479.72727272727275" type="line" smooth="yes"/>
      <point x="492.5151515151515" y="478.2323232323232"/>
      <point x="507.01010101010104" y="418.64646464646466"/>
      <point x="490.4848484848485" y="352.7979797979798" type="curve" smooth="yes"/>
      <point x="469.95959595959596" y="271.949494949495"/>
      <point x="424.9191919191919" y="218.32323232323233"/>
      <point x="347.54545454545456" y="218.32323232323233" type="curve" smooth="yes"/>
    </contour>
  </outline>
</glyph>
<glyph name="germandbls" format="2">
  <advance width="553.3939393939394"/>
  <unicode hex="00DF"/>
  <outline>
    <contour>
      <point x="356.7979797979798" y="-11.242424242424242" type="curve" smooth="yes"/>
      <point x="489.34343434343435" y="-11.242424242424242"/>
      <point x="568.1010101010102" y="65.53535353535354"/>
      <point x="568.1010101010102" y="185.8080808080808" type="curve" smooth="yes"/>
      <point x="568.1010101010102" y="253.31313131313132"/>
      <point x="543.3535353535353" y="270.5656565656566"/>
      <point x="486.54545454545456" y="306.5959595959596" type="curve" smooth="yes"/>
      <point x="433.3030303030303" y="340.5858585858586"/>
      <point x="422.06060606060606" y="350.34343434343435"/>
      <point x="422.06060606060606" y="372.85858585858585" type="curve" smooth="yes"/>
      <point x="422.06060606060606" y="399.6060606060606"/>
      <point x="445.55555555555554" y="412.3636363636364"/>
      <point x="509.030303030303" y="439.37373737373736" type="curve" smooth="yes"/>
      <point x="576.989898989899" y="467.8787878787879"/>
      <point x="602.3030303030303" y="513.8686868686868"/>
      <point x="602.3030303030303" y="584.1717171717172" type="curve" smooth="yes"/>
      <point x="602.3030303030303" y="669.6060606060606"/>
      <point x="540.6161616161617" y="718.8181818181819"/>
      <point x="418.6969696969697" y="718.8181818181819" type="curve" smooth="yes"/>
      <point x="288.0" y="718.8181818181819"/>
      <point x="218.05050505050505" y="673.5353535353536"/>
      <point x="182.3030303030303" y="523.7878787878788" type="curve" smooth="yes"/>
      <point x="58.7979797979798" y="0.0" type="line"/>
      <point x="161.56565656565658" y="0.0" type="line"/>
      <point x="281.0808080808081" y="509.57575757575756" type="line" smooth="yes"/>
      <point x="300.3636363636364" y="592.7171717171717"/>
      <point x="335.13131313131316" y="625.5252525252525"/>
      <point x="407.979797979798" y="625.5252525252525" type="curve" smooth="yes"/>
      <point x="466.54545454545456" y="625.5252525252525"/>
      <point x="491.55555555555554" y="605.010101010101"/>
      <point x="491.55555555555554" y="572.4444444444445" type="curve" smooth="yes"/>
      <point x="491.55555555555554" y="535.8585858585859"/>
      <point x="476.26262626262627" y="520.040404040404"/>
      <point x="415.7979797979798" y="490.7979797979798" type="curve" smooth="yes"/>
      <point x="346.020202020202" y="457.020202020202"/>
      <point x="311.5656565656566" y="425.3131313131313"/>
      <point x="311.5656565656566" y="352.9090909090909" type="curve" smooth="yes"/>
      <point x="311.5656565656566" y="305.95959595959596"/>
      <point x="330.3030303030303" y="281.4646464646465"/>
      <point x="390.7878787878788" y="245.22222222222223" type="curve" smooth="yes"/>
      <point x="447.3333333333333" y="211.1919191919192"/>
      <point x="457.35353535353534" y="201.4141414141414"/>
      <point x="457.35353535353534" y="171.35353535353536" type="curve" smooth="yes"/>
      <point x="457.35353535353534" y="122.15151515151516"/>
      <point x="421.73737373737373" y="82.05050505050505"/>
      <point x="345.8484848484849" y="82.05050505050505" type="curve" smooth="yes"/>
      <point x="313.3636363636364" y="82.05050505050505"/>
      <point x="262.62626262626264" y="89.30303030303031"/>
      <point x="233.3838383838384" y="94.55555555555556" type="curve"/>
      <point x="210.44444444444446" y="13.222222222222223" type="line"/>
      <point x="244.41414141414143" y="2.7373737373737375"/>
      <point x="308.1010101010101" y="-11.242424242424242"/>
    </contour>
  </outline>
</glyph>
<glyph name="acircumflex" format="2">
  <advance width="516.3838383838383"/>
  <unicode hex="00E2"/>
  <outline>
    <contour>
      <point x="224.12121212121212" y="580.0505050505051" type="line"/>
      <point x="339.62626262626264" y="580.0505050505051" type="line"/>
      <point x="410.75757575757575" y="653.3939393939394" type="line"/>
      <point x="444.85858585858585" y="580.0505050505051" type="line"/>
      <point x="553.1212121212121" y="580.0505050505051" type="line"/>
      <point x="466.8686868686869" y="744.9494949494949" type="line"/>
      <point x="386.5656565656566" y="744.9494949494949" type="line"/>
    </contour>
    <component base="a"/>
  </outline>
</glyph>
<glyph name="adieresis" format="2">
  <advance width="516.3838383838383"/>
  <unicode hex="00E4"/>
  <outline>
    <contour>
      <point x="404.5858585858586" y="609.0808080808081" type="line"/>
      <point x="502.86868686868684" y="609.0808080808081" type="line"/>
      <point x="530.5757575757576" y="726.4040404040404" type="line"/>
      <point x="431.54545454545456" y="726.4040404040404" type="line"/>
    </contour>
    <contour>
      <point x="297.55555555555554" y="609.0808080808081" type="line"/>
      <point x="395.3333333333333" y="609.0808080808081" type="line"/>
      <point x="423.04040404040404" y="726.4040404040404" type="line"/>
      <point x="324.01010101010104" y="726.4040404040404" type="line"/>
    </contour>
    <component base="a"/>
  </outline>
</glyph>
